
<svg width="536" height="556" fill="none" xmlns="http://www.w3.org/2000/svg">
  <path opacity=".2" d="M457.83 391.66a12.48 12.48 0 0 0-17.66 0l-71.51 71.51a12.48 12.48 0 0 0 0 17.66l71.51 71.51a12.48 12.48 0 0 0 17.66 0l71.51-71.51a12.48 12.48 0 0 0 0-17.66l-71.51-71.51Z" fill="#B8A3FF"/>
  <path fill-rule="evenodd" clip-rule="evenodd" d="M321.77 291.78a1.35 1.35 0 0 1 1.06-1.58c3.27-.65 6.51-1.23 9.73-1.81 16.2-2.91 31.69-5.7 45.2-15.81 10.78-8.07 20.92-21.4 20.56-35.14-5.67.42-11.24-1.13-16.66-4.38-2.56-1.54-5.89-3.84-8.4-6.72-2.5-2.87-4.36-6.51-3.46-10.61.77-3.54 4-4.78 6.88-5.04 2.93-.28 6.13.35 8.06 1.1 9.01 3.53 14.8 13.33 16.04 22.6a25.9 25.9 0 0 0 6.48-2.24c9.74-4.82 16.56-12.7 21.84-21.9 5.05-8.8 8.66-18.72 12.1-28.17l.47-1.3a1.35 1.35 0 1 1 2.53.91l-.5 1.38c-3.41 9.4-7.09 19.51-12.27 28.53-5.44 9.47-12.6 17.83-22.98 22.97a28.47 28.47 0 0 1-7.44 2.52v.28c.4 15.01-10.56 29.08-21.63 37.37-14.07 10.52-30.3 13.43-46.5 16.34a519.3 519.3 0 0 0-9.52 1.76 1.35 1.35 0 0 1-1.59-1.06Zm76.34-57.03c-1.13-8.54-6.48-17.37-14.35-20.45a16.6 16.6 0 0 0-6.84-.93c-2.52.23-4.1 1.17-4.5 2.93-.62 2.9.63 5.7 2.87 8.27 2.24 2.56 5.3 4.7 7.76 6.17 4.97 2.98 9.97 4.39 15.06 4.01Z" fill="#000"/>
  <path fill-rule="evenodd" clip-rule="evenodd" d="M321.03 292.8c.34.1.68.18.84.24a201.72 201.72 0 0 1 5.83 2.1 1.35 1.35 0 1 1-.93 2.54l-1.73-.64c-1.35-.5-2.7-.99-4.05-1.45l-.07-.02-.2-.06-.3-.08-.31-.08c-.48-.12-1.09-.28-1.67-.47-.57-.17-1.2-.4-1.68-.65a2.7 2.7 0 0 1-.78-.57 1.62 1.62 0 0 1-.37-1.67c.33-.93.91-1.68 1.5-2.3.5-.52 1.07-1 1.54-1.4l.2-.17c.6-.5 1.12-1.06 1.67-1.68l.44-.5c.4-.47.85-.97 1.3-1.44a1.35 1.35 0 0 1 1.94 1.87 37.12 37.12 0 0 0-1.66 1.86c-.58.64-1.2 1.32-1.94 1.95l-.21.17c-.49.41-.93.8-1.33 1.21a4.4 4.4 0 0 0-.46.54l.64.21a33.82 33.82 0 0 0 1.8.5ZM209.9 510.78a1.35 1.35 0 0 0-1.07-1.58c-3.26-.65-6.5-1.23-9.73-1.81-16.2-2.91-31.69-5.7-45.2-15.81-10.77-8.07-20.91-21.4-20.56-35.14 5.67.42 11.24-1.13 16.66-4.38 2.56-1.54 5.9-3.84 8.4-6.72 2.5-2.86 4.36-6.51 3.47-10.61-.77-3.54-4-4.78-6.88-5.04a19.4 19.4 0 0 0-8.07 1.1c-9 3.53-14.8 13.33-16.03 22.6a25.9 25.9 0 0 1-6.48-2.24c-9.75-4.82-16.56-12.7-21.84-21.9-5.06-8.8-8.66-18.72-12.1-28.17l-.48-1.3a1.35 1.35 0 1 0-2.53.92l.5 1.37c3.42 9.4 7.1 19.51 12.27 28.53 5.45 9.47 12.6 17.83 22.98 22.97a28.47 28.47 0 0 0 7.45 2.52l-.01.28c-.4 15.01 10.57 29.08 21.64 37.37 14.07 10.52 30.3 13.43 46.5 16.34 3.18.57 6.36 1.14 9.52 1.76.73.15 1.44-.33 1.58-1.06Zm-76.34-57.03c1.13-8.54 6.47-17.37 14.34-20.45a16.6 16.6 0 0 1 6.84-.93c2.52.23 4.11 1.17 4.5 2.93.63 2.9-.62 5.7-2.87 8.27a33.19 33.19 0 0 1-7.75 6.17c-4.98 2.98-9.98 4.39-15.06 4.01Z" fill="#000"/>
  <path fill-rule="evenodd" clip-rule="evenodd" d="M210.63 511.8c-.34.1-.67.18-.84.24a201.72 201.72 0 0 0-5.82 2.1 1.35 1.35 0 1 0 .92 2.54l1.74-.64c1.35-.5 2.69-.99 4.04-1.45l.07-.02.2-.06.3-.08.32-.08c.48-.12 1.08-.28 1.67-.47.57-.17 1.2-.4 1.68-.65.23-.12.53-.3.78-.57.25-.27.65-.89.37-1.67a6.65 6.65 0 0 0-1.5-2.3c-.5-.52-1.07-1-1.55-1.4l-.2-.17c-.59-.5-1.12-1.06-1.67-1.68l-.43-.5c-.41-.47-.85-.97-1.3-1.44a1.35 1.35 0 0 0-1.95 1.87 37.12 37.12 0 0 1 1.67 1.86c.57.64 1.2 1.32 1.94 1.95l.2.17c.49.41.94.8 1.34 1.21.17.18.32.36.46.54l-.64.21a33.82 33.82 0 0 1-1.8.5Z" fill="#000"/>
  <path opacity=".2" d="m4.68 291.83 34.86-60.4a34.87 34.87 0 0 1 60.4 34.88 34.87 34.87 0 0 1 60.38 34.86l-34.86 60.4a34.87 34.87 0 0 1-60.4-34.88 34.87 34.87 0 0 1-60.38-34.86Z" fill="#FFBA56"/>
  <path opacity=".2" d="m375.68 77.83 34.86-60.4a34.87 34.87 0 0 1 60.4 34.88 34.87 34.87 0 0 1 60.38 34.86l-34.86 60.4a34.87 34.87 0 0 1-60.4-34.88 34.87 34.87 0 0 1-60.38-34.86Z" fill="#5AC96C"/>
  <g clip-path="url(#a)">
    <rect x="231" y="52" width="274" height="120" rx="60" fill="#fff"/>
    <rect x="327" y="132" width="76" height="26" rx="3" fill="#000"/>
    <circle cx="287" cy="93" r="28" stroke="url(#b)" stroke-linecap="round" stroke-dasharray="3 5"/>
    <circle cx="287" cy="93" r="24" fill="url(#c)"/>
    <circle cx="305" cy="111" r="7" fill="#0C76E6" stroke="#FEE5DB" stroke-width="2"/>
    <g filter="url(#d)">
      <g clip-path="url(#e)" fill-rule="evenodd" clip-rule="evenodd">
        <path d="M308.58 134.65a147.64 147.64 0 0 1-.98-6.33c-.06-.48-.15-1.03.17-1.38.46-.5.87-.92.93-1.64.05-.67-.17-1.4-.31-2.05-.3-1.37-.67-2.72-1.08-4.05-.42-1.36-.87-2.7-1.33-4.05-.43-1.26-.85-2.52-1.41-3.73a10.9 10.9 0 0 0-5.1-5.1c-.56-.28-1.69-1.29-2.27-1.51-.53-.2-.53.4-1.06.17a2.1 2.1 0 0 1-1.04-.83c-.25-.44-.9-1.06-1-1.57-.2-1.09.03-2.01-.75-2.83a5.62 5.62 0 0 0-2.56-1.5c-2.1-.58-4.91-.17-6.18 1.79-.6.93-.82 2.06-1.63 2.83-.72.66-.56 1.12-1.48 1.46-.06.02-1.47-.28-1.53-.27-1-.21-1.97.4-2.9.75-1.38.52-2.7 1.2-3.94 2.02a24.98 24.98 0 0 0-6.4 6.17 30.22 30.22 0 0 0-4.77 10.08c-.1.4-.22.8-.09 1.21.1.33.34.58.61.78.38.27 1.13.44 1.11.98-.01.42-.15.85-.22 1.26a74.97 74.97 0 0 0-.9 14.77c.02.14.06.27.13.38-.06.03-.07.15.01.17.06 0 .12.02.17.03.12.1.27.15.44.15l.34.02a61.78 61.78 0 0 0 8.1 1.21c3.07.3 6.12.2 9.2.04 3.07-.16 6.14-.2 9.2-.12 3.08.08 6.16.22 9.24.27 3.43.06 6.87-.03 10.3-.3a.71.71 0 0 0 .66-.88c-.55-2.8-1.18-5.59-1.68-8.4Z" fill="#D08B5B"/>
        <path d="m277.07 104.8.06-.02c.91-.35 1.86-.93 2.84-.72l1.12.2-.42.44-.73.14c2.54 4.2 5.55 6.31 9.02 6.31 3.47 0 6.1-2.1 7.9-6.3l.24-.07.1.03c.58.22 1.71 1.23 2.27 1.5a10.9 10.9 0 0 1 5.1 5.11c.54 1.17.95 2.4 1.36 3.6l.05.13c.46 1.34.91 2.69 1.33 4.05.39 1.27.75 2.56 1.04 3.87l.03.18c.15.65.37 1.38.32 2.05a1.8 1.8 0 0 1-.18.67l-5.03 1.81 2.4 16.37c-2.2.1-4.4.12-6.6.08-3.07-.05-6.15-.19-9.22-.27-2.98-.07-5.96-.04-8.93.1l-.76.05c-2.91.14-5.8.22-8.72-.07l-.2-.02v-2.39l1.03-13.33-5.19-.98-5.08-2.48a1.36 1.36 0 0 1-.35-.55c-.12-.37-.03-.75.07-1.12l.02-.09a31.05 31.05 0 0 1 4.78-10.08c1.76-2.4 3.9-4.53 6.39-6.17 1.24-.81 2.56-1.5 3.94-2.02Z" fill="#EC7495"/>
        <path d="M279.01 104c.32-.02.65.03.96.07.03 0 .04.04.01.05-.57.12-1.13.28-1.69.44l-.23.08a16.53 16.53 0 0 0-5.27 2.56c-4.09 2.95-7.04 7.43-8.9 12.06a32.95 32.95 0 0 0-1.53 4.82c-.02.1-.12.34-.06.44.04.08.22.14.3.18l.3.15 1.57.8.14.07c2.37 1.17 4.9 2.16 7.57 2.22l.02-.22c.12-1.27.28-2.53.62-3.76.02-.06.1-.04.1.02.2 1.44.14 2.9.07 4.36-.12 2.57-.27 5.15-.41 7.72-.07 1.29-.16 2.57-.24 3.86-.08 1.3-.1 2.61-.3 3.9-.03.28-.37.43-.62.4a.57.57 0 0 1-.5-.56c0-.75.1-1.5.15-2.24l.15-2.12c.2-2.58.43-5.15.64-7.72.07-.92.16-1.83.24-2.74-2.83-.1-5.46-1.14-7.98-2.37-.04.83-.13 1.66-.21 2.49-.24 2.3-.45 4.6-.6 6.91a141.48 141.48 0 0 0-.25 5.23l-.02.58v.44c-.01.27-.04.53-.28.73a.57.57 0 0 1-.79 0c-.31-.29-.26-.68-.25-1.07a108.97 108.97 0 0 1 .11-2.96c.12-2.3.36-4.58.67-6.85l.12-.88c.22-1.63.47-3.3.97-4.88l-.59-.3c-.34-.16-.7-.33-1.03-.52-.27-.16-.5-.36-.57-.67-.08-.35.05-.72.13-1.06v-.03a31.98 31.98 0 0 1 1.66-5.01 32.8 32.8 0 0 1 4.24-7.32 22.12 22.12 0 0 1 5.55-5.22 14.88 14.88 0 0 1 3.35-1.6 8.9 8.9 0 0 1 2.69-.48Zm5.64-4.13c.38-.41 1.13.01.94.55a6.77 6.77 0 0 1-2.16 3.25 4.96 4.96 0 0 1-3.5 1.18l.12.15a20.11 20.11 0 0 0 2.88 3.29c2.24 1.95 5.3 3 8.24 2.25a6.9 6.9 0 0 0 4.97-4.77.48.48 0 0 1-.3.03c-.48-.1-.96-.61-1.27-.97-.33-.4-.6-.82-.79-1.3-.35-.88-.46-2.01.02-2.86.06-.1.2-.05.2.05l.02.16c.1.8.21 1.57.59 2.3a4.72 4.72 0 0 0 1.13 1.45c.17.13.37.22.51.37l.03.03c.04-.32.26-.46.48-.45.2 0 .45.1.55.14 1.46.7 2.8 1.62 4.07 2.64a16.21 16.21 0 0 1 5.53 8.07c.46 1.59.73 3.22 1.01 4.85l.18 1c.26 1.5.56 3.03 1.15 4.43.15.36.04.7-.34.84l-1.42.52c.23 1 .38 2.03.55 3.04.37 2.13.82 4.25 1.21 6.39l.58 3.27.3 1.58.14.85.01.04c.03.15.07.3.03.46-.05.17-.19.29-.3.41-.1.1-.24.1-.36.05l-.04-.02c-.22-.1-.38-.2-.46-.44-.05-.16-.06-.33-.1-.48l-.17-.91-.31-1.83-.1-.56a69.1 69.1 0 0 1-.8-5.92l-.22-2.64-.05-.66a30.4 30.4 0 0 1-.17-2.53l-.29.1-1.38.48c-.34.13-.78.38-1.15.33a.7.7 0 0 1-.42-.18c.13 1.8.3 3.6.53 5.38a122.66 122.66 0 0 0 1.37 8.46l.12.6c.04.22-.03.37-.16.56-.1.15-.31.23-.48.12-.23-.14-.34-.26-.41-.52a98.36 98.36 0 0 1-.85-4.8 97.66 97.66 0 0 1-1.04-14.69c0-.83.03-1.67.09-2.5.06-.84.18-1.66.3-2.5 0-.02.04-.02.04 0 .05.94.13 1.87.17 2.81l.09 2.68c.04 1.17.1 2.35.17 3.52a.6.6 0 0 1 .53-.2c.3-.06.6-.21.89-.3l1.04-.35 1.65-.55a43.48 43.48 0 0 1-1.12-5.06l-.13-.77a33.47 33.47 0 0 0-.99-4.5 14.39 14.39 0 0 0-2.17-4.28c-.95-1.28-2.1-2.4-3.3-3.46-1.01-.9-2.1-1.72-3.14-2.6v.2a7.33 7.33 0 0 1-2.23 4.24c-2.36 2.26-5.85 2.72-8.88 1.67a10.3 10.3 0 0 1-6.41-6.44c-.02-.05.05-.07.08-.03l.15.2c0-.02.01-.05.05-.06 1.06-.42 2.1-1 2.9-1.83a6.28 6.28 0 0 0 1.34-2.08l.02-.07c.11-.31.2-.63.44-.88Z" fill="#000"/>
        <path d="M299.04 86.54c-.15-1.93.08-3.95-.66-5.78-1.28-3.03-4.9-4.05-7.7-5.2-1.12-.33-4.9-.38-6.22-.82-2.97-1-3.68-2.19-6.05-.29-.4.33-.64.68-.83 1.16h.01c-.05.2 0 .4.12.56a3.88 3.88 0 0 0-.93 4.03c1.72 3.64 1.64 5.61 1.09 9.53-.73 3.66.92 5 3.66 6.98-.11.22-.14.5 0 .7 3.17 4.45 9.13 6.58 14.23 4.32 2.07-.92 3-3.14 3.53-5.14.61-2.24.8-4.6.3-6.88-.2-1.05-.46-2.1-.55-3.17Z" fill="#D08B5B"/>
        <path d="m276.4 81.07 1.89 1.26 6.72-7.12-2.24-1.77s-4.06 3.02-4.85 3.81c-.8.8-1.51 3.82-1.51 3.82Z" fill="#9FD8E5"/>
        <path d="M280.81 65.2c.39-.05.68.19.81.52l.01.02.15.34c.96-.48 2.33-.35 2.94.6.43.69.16 1.5 0 2.22l-.1.48c.2.13.36.37.35.62v.02l-.04.66a3.42 3.42 0 0 0 .63-.88c.53-.8 1.72-.1 1.28.76-.08.17-.17.32-.28.47a6 6 0 0 0-.28.7c.21.08.37.29.39.59.04.71-.34 1.3-.93 1.68a.65.65 0 0 1-.51.09l-.09.11c.24.2.45.42.63.66.55-.08 1.1-.12 1.66-.12a3.66 3.66 0 0 1 2.21-.2c.47.07.92.23 1.38.34.48.12.98.13 1.47.2.62.1 1.16.4 1.5.85.37.01.77.17 1.1.38.76.48 1.51.98 2.27 1.47.3.19.4.49.35.82v.02l-.03.14.06.09c.23.33.48.67.63 1.03a9.2 9.2 0 0 1 1.58 3.59c.04.23-.02.41-.05.64l-.1.85c-.03.18-.19.28-.35.28a36.7 36.7 0 0 1 .28 3.48c.19.26.56.48.83.55.38.1.77-.01 1.12-.14.23-.08.4.2.3.39-.34.59-1.07.59-1.62.33a1.54 1.54 0 0 1-.6-.48l.04.6v.17c.12 2.1.36 4.27-.03 6.35a7.96 7.96 0 0 1-7.28 6.56 10 10 0 0 1-4.27-.77c-.8-.31-.49-.95.06-.77.95.32 2.68.79 4.23.58 3.65-.48 6.74-2.3 6.42-10.2-.04-1.12-.18-2.24-.21-3.36-.03-1.1-.02-2.19-.07-3.28l-.01-.37-.07-1.31-.12-.5c-.13-.46-.3-.9-.52-1.32a.36.36 0 0 1-.15.07 1.96 1.96 0 0 1-1.75-.46.78.78 0 0 1-.16-.19.65.65 0 0 1-.51-.2c-.14-.15-.17-.32-.11-.47v-.02c-.17.43-.5.8-.86 1.06-.57.4-1.28.52-1.96.53a13.55 13.55 0 0 1-2.88-.34l-.02.02c-.64.61-1.54.77-2.35.42-.47-.2-.86-.53-1.2-.9 0 .2-.02.4-.04.58v.08c-.04.36-.1.74-.38 1-.43.43-1.07.26-1.57-.02v.04l.4 1.4.04.1c.1.33.2.66.24 1.01.05.66-.39 1.32-1.12 1.1-.38-.12-.7-.45-.99-.7l-.19-.17c.49 1.59.82 3.22.85 4.88 0 .09-.07.15-.16.16-.2 0-.4-.04-.6-.12h-.04a2.31 2.31 0 0 1-.94-.35c.07.2.1.42.08.65 0 .06-.1.08-.1.01-.17-.79-1.1-1.39-1.9-1.24-.85.17-1.48.9-1.63 1.75-.17.9.15 1.95.74 2.65.27.32.62.59 1.04.66.2.03.4.02.59-.04.08-.02.15-.06.23-.09.1-.04.24-.05.34-.1.24-.1.48.12.36.36-.1.21-.2.36-.37.47.14.17.27.41.31.48a8.04 8.04 0 0 0 1.67 1.78l.14.1c.31.25.59.48.8.84.18.28-.04.66-.37.65-1.02-.01-1.76-.9-2.28-1.69a4.47 4.47 0 0 1-.21-.35.71.71 0 0 1-.08.1l.06.16c.17.46-.57.76-.79.33a6.5 6.5 0 0 0-.54-.89.46.46 0 0 1-.3-.18c-.16-.24-.35-.48-.5-.73a5.99 5.99 0 0 0-.27-.24l-.08.07c-.11.26-.25.5-.42.72l-.04.05c-.33.42-.77.85-1.3.95-.17.04-.33-.17-.18-.3.37-.34.82-.57 1.16-.95.18-.19.33-.4.47-.6l.03-.06.07-.1-.47-.33c-.43.37-1 .54-1.47.84l-.05.03c-.43.3-.88-.35-.54-.7.38-.38.7-.84 1.04-1.27a2.4 2.4 0 0 1-.26-1l-.03-.3a1.2 1.2 0 0 1-.7-.21l-.07-.06c-.25.08-.51.12-.77.11-.59-.02-.83-.7-.46-1.12a1.38 1.38 0 0 1 1.56-.32l.05-.03a.6.6 0 0 1 .01-.31v-.06a1.45 1.45 0 0 1-.2-1.1c0-.05.04-.11.06-.17a1.1 1.1 0 0 1-.08-.33l-.03-.04a.9.9 0 0 1 .04-1.1v-.06a1.26 1.26 0 0 1-.04-.1c-.24-.25-.42-.54-.38-.9.02-.22.1-.41.24-.56a.32.32 0 0 1 0-.22 3.3 3.3 0 0 1-.03-1.88.84.84 0 0 1-.05-.31c.02-.47.42-.9.9-.9l.17.02v-.01c.02-.14.05-.27.11-.39a.26.26 0 0 1-.08-.04c-.3.16-.63.29-.97.37-.25.07-.5-.22-.35-.46l.24-.3c-.13 0-.25.02-.38.03-.22.03-.47-.12-.62-.33l-.55.53c-.46.45-1.16.12-1.23-.48-.14-.03-.27-.1-.38-.18-.73.31-1.52.49-2.32.52-.58.03-.91-.65-.64-1.12.18-.32.4-.61.66-.86-.4.12-.82.21-1.24.27-.23.03-.55-.16-.64-.37a2.8 2.8 0 0 1 .08-2.45l.05-.09.14-.31c-.5-.52-.54-1.3-.28-1.94a.66.66 0 0 1-.07-.57c.2-.55.5-1.06.88-1.5a1.52 1.52 0 0 1-.1-.22c-.2-.65.04-1.43.54-1.88.31-.28.67-.45 1.06-.56.16-.29.36-.55.6-.77l.03-.06a2.28 2.28 0 0 1 1.8-1.18.74.74 0 0 1 .5-.63c.07-.24.18-.47.33-.68.24-.33.64-.49 1.02-.27.2.12.4.25.6.4a.8.8 0 0 1 .28-.07h.02l.62-.03.77-.36a2.06 2.06 0 0 1 1.17-.47 5.61 5.61 0 0 1 1.86-.29v-.41a.74.74 0 0 1 .65-.73Zm-.43 30.32-.18.03.05.14.15.08a1.37 1.37 0 0 1-.02-.25Zm-3.2-.96-.04.08-.02.04h.26l-.03-.02a1.44 1.44 0 0 1-.17-.1Zm1.73-3.5c.55.04 1.02.12 1.52.36l.05.03c.44.22 1.17.62 1.11 1.21-.02.17-.14.34-.33.33-.52-.04-.81-.56-1.16-.9-.36-.32-.8-.66-1.23-.89-.06-.03-.03-.13.03-.14h.01Zm-2.5-7.71c-.13 0-.09.13-.02.03l.02-.03Zm7.14-8.61c-1.26.03-2.52.77-3.45 1.52-.82.66-1.53 1.43-2.15 2.27-.16.42-.3.84-.41 1.27-.08.28-.13.57-.2.86l-.01.08c-.05.1-.1.2-.12.3.12.12.26.2.43.24.05.01.1.04.13.08.13-.22.24-.45.3-.7v-.01c.26-.41.53-.81.83-1.2.8-1.07 1.7-2.04 2.76-2.85a9.1 9.1 0 0 1 2.68-1.4c-.24-.2-.5-.35-.8-.46Z" fill="#000"/>
        <path d="M293.35 98c-.42-.17-.8-.45-1.07-.82a.5.5 0 0 1-.1-.38c.02-.14.1-.27.21-.35a.52.52 0 0 1 .4-.1c.1.01.23.08.32.21l.02.03c.16.22.37.4.61.52.24.11.5.16.77.13.51-.06.87-.33 1.24-.71l.14-.15a.22.22 0 0 1 .12-.09c.05-.02.1-.02.16 0 .05.02.1.05.13.1.03.04.04.1.04.15-.04.4-.24.75-.53 1.02-.33.3-.75.52-1.16.6-.44.07-.9.01-1.3-.15Zm1.51-6.04c.47.29 1.2.96.69 1.67-.6.63-1.46-.1-1.88-.42-.4-.25-.84.4-.48.7 3.07 2.27 4.31-1.87 1.91-2.29-.26-.04-.36.25-.24.34Zm-5.49-2.64c.06-.65 1.04-.8 1.14-.16.09.58-.02 1.1-.27 1.62-.25.5-.87.27-.92-.18-.06-.6.02-.88.05-1.28Zm7.5-.3c.14-.17.34-.3.58-.22.74.21.52 1.27.26 1.78-.14.28-.6.35-.8.1-.34-.4-.5-1.2-.07-1.59a.59.59 0 0 1 .04-.06Zm-6.65-2.54.12-.02c.37-.07.82-.13 1.07.17.14.15.19.44 0 .59-.32.26-.68.16-1.06.18-.32.02-.63.07-.93.16-.67.2-1.22.54-1.8.93-.07.05-.15-.05-.11-.12a3.7 3.7 0 0 1 1.62-1.5c.34-.18.71-.33 1.1-.4Zm5.98-.3.09.03c.98.2 2.25.6 2.7 1.57.03.14 0 .17 0 .19h-.01c-.01.02-.02.04-.08.06l-.05-.01a2.8 2.8 0 0 1-.55-.22l-.17-.08c-.2-.1-.41-.2-.63-.27a7.4 7.4 0 0 0-1.43-.32.59.59 0 0 1-.3-.1.43.43 0 0 1-.15-.25.44.44 0 0 1 .05-.37c.05-.1.13-.16.22-.2.1-.04.2-.04.31-.02Z" fill="#000"/>
        <path d="M296.19 98.97c-.58-.52-1.24-1.56-2.07-.74-.21.23-.3.76-.61.86-.42.14-.84-.3-.98-.65-.58-1.9 1.84-2.42 3.22-2.11.67.27 1.17 1.39 1.2 1.97.01.4-.32.97-.76.67m4.39-2.93a.28.28 0 0 0-.02-.07c-.26-.1-.47 0-.6.19l.04.14c-.1.2-.19.46-.32.63h-.08c-2.18.22-1.12-2.06-3.33-2.63-1.71-.28-4.8.04-5.61 1.82-.64 2.85-3.87.87-4.94-.61-1.13-1.35-1.86-3-2.57-4.6-.15-.34-.61-.1-.56.23-.66 1.31-.64 2.89-.8 4.33-.27 2.87-.54 6.9 2.12 8.64 3.47 3.93 12.13 5.32 16.13 1.71 1.38-2.98 1.21-6.62.54-9.78" fill="#000"/>
        <path d="M300.13 92.52c-.42.57-1.2.75-1.92.69-1.55-.15-2.04-1.92-2.09-3.3 1.04.3-.09-1.78 3.47-2 1.26-.11.9.65 1.46 1.2a5.84 5.84 0 0 1-.92 3.41m-7.39-1.34c-.92 4.3-5.93 3.28-6.46-.6.49-.34.36-1.19.96-1.5.96-.61 2.16-.58 3.25-.57 1.39.1 1.78.67 2.5 1.3-.03.42-.13.92-.25 1.37m9.38-3.99-.15-.02a2.43 2.43 0 0 0-.52-.12c-1.78-.4-5.9.17-6.08 1.7-.57.19-1.06.02-1.72.03-.5-2.1-9.16-1.8-9.57-.53h-.01c-.4-.13-.99-.1-1.45-.12-.98-.02-1.96.07-2.91.27-1.8.29-4.24.62-3 2.87.22.22.59.04.6-.26-.42-1.06.53-1.19 1.25-1.5 1.82-.65 3.66-.74 5.54-.53.14.16.35.3.58.38 1.25.21.59 1.14 1.38 1.28-.14 3.24 3.79 5.02 6.07 2.88.91-.89 1.13-2.21 1.34-3.4a.31.31 0 0 0 .22-.17c.27-.27.44-.51.97-.59.53-.07.94.08 1 .12 0 .03.02.06.04.09.02.04.06.07.1.1-.53 3.23 1.97 5.28 4.5 3.6 1.1-1.04 1.33-2.62 1.38-4.04a.43.43 0 0 0 .2-.48c-.08-.3.09-.57.35-.7.35-.17.29-.8-.1-.86" fill="#000"/>
      </g>
    </g>
    <path d="M337.67 75.36V87h-1.61l-5.92-8.53h-.1V87h-1.76V75.36h1.62l5.92 8.55h.11v-8.55h1.74ZM340.1 87v-8.73h1.7V87h-1.7Zm.85-10.07c-.3 0-.55-.1-.76-.3a.96.96 0 0 1-.31-.72c0-.28.1-.51.31-.71.21-.2.47-.3.76-.3.3 0 .55.1.76.3a.95.95 0 0 1 0 1.43c-.21.2-.46.3-.76.3Zm4.83-1.57V87h-1.7V75.36h1.7Zm6.05 11.82a4.3 4.3 0 0 1-2.23-.56 3.73 3.73 0 0 1-1.43-1.56 5.29 5.29 0 0 1-.5-2.37c0-.9.17-1.68.5-2.36.34-.68.8-1.21 1.41-1.6a4.28 4.28 0 0 1 3.56-.33 3.46 3.46 0 0 1 2.11 2.13c.21.55.32 1.22.32 2.02v.6h-6.94v-1.28h5.27c0-.44-.09-.84-.27-1.18a2.06 2.06 0 0 0-1.91-1.13 2.23 2.23 0 0 0-2.07 1.26c-.19.38-.28.78-.28 1.21v1c0 .58.1 1.08.3 1.49.21.4.5.72.87.93.37.22.8.32 1.3.32a2.14 2.14 0 0 0 1.58-.55c.18-.19.33-.42.43-.7l1.61.3a2.9 2.9 0 0 1-.7 1.24c-.32.35-.74.63-1.24.83-.5.19-1.06.29-1.7.29Zm12.16-6.78-1.54.28c-.06-.2-.16-.39-.3-.57a1.52 1.52 0 0 0-.56-.43 2.02 2.02 0 0 0-.88-.17c-.48 0-.88.1-1.2.32-.33.21-.49.49-.49.82 0 .3.11.53.33.7.21.19.56.33 1.04.45l1.39.31c.8.19 1.4.48 1.8.86.39.39.59.89.59 1.5 0 .53-.16 1-.46 1.4-.3.41-.72.73-1.25.96-.54.23-1.16.35-1.86.35a4.2 4.2 0 0 1-2.4-.63c-.61-.42-1-1.02-1.13-1.79l1.64-.25c.1.43.31.75.63.97.32.22.73.33 1.25.33.55 0 1-.12 1.33-.35.33-.23.5-.52.5-.86a.9.9 0 0 0-.3-.69c-.2-.18-.52-.32-.93-.42l-1.48-.32a3.56 3.56 0 0 1-1.8-.89c-.4-.4-.59-.91-.59-1.54 0-.51.15-.96.44-1.35.28-.38.68-.69 1.19-.9.5-.22 1.09-.33 1.74-.33.95 0 1.69.2 2.23.61.54.4.9.95 1.07 1.63Zm3.74 1.42V87h-1.7V75.36h1.68v4.33h.1c.21-.47.52-.84.94-1.12.43-.27.97-.41 1.65-.41.6 0 1.12.12 1.57.37.45.24.8.61 1.05 1.1.25.49.37 1.1.37 1.82V87h-1.7v-5.35a2.1 2.1 0 0 0-.5-1.49 1.78 1.78 0 0 0-1.37-.53c-.4 0-.76.09-1.08.26-.31.17-.56.42-.74.75a2.4 2.4 0 0 0-.27 1.18Z" fill="#000"/>
    <path d="M331.56 104.36v1.2h-4.17v-1.2h4.17Zm-3.05-1.83H330v7.23c0 .29.04.5.13.65.08.14.2.24.33.3a1.7 1.7 0 0 0 .77.05l.2-.05.27 1.23a2.92 2.92 0 0 1-2.06-.05 1.87 1.87 0 0 1-.81-.68c-.21-.3-.32-.68-.32-1.14v-7.54Zm7.83 9.62a3.32 3.32 0 0 1-3.12-1.87 4.57 4.57 0 0 1-.44-2.06c0-.8.15-1.49.45-2.08a3.32 3.32 0 0 1 3.11-1.88 3.32 3.32 0 0 1 3.12 1.87c.3.6.44 1.3.44 2.09a4.5 4.5 0 0 1-.44 2.06 3.32 3.32 0 0 1-3.12 1.87Zm0-1.24c.47 0 .86-.13 1.16-.37.3-.25.53-.57.68-.98.15-.4.22-.86.22-1.35 0-.49-.07-.93-.22-1.34a2.18 2.18 0 0 0-.68-.99c-.3-.25-.69-.37-1.15-.37-.47 0-.86.12-1.17.37-.3.25-.53.58-.68.99-.14.4-.21.85-.21 1.34a4 4 0 0 0 .21 1.35c.15.4.38.73.68.98.31.24.7.37 1.17.37Zm5.22 3.95v-10.5h1.45v1.24h.13c.08-.16.2-.34.37-.55.16-.2.39-.4.68-.55.29-.16.67-.24 1.14-.24a2.98 2.98 0 0 1 2.79 1.82c.28.59.42 1.3.42 2.12a5 5 0 0 1-.42 2.12 2.93 2.93 0 0 1-2.78 1.83 2.14 2.14 0 0 1-1.82-.78c-.16-.21-.3-.4-.38-.56h-.1v4.05h-1.48Zm1.46-6.68c0 .54.08 1 .23 1.41.16.4.38.72.68.95.3.23.65.34 1.08.34.45 0 .82-.12 1.12-.35.3-.24.52-.56.67-.97.16-.4.24-.87.24-1.38 0-.5-.08-.95-.23-1.36-.15-.4-.38-.71-.68-.94-.3-.24-.67-.35-1.12-.35-.43 0-.8.1-1.1.33-.29.22-.51.53-.66.93-.15.4-.23.86-.23 1.4Zm7.18 3.82v-7.64h1.43v1.25h.1c.15-.42.41-.75.77-.99.37-.24.8-.36 1.3-.36.51 0 .94.12 1.28.36.35.24.6.57.78.99h.07c.19-.41.48-.74.88-.98s.87-.37 1.42-.37c.69 0 1.25.22 1.7.66.43.43.65 1.08.65 1.96V112h-1.48v-4.98c0-.52-.14-.9-.43-1.13a1.54 1.54 0 0 0-1-.34c-.49 0-.87.15-1.13.44-.27.3-.4.68-.4 1.14V112h-1.49v-5.08c0-.41-.13-.74-.39-1-.25-.25-.6-.37-1-.37-.29 0-.55.07-.79.22-.23.15-.42.35-.57.61a1.9 1.9 0 0 0-.21.91V112h-1.49Zm14.6.17c-.49 0-.92-.09-1.31-.27a2.2 2.2 0 0 1-.93-.79 2.26 2.26 0 0 1-.34-1.27 2 2 0 0 1 .25-1.06c.16-.28.39-.5.67-.66.28-.17.6-.29.94-.37.35-.08.7-.15 1.07-.19l1.1-.13c.3-.04.5-.1.63-.17.13-.08.2-.21.2-.4v-.03c0-.43-.13-.77-.37-1-.25-.24-.6-.36-1.09-.36-.5 0-.9.1-1.18.33a1.8 1.8 0 0 0-.6.73l-1.39-.32a2.7 2.7 0 0 1 1.84-1.75 4.3 4.3 0 0 1 2.28-.09c.35.07.67.2.97.4.3.18.55.45.74.8.19.35.29.8.29 1.36V112h-1.45v-1.04h-.06a2.31 2.31 0 0 1-1.17 1.03c-.31.12-.67.18-1.1.18Zm.32-1.2c.41 0 .76-.08 1.06-.24a1.7 1.7 0 0 0 .9-1.48v-.99a.78.78 0 0 1-.3.15l-.52.12-.56.08-.46.06c-.29.03-.55.1-.79.18-.24.09-.42.21-.57.38a.93.93 0 0 0-.2.63c0 .37.13.65.4.84.27.18.62.28 1.04.28Zm9-6.6v1.19h-4.18v-1.2h4.17Zm-3.06-1.84h1.49v7.23c0 .29.04.5.12.65.09.14.2.24.34.3a1.7 1.7 0 0 0 .77.05l.2-.05.27 1.23c-.09.03-.2.07-.37.1a2.92 2.92 0 0 1-1.69-.15 1.88 1.88 0 0 1-.82-.68c-.2-.3-.31-.68-.31-1.14v-7.54Zm7.9 9.62c-.75 0-1.4-.16-1.94-.48a3.28 3.28 0 0 1-1.25-1.36 4.62 4.62 0 0 1-.44-2.08c0-.78.15-1.47.44-2.07.3-.6.7-1.06 1.23-1.4a3.73 3.73 0 0 1 3.11-.29 3.05 3.05 0 0 1 1.85 1.87c.19.48.28 1.07.28 1.76v.53h-6.07v-1.11h4.61c0-.4-.08-.74-.23-1.04a1.8 1.8 0 0 0-1.68-.99 1.94 1.94 0 0 0-1.81 1.11 2.3 2.3 0 0 0-.25 1.06v.87c0 .5.1.94.27 1.3.18.36.44.63.76.82.33.18.7.28 1.14.28.28 0 .54-.04.77-.12a1.59 1.59 0 0 0 .99-.97l1.4.25c-.1.41-.3.78-.6 1.09a3 3 0 0 1-1.09.72c-.43.17-.93.25-1.49.25Zm5.9-.06c-.26 0-.5-.1-.7-.28a.96.96 0 0 1-.29-.71c0-.27.1-.5.3-.7.2-.2.43-.29.7-.29.27 0 .5.1.7.3.2.19.3.42.3.69 0 .18-.05.35-.15.5a1 1 0 0 1-.35.36.94.94 0 0 1-.5.13Zm3-.09v-7.64h1.48V112h-1.48Zm.75-8.81a.95.95 0 0 1-.67-.26.84.84 0 0 1-.27-.63c0-.24.09-.45.27-.63.19-.17.4-.26.67-.26.25 0 .47.09.66.26.18.18.28.39.28.63s-.1.45-.28.63a.93.93 0 0 1-.66.25Zm5.95 8.96a3.31 3.31 0 0 1-3.12-1.87 4.57 4.57 0 0 1-.44-2.06c0-.8.15-1.49.44-2.08a3.31 3.31 0 0 1 3.12-1.88 3.32 3.32 0 0 1 3.12 1.87c.29.6.44 1.3.44 2.09 0 .78-.15 1.47-.44 2.06a3.32 3.32 0 0 1-3.12 1.87Zm0-1.24c.47 0 .85-.13 1.16-.37.3-.25.53-.57.67-.98.15-.4.23-.86.23-1.35 0-.49-.08-.93-.23-1.34a2.19 2.19 0 0 0-.67-.99c-.3-.25-.7-.37-1.16-.37-.46 0-.85.12-1.16.37-.3.25-.53.58-.68.99-.15.4-.22.85-.22 1.34 0 .5.07.94.22 1.35.15.4.37.73.68.98.3.24.7.37 1.16.37Zm9.1-9.57-3.29 12.2h-1.32l3.28-12.2h1.32Zm2.74 6.13V112h-1.48v-7.64h1.42v1.25h.1c.17-.4.45-.73.82-.98.38-.24.86-.37 1.43-.37.52 0 .98.11 1.37.33.39.22.7.54.9.97.22.42.33.95.33 1.58V112h-1.49v-4.68c0-.55-.14-.98-.43-1.3a1.53 1.53 0 0 0-1.19-.47c-.34 0-.65.08-.92.23a1.6 1.6 0 0 0-.63.65c-.15.29-.23.63-.23 1.04Zm6.88 4.53v-7.64h1.5V112h-1.5Zm.76-8.81a.95.95 0 0 1-.67-.26.84.84 0 0 1-.27-.63c0-.24.09-.45.27-.63.19-.17.4-.26.67-.26.25 0 .47.09.66.26.18.18.28.39.28.63s-.1.45-.28.63a.93.93 0 0 1-.66.25Zm4.22-1.37V112h-1.49v-10.18h1.49Zm5.29 10.33c-.75 0-1.4-.16-1.95-.48a3.28 3.28 0 0 1-1.25-1.36 4.62 4.62 0 0 1-.44-2.08c0-.78.15-1.47.44-2.07.3-.6.7-1.06 1.23-1.4a3.73 3.73 0 0 1 3.11-.29 3.05 3.05 0 0 1 1.86 1.87c.18.48.27 1.07.27 1.76v.53h-6.07v-1.11h4.62c0-.4-.08-.74-.24-1.04a1.8 1.8 0 0 0-1.68-.99c-.41 0-.78.1-1.09.31-.3.2-.55.47-.72.8a2.3 2.3 0 0 0-.24 1.06v.87c0 .5.09.94.26 1.3.19.36.44.63.76.82.33.18.7.28 1.14.28.29 0 .54-.04.77-.12a1.59 1.59 0 0 0 .99-.97l1.41.25c-.11.41-.31.78-.6 1.09-.3.3-.66.55-1.1.72a4 4 0 0 1-1.48.25Zm10.65-5.92-1.35.24a1.58 1.58 0 0 0-.27-.5 1.32 1.32 0 0 0-.49-.38c-.2-.1-.46-.15-.77-.15-.42 0-.77.1-1.05.29-.28.18-.42.42-.42.72 0 .25.1.46.28.61.19.16.5.29.91.39l1.22.27c.7.17 1.22.42 1.57.75.34.34.52.78.52 1.32a2 2 0 0 1-.4 1.23 2.6 2.6 0 0 1-1.1.83c-.47.2-1.01.3-1.63.3a3.7 3.7 0 0 1-2.09-.54 2.31 2.31 0 0 1-1-1.57l1.44-.22c.1.38.28.66.55.85.28.2.65.29 1.1.29.48 0 .87-.1 1.16-.3.3-.21.44-.46.44-.76a.78.78 0 0 0-.27-.6 1.76 1.76 0 0 0-.81-.37l-1.3-.28a3.1 3.1 0 0 1-1.57-.78c-.34-.35-.51-.8-.51-1.34 0-.45.13-.85.38-1.19.25-.34.6-.6 1.04-.79.45-.19.95-.29 1.53-.29.82 0 1.47.18 1.95.54.47.36.78.83.94 1.43Zm3.27 1.24V112h-1.49v-10.18h1.47v3.79h.1c.17-.41.44-.74.81-.98a2.6 2.6 0 0 1 1.44-.37c.53 0 .98.11 1.38.33.39.21.7.53.91.96.22.43.33.96.33 1.6V112h-1.49v-4.68c0-.56-.14-1-.43-1.3a1.56 1.56 0 0 0-1.2-.47c-.36 0-.67.08-.95.23-.27.14-.5.36-.65.65a2.1 2.1 0 0 0-.23 1.04Z" fill="#5E5F5D"/>
    <path d="M343.86 144.64a2.1 2.1 0 0 1 1.1 1.92c0 .72-.25 1.3-.76 1.76-.5.45-1.12.68-1.86.68h-3.56v-8.4h3.31c.72 0 1.33.22 1.81.67.5.44.75 1 .75 1.7 0 .69-.27 1.25-.8 1.67Zm-1.77-2.5h-1.65V144h1.65c.26 0 .47-.1.64-.27a.9.9 0 0 0 .26-.66.92.92 0 0 0-.25-.66.86.86 0 0 0-.65-.26Zm.25 5.31c.28 0 .52-.09.7-.27a1 1 0 0 0 .28-.72c0-.28-.1-.52-.28-.7a.92.92 0 0 0-.7-.29h-1.9v1.98h1.9Zm8.94.8a3.1 3.1 0 0 1-2.26.92 3.09 3.09 0 0 1-3.17-3.17c0-.89.3-1.64.92-2.24a3.07 3.07 0 0 1 2.25-.93c.9 0 1.64.31 2.26.93.62.6.92 1.35.92 2.24 0 .89-.3 1.64-.92 2.26Zm-3.42-1.06c.31.31.7.47 1.16.47a1.61 1.61 0 0 0 1.63-1.66 1.61 1.61 0 0 0-1.63-1.66 1.58 1.58 0 0 0-1.62 1.66c0 .48.16.88.46 1.19Zm10.64 1.07c-.61.6-1.36.9-2.25.9a3.09 3.09 0 0 1-3.17-3.17 3 3 0 0 1 .91-2.23 3.07 3.07 0 0 1 2.26-.93c.89 0 1.64.31 2.25.93a3 3 0 0 1 .93 2.24c0 .89-.31 1.64-.93 2.26Zm-3.42-1.07c.32.31.7.47 1.17.47a1.61 1.61 0 0 0 1.63-1.66 1.61 1.61 0 0 0-1.63-1.66 1.58 1.58 0 0 0-1.62 1.66c0 .48.15.88.45 1.19Zm11.07 1.81h-1.8l-2.19-2.72V149h-1.54v-8.4h1.55v5.04l2.06-2.64h1.85l-2.41 2.96 2.48 3.04Zm6.83.17a3.08 3.08 0 0 1-3.17-3.17 3.09 3.09 0 0 1 3.17-3.17c.58 0 1.11.14 1.6.42.47.28.84.66 1.09 1.13l-1.34.78c-.12-.25-.3-.44-.55-.59a1.55 1.55 0 0 0-.81-.21c-.47 0-.85.15-1.16.46-.3.3-.45.7-.45 1.18 0 .47.15.86.45 1.18.3.3.7.45 1.16.45.3 0 .58-.07.82-.2.25-.15.44-.34.56-.59l1.34.77a3.05 3.05 0 0 1-2.71 1.56Zm8.1-6.17h1.54v6h-1.55v-.7c-.46.58-1.11.87-1.95.87-.8 0-1.49-.3-2.06-.91a3.2 3.2 0 0 1-.86-2.26c0-.89.29-1.64.86-2.24a2.73 2.73 0 0 1 2.06-.93c.84 0 1.5.3 1.95.88V143Zm-2.86 4.22c.31.32.7.47 1.19.47.48 0 .87-.15 1.19-.47.31-.32.47-.72.47-1.22s-.15-.9-.47-1.21a1.61 1.61 0 0 0-1.2-.48 1.64 1.64 0 0 0-1.65 1.69c0 .5.16.9.47 1.22Zm5.9 1.78v-8.76h1.56V149h-1.55Zm3.07 0v-8.76h1.55V149h-1.55Z" fill="#fff"/>
  </g>
  <rect x="232" y="53" width="272" height="118" rx="59" stroke="#000" stroke-width="2"/>
  <g clip-path="url(#f)">
    <rect x="231" y="420" width="274" height="120" rx="60" fill="#fff"/>
    <g clip-path="url(#g)">
      <circle cx="308" cy="468" r="86" fill="url(#h)"/>
      <path fill-rule="evenodd" clip-rule="evenodd" d="M348.53 548.08a213.2 213.2 0 0 1-1.42-9.16c-.09-.7-.22-1.49.25-2 .66-.72 1.26-1.34 1.35-2.37.07-.97-.26-2.03-.46-2.97a73.33 73.33 0 0 0-1.56-5.87 179.8 179.8 0 0 0-1.93-5.86c-.63-1.82-1.23-3.65-2.05-5.4a15.8 15.8 0 0 0-7.4-7.39c-.8-.4-2.45-1.86-3.29-2.18-.77-.3-.77.57-1.53.24a3.04 3.04 0 0 1-1.51-1.2c-.37-.64-1.3-1.53-1.44-2.27-.3-1.57.02-2.91-1.1-4.1a8.17 8.17 0 0 0-3.72-2.16c-3.05-.85-7.12-.25-8.96 2.58-.88 1.36-1.19 3-2.37 4.1-1.04.96-.8 1.62-2.15 2.12-.07.02-2.13-.42-2.2-.39-1.48-.31-2.88.57-4.22 1.08a29.5 29.5 0 0 0-5.72 2.92 36.2 36.2 0 0 0-9.27 8.94 43.71 43.71 0 0 0-6.93 14.6c-.15.57-.32 1.16-.13 1.75.15.48.5.84.89 1.12.54.4 1.63.65 1.6 1.43-.01.6-.21 1.22-.31 1.81a108.65 108.65 0 0 0-1.24 11.77 83.55 83.55 0 0 0-.06 9.62c.02.2.08.4.18.56-.1.04-.1.21.02.24l.24.05c.18.13.39.2.63.21l.5.03c1.75.36 3.5.7 5.27.97 2.16.32 4.32.58 6.49.79a89 89 0 0 0 13.33.05c4.46-.23 8.9-.28 13.37-.17 4.46.12 8.92.31 13.38.4 5 .08 9.97-.06 14.94-.45.68-.06 1.1-.6.97-1.28-.8-4.05-1.72-8.08-2.44-12.16Z" fill="#D08B5B"/>
      <path fill-rule="evenodd" clip-rule="evenodd" d="m302.82 504.88.1-.04c1.31-.51 2.68-1.34 4.11-1.04.05-.02.99.17 1.62.3l-.6.63-1.07.2c3.69 6.09 8.05 9.13 13.08 9.13 5.04 0 8.86-3.04 11.47-9.13l.35-.1.14.05c.84.32 2.49 1.77 3.29 2.18a15.8 15.8 0 0 1 7.4 7.4c.79 1.68 1.38 3.45 1.98 5.21l.07.18c.67 1.95 1.33 3.9 1.93 5.86a74.4 74.4 0 0 1 1.5 5.61l.06.26c.2.94.53 2 .46 2.97-.03.37-.13.69-.27.97l-7.3 2.63 3.48 23.7c-3.18.13-6.37.17-9.56.11-4.46-.08-8.92-.27-13.38-.39a175 175 0 0 0-12.96.15l-1.1.06c-4.23.21-8.42.32-12.64-.1l-.29-.02v-3.47l1.48-19.3-7.52-1.42-7.38-3.58c-.22-.23-.4-.49-.5-.8a2.8 2.8 0 0 1 .1-1.62l.03-.13a43.73 43.73 0 0 1 6.93-14.6 36.21 36.21 0 0 1 9.27-8.94 29.93 29.93 0 0 1 5.72-2.92Z" fill="#EC7495"/>
      <path fill-rule="evenodd" clip-rule="evenodd" d="M305.64 503.7c.46-.02.93.06 1.4.1.03 0 .05.07 0 .08-.82.17-1.64.4-2.44.64l-.35.1a24.06 24.06 0 0 0-7.65 3.7c-5.92 4.3-10.2 10.78-12.91 17.49a47.63 47.63 0 0 0-2.2 6.98c-.04.13-.18.49-.1.63.06.12.33.2.45.26l.41.21 2.29 1.17.2.1c3.45 1.69 7.12 3.12 10.99 3.22l.03-.34c.17-1.82.4-3.66.89-5.43.03-.1.15-.06.16.02.27 2.1.19 4.21.09 6.32-.17 3.72-.4 7.45-.6 11.18-.1 1.86-.23 3.73-.34 5.59-.12 1.87-.16 3.78-.43 5.63-.06.41-.54.64-.9.6a.83.83 0 0 1-.73-.82c0-1.08.14-2.17.21-3.25l.23-3.06c.29-3.73.62-7.46.92-11.18l.35-3.97c-4.1-.13-7.93-1.65-11.58-3.42-.05 1.2-.18 2.4-.3 3.6a209.32 209.32 0 0 0-1.26 18.42l-.01.63c-.01.4-.05.77-.4 1.06-.34.3-.8.32-1.14 0-.46-.42-.38-.99-.36-1.55a135.92 135.92 0 0 1 .16-4.28c.17-3.32.51-6.63.96-9.93l.17-1.27a42.1 42.1 0 0 1 1.41-7.06l-.84-.42c-.5-.26-1.02-.5-1.5-.77-.4-.22-.72-.53-.83-.98-.12-.5.06-1.04.18-1.53l.02-.04a45.63 45.63 0 0 1 2.4-7.25 47.47 47.47 0 0 1 6.14-10.6 32.11 32.11 0 0 1 8.05-7.56 21.67 21.67 0 0 1 4.87-2.33 12.85 12.85 0 0 1 3.9-.69Zm8.17-5.98c.55-.59 1.64.02 1.38.8a9.8 9.8 0 0 1-3.15 4.71 7.2 7.2 0 0 1-5.06 1.7l.16.22a29 29 0 0 0 4.18 4.76c3.25 2.83 7.68 4.36 11.96 3.27 3.37-.85 6.33-3.51 7.2-6.9a.7.7 0 0 1-.43.04c-.7-.16-1.39-.9-1.84-1.42a6.66 6.66 0 0 1-1.15-1.88c-.5-1.27-.67-2.9.03-4.14.08-.15.28-.06.3.08l.02.24c.14 1.15.3 2.27.85 3.32a6.89 6.89 0 0 0 1.65 2.1c.24.18.53.32.74.53l.04.05v-.01c.05-.46.37-.66.69-.65.3.01.66.15.8.21a30.86 30.86 0 0 1 5.91 3.82 23.48 23.48 0 0 1 8.02 11.7c.67 2.29 1.06 4.66 1.47 7.01l.25 1.44c.38 2.18.81 4.4 1.67 6.42.23.52.06 1.01-.5 1.22-.68.26-1.36.5-2.05.75.34 1.45.55 2.94.8 4.4.54 3.1 1.2 6.16 1.76 9.25l.84 4.74.42 2.28.22 1.23v.07c.05.22.1.44.04.66-.06.25-.26.42-.43.6-.14.14-.35.14-.52.06l-.06-.02c-.3-.15-.55-.3-.66-.64-.07-.22-.1-.47-.14-.7l-.25-1.31-.46-2.64-.14-.83c-.47-2.84-.93-5.7-1.16-8.57l-.31-3.82-.09-.95c-.1-1.2-.23-2.45-.25-3.67l-.4.14-2.01.71c-.5.18-1.13.54-1.66.47a1.02 1.02 0 0 1-.62-.26c.18 2.6.43 5.2.77 7.8a177.91 177.91 0 0 0 1.99 12.24c.06.29.13.57.17.87.05.33-.04.53-.22.8-.15.23-.46.34-.7.19-.33-.2-.5-.38-.6-.76-.09-.34-.14-.7-.2-1.04a138.96 138.96 0 0 1-1.04-5.9 141.2 141.2 0 0 1-1.5-21.27c0-1.21.04-2.42.13-3.62.08-1.22.26-2.4.42-3.61 0-.05.07-.05.07 0 .08 1.35.2 2.7.25 4.05.06 1.3.08 2.59.13 3.88.06 1.7.14 3.4.25 5.1a.89.89 0 0 1 .77-.29c.42-.09.88-.3 1.28-.44l1.52-.5 2.4-.8a61.8 61.8 0 0 1-1.63-7.33l-.19-1.11c-.37-2.2-.77-4.4-1.44-6.52a20.86 20.86 0 0 0-3.15-6.19 33.56 33.56 0 0 0-4.78-5.01c-1.47-1.3-3.05-2.49-4.56-3.76.02.08.02.18 0 .28a10.63 10.63 0 0 1-3.24 6.15c-3.42 3.26-8.5 3.94-12.87 2.4-4.24-1.47-7.99-4.98-9.31-9.31-.02-.08.08-.1.12-.05l.22.3a.1.1 0 0 1 .06-.1c1.55-.6 3.06-1.44 4.22-2.64a9.1 9.1 0 0 0 1.93-3.02l.04-.1c.16-.45.3-.92.63-1.28Z" fill="#000"/>
      <path fill-rule="evenodd" clip-rule="evenodd" d="M334.7 478.42c-.22-2.79.11-5.7-.96-8.36-1.87-4.4-7.12-5.86-11.18-7.53-1.63-.48-7.1-.55-9.01-1.2-4.32-1.44-5.35-3.16-8.78-.4a3.6 3.6 0 0 0-1.2 1.67.9.9 0 0 0 .18.8 5.61 5.61 0 0 0-1.35 5.84c2.5 5.28 2.38 8.13 1.57 13.8-1.04 5.3 1.35 7.23 5.31 10.11-.16.32-.2.74.02 1.01 4.58 6.46 13.23 9.54 20.63 6.26 3.01-1.34 4.35-4.55 5.12-7.44.89-3.24 1.16-6.66.44-9.96-.3-1.53-.68-3.04-.8-4.6Z" fill="#D08B5B"/>
      <path fill-rule="evenodd" clip-rule="evenodd" d="m301.86 470.51 2.72 1.82 9.76-10.3-3.24-2.56s-5.9 4.36-7.05 5.5c-1.16 1.16-2.2 5.54-2.2 5.54Z" fill="#9FD8E5"/>
      <path fill-rule="evenodd" clip-rule="evenodd" d="M308.25 447.54c.56-.09.98.26 1.18.75v.02l.22.49c1.4-.69 3.38-.5 4.26.88.63.99.25 2.16.01 3.21l-.16.7c.3.19.53.53.52.89v.02l-.06.97a4.99 4.99 0 0 0 .91-1.27c.77-1.17 2.5-.16 1.87 1.09a6.01 6.01 0 0 0-.81 1.69c.3.13.53.42.55.86a2.66 2.66 0 0 1-1.34 2.43.95.95 0 0 1-.75.13l-.12.17c.34.28.65.6.92.94.8-.12 1.6-.17 2.4-.17a5.33 5.33 0 0 1 3.2-.3c.69.12 1.34.35 2 .5.7.18 1.42.19 2.13.3.9.15 1.69.56 2.19 1.23.54.01 1.11.24 1.58.54l3.3 2.13c.43.27.59.7.51 1.2v.02l-.04.2.08.13c.34.48.7.97.93 1.5.4.58.76 1.2 1.09 1.83a13.23 13.23 0 0 1 1.2 3.36c.05.34-.03.6-.08.92-.06.41-.08.83-.15 1.24-.04.27-.27.4-.51.4.1.7.16 1.4.22 2.08.09.99.15 1.97.2 2.96.26.39.8.7 1.2.8.54.14 1.11-.01 1.63-.2.32-.12.59.3.43.56-.5.86-1.56.85-2.36.47a2.23 2.23 0 0 1-.86-.69l.05.86.01.26c.16 3.05.52 6.19-.05 9.2a11.54 11.54 0 0 1-10.56 9.5c-2.76.16-5.06-.66-6.2-1.12-1.14-.45-.7-1.38.1-1.12 1.36.46 3.87 1.14 6.12.85 5.3-.7 9.79-3.35 9.33-14.77-.07-1.63-.27-3.25-.31-4.87-.05-1.58-.03-3.17-.1-4.75l-.02-.54-.1-1.9c-.06-.24-.11-.49-.18-.73-.19-.65-.44-1.29-.74-1.9a.53.53 0 0 1-.23.1 2.97 2.97 0 0 1-2.53-.65c-.11-.1-.18-.19-.24-.28a.95.95 0 0 1-.74-.29c-.2-.23-.24-.47-.16-.7l.01-.01-.02-.01a3.5 3.5 0 0 1-1.24 1.53 5 5 0 0 1-2.84.77 19.65 19.65 0 0 1-4.17-.5l-.04.04a3.08 3.08 0 0 1-3.4.61 5.3 5.3 0 0 1-1.75-1.3c0 .28-.02.56-.05.84v.12c-.06.52-.15 1.07-.55 1.45-.63.6-1.56.36-2.29-.03v.05l.6 2.03.04.14c.14.48.3.96.35 1.47.08.95-.56 1.9-1.62 1.58-.56-.17-1-.64-1.43-1.01l-.28-.24c.7 2.3 1.19 4.67 1.24 7.06 0 .13-.11.22-.24.23a2.2 2.2 0 0 1-.88-.16h-.05a3.5 3.5 0 0 1-1.36-.52c.1.3.13.61.11.95 0 .08-.13.1-.15.02-.23-1.15-1.58-2.02-2.74-1.8a3.1 3.1 0 0 0-2.38 2.52 4.88 4.88 0 0 0 1.07 3.84c.4.47.91.86 1.53.95.28.05.57.03.84-.05.12-.03.23-.08.34-.12.16-.07.35-.08.5-.15.34-.15.69.16.51.52-.15.3-.28.52-.54.68.2.25.4.6.46.69a11.77 11.77 0 0 0 2.43 2.57l.2.16c.45.36.84.7 1.16 1.2.25.41-.07.97-.54.96-1.48-.02-2.55-1.32-3.31-2.45l-.3-.51-.12.15.08.23c.25.66-.83 1.1-1.14.48a9.4 9.4 0 0 0-.78-1.29.67.67 0 0 1-.44-.26c-.24-.35-.5-.7-.73-1.07a9.61 9.61 0 0 0-.38-.34l-.12.1c-.16.38-.36.72-.62 1.04l-.05.07c-.49.61-1.12 1.24-1.9 1.39-.23.04-.46-.25-.25-.44.55-.5 1.2-.83 1.7-1.38.24-.27.47-.57.66-.88l.05-.07.1-.16-.68-.47c-.63.54-1.44.78-2.13 1.23l-.07.04c-.63.42-1.28-.5-.78-1.02.55-.55 1.01-1.22 1.5-1.84a3.6 3.6 0 0 1-.38-1.44l-.04-.43c-.35 0-.7-.11-1-.32l-.12-.08c-.36.12-.74.17-1.1.16-.86-.02-1.21-1-.68-1.63.55-.63 1.5-.77 2.27-.46l.07-.04a.88.88 0 0 1 .01-.45v-.08a2.08 2.08 0 0 1-.3-1.6l.1-.24a1.6 1.6 0 0 1-.12-.48l-.05-.07a1.3 1.3 0 0 1 .06-1.6v-.08l-.05-.14c-.35-.35-.6-.78-.56-1.3.03-.32.16-.6.35-.8a.46.46 0 0 1 0-.32 4.77 4.77 0 0 1-.04-2.73 1.12 1.12 0 0 1-.07-.45c.02-.68.61-1.3 1.3-1.3.1 0 .17.01.25.03v-.02c.02-.2.08-.4.16-.56a.38.38 0 0 1-.11-.06c-.45.24-.92.42-1.41.54-.37.1-.74-.32-.52-.66.11-.16.23-.3.35-.44-.18 0-.36.02-.54.04-.33.04-.7-.18-.9-.48l-.8.77c-.67.65-1.68.17-1.79-.69-.2-.05-.39-.14-.55-.27a9.4 9.4 0 0 1-3.36.76c-.84.03-1.33-.94-.94-1.63.27-.46.6-.88.97-1.24a12 12 0 0 1-1.8.39c-.33.04-.8-.23-.94-.54a4.04 4.04 0 0 1 .2-3.67c.06-.16.12-.3.2-.45-.73-.75-.79-1.87-.4-2.81a.95.95 0 0 1-.1-.83c.3-.8.73-1.53 1.27-2.16-.05-.1-.1-.2-.13-.32a2.7 2.7 0 0 1 .77-2.73 3.6 3.6 0 0 1 1.53-.81c.23-.42.53-.8.88-1.11l.05-.09a3.31 3.31 0 0 1 2.6-1.71c.05-.4.32-.8.71-.92.11-.35.27-.68.5-.98.35-.48.93-.7 1.48-.4.3.18.59.38.85.6.13-.06.26-.1.42-.11h.04l.89-.05 1.12-.5a2.99 2.99 0 0 1 1.7-.7 8.16 8.16 0 0 1 2.69-.42l.02-.5v-.09c-.02-.55.42-.98.93-1.06Zm-.62 43.89-.27.04.08.2.22.12a1.9 1.9 0 0 1-.03-.36Zm-4.65-1.39-.06.11-.03.06h.38l-.05-.03a2.08 2.08 0 0 1-.24-.14Zm2.51-5.06c.8.05 1.48.17 2.2.52l.07.03c.64.32 1.7.91 1.62 1.76-.03.24-.2.5-.48.47-.75-.05-1.18-.8-1.7-1.28a8.74 8.74 0 0 0-1.76-1.3c-.1-.05-.06-.2.04-.2h.01Zm-3.63-11.17c-.2 0-.13.2-.03.04l.03-.04Zm10.35-12.47c-1.81.05-3.64 1.12-5 2.2a17.7 17.7 0 0 0-3.11 3.3c-.24.6-.44 1.21-.6 1.83-.12.41-.19.82-.28 1.24l-.03.13c-.07.13-.13.28-.17.43.17.17.38.29.62.34.07.02.14.06.19.11.19-.31.35-.65.45-1v-.02c.37-.6.76-1.18 1.19-1.74a20.8 20.8 0 0 1 4-4.13 13.21 13.21 0 0 1 3.9-2.03 4.3 4.3 0 0 0-1.16-.66Z" fill="#000"/>
      <path fill-rule="evenodd" clip-rule="evenodd" d="M326.44 495.03a3.69 3.69 0 0 1-1.55-1.2.71.71 0 0 1-.15-.55.8.8 0 0 1 .87-.65.7.7 0 0 1 .48.3l.03.05c.23.32.54.58.89.75.34.16.72.24 1.1.2.75-.09 1.27-.5 1.81-1.04l.2-.21a.32.32 0 0 1 .18-.13.37.37 0 0 1 .41.14c.04.06.07.14.06.22a2.33 2.33 0 0 1-.77 1.47 3.4 3.4 0 0 1-1.67.86c-.64.12-1.3.03-1.9-.2Zm2.2-8.75c.68.41 1.72 1.38.99 2.41-.87.91-2.12-.13-2.74-.6-.57-.37-1.2.57-.68 1 4.45 3.3 6.25-2.7 2.77-3.3-.38-.07-.53.36-.35.48Zm-7.97-3.83c.07-.94 1.5-1.15 1.65-.23a3.8 3.8 0 0 1-.4 2.35c-.36.72-1.26.38-1.33-.27-.09-.87.03-1.27.08-1.85Zm10.88-.42c.2-.26.5-.44.84-.34 1.07.32.76 1.85.38 2.6-.2.4-.87.5-1.17.14-.5-.58-.73-1.74-.1-2.3a.76.76 0 0 1 .05-.1Zm-9.65-3.7.17-.02c.53-.1 1.19-.18 1.56.24.2.23.26.64 0 .86-.47.38-.99.23-1.55.26-.46.03-.9.1-1.34.23a9.2 9.2 0 0 0-2.6 1.35c-.12.07-.23-.07-.18-.17a5.38 5.38 0 0 1 2.35-2.19c.5-.25 1.04-.46 1.6-.55Zm8.67-.41.13.02c1.42.3 3.26.9 3.93 2.28.03.2 0 .24-.02.27v.01c-.03.02-.04.06-.13.08l-.07-.01c-.3-.09-.55-.2-.78-.31l-.26-.13c-.3-.14-.6-.28-.91-.39a10.7 10.7 0 0 0-2.08-.46.86.86 0 0 1-.42-.15.63.63 0 0 1-.23-.36.63.63 0 0 1 .07-.53.7.7 0 0 1 .33-.29.77.77 0 0 1 .44-.03Z" fill="#000"/>
      <path fill-rule="evenodd" clip-rule="evenodd" d="M330.55 496.43c-.84-.75-1.79-2.27-3-1.07-.3.34-.42 1.1-.88 1.24-.61.2-1.21-.44-1.42-.94-.85-2.75 2.66-3.5 4.66-3.06.98.4 1.7 2.02 1.74 2.86.03.57-.45 1.4-1.1.97m6.37-4.24a.53.53 0 0 0-.03-.1.67.67 0 0 0-.85.27c0 .07.02.13.04.2-.14.3-.27.67-.46.92l-.12-.01c-3.16.33-1.62-2.98-4.83-3.8-2.48-.41-6.97.06-8.14 2.64-.92 4.13-5.61 1.25-7.16-.9-1.64-1.95-2.7-4.34-3.73-6.65-.22-.5-.9-.14-.82.33-.95 1.9-.92 4.18-1.15 6.27-.4 4.15-.79 9.98 3.07 12.52 5.03 5.69 17.6 7.7 23.4 2.47 2-4.32 1.76-9.59.78-14.16" fill="#000"/>
      <path fill-rule="evenodd" clip-rule="evenodd" d="M336.28 487.09c-.61.82-1.74 1.08-2.79.99-2.25-.22-2.96-2.77-3.03-4.76 1.5.42-.13-2.58 5.03-2.92 1.82-.15 1.32.95 2.12 1.75-.01 1.69-.3 3.52-1.33 4.94m-10.73-1.94c-1.32 6.23-8.6 4.75-9.37-.86.7-.5.52-1.73 1.4-2.18 1.39-.89 3.13-.85 4.7-.83 2.02.14 2.6.98 3.64 1.89-.06.6-.2 1.33-.37 1.98m13.61-5.78a15 15 0 0 0-.22-.03 3.59 3.59 0 0 0-.75-.17c-2.59-.58-8.57.25-8.82 2.45-.82.28-1.54.03-2.5.06-.72-3.04-13.28-2.61-13.89-.78-.59-.18-1.44-.14-2.1-.17-1.43-.03-2.85.1-4.24.4-2.6.41-6.14.9-4.33 4.14.3.32.84.06.86-.37-.61-1.53.76-1.72 1.82-2.16 2.63-.95 5.3-1.08 8.02-.79.2.25.52.46.85.57 1.81.3.85 1.65 2 1.84-.2 4.7 5.5 7.27 8.8 4.18 1.33-1.3 1.64-3.2 1.95-4.93a.46.46 0 0 0 .32-.24c.4-.39.64-.75 1.4-.85.78-.11 1.37.1 1.45.17l.07.12c.03.06.08.11.13.15-.76 4.68 2.88 7.64 6.54 5.21 1.6-1.5 1.94-3.8 2-5.84a.62.62 0 0 0 .28-.7c-.1-.44.14-.82.52-1.01.5-.25.42-1.15-.16-1.25" fill="#000"/>
    </g>
    <g clip-path="url(#i)">
      <circle cx="405" cy="469" r="95" fill="url(#j)"/>
      <path fill-rule="evenodd" clip-rule="evenodd" d="m428.5 498.92 1.07 2.65-.58 8.38-.44.06c-4.62.72-7.75 1.08-9.41 1.1h-.05c-1.67 0-3.67-.38-6-1.13l-.1-.03-.28-6.28h.64l1.14-2.7c0 .02-.02.04-.04.06-.47.71-.75.14-1.88.4-1.34.3-1.94 1.66-3.13 2.68-.55.47-1.7.7-2.25 1.02l-.58.34c-1.82 1.08-3.91 2.38-5.01 4.09-1.29 2-2.18 3.89-3 6.11a83.7 83.7 0 0 0-3.86 14.7 165.42 165.42 0 0 0-1.83 15.4c-.19 2.38-.35 4.77-.48 7.16l-.04.6c-.06 1.3 0 2.57 1.18 3.38.84.57 1.96.66 2.95.72h.06l21.98 1.29 11 .64 5.48.32 4.47.26c2.1.12 4.2.22 6.32.21 2.65-.01 5.29-.21 7.91-.57l.24-.03c1.65-.23 4.04-.8 4.34-2.8a.36.36 0 0 0-.42-.42c.07-.32.11-.64.16-.92.17-1.2.28-2.42.34-3.63.1-2.43.01-4.87-.23-7.3-.4-4-.96-7.99-1.54-11.97l-.13-.89c-.62-4.21-1.35-8.43-2.5-12.53-1.06-3.8-2.72-7.75-5-10.15a24.82 24.82 0 0 0-8.88-5.76c-.28-.11-6.03-1.37-6.42-1.19l-.07-.06c-1.14-.9-2.78-2.5-4.46-2-.05-.07-.2-.56-.42-1.2h-.24Z" fill="#8FA7DF"/>
      <path fill-rule="evenodd" clip-rule="evenodd" d="M427.3 495.4c-1.4-1.77-2.87-2.33-5.04-2.2a6.97 6.97 0 0 0-4.18 1.18 7.83 7.83 0 0 0-2.87 2.48c-.62.9-.15 3.14-.71 4.11v.29c0 .84-.58 1.77-1.74 2.8l-.05.05v6.09c1.96.6 4.38.9 7.27.9 2.84 0 5.8-.48 8.87-1.44l.14-.04.58-6.62-.58-1.83v-1.53l-.23-.69c-.4-1.2-1.02-2.97-1.47-3.55Z" fill="#D08B5B"/>
      <path fill-rule="evenodd" clip-rule="evenodd" d="M428.99 509.62s-5.17 1.51-8.69 1.51c-3.53 0-7.32-1.5-7.32-1.5l.62 49.63 9.9.13 5.49-49.77Z" fill="#9FD8E5"/>
      <path fill-rule="evenodd" clip-rule="evenodd" d="M445.98 531.3c.04-.07-.05-.14-.1-.09a7.29 7.29 0 0 0-2.19 4.8c-.15 1.86.07 3.77.15 5.62.1 2.06.18 4.12.3 6.18.11 2.08.24 4.17.34 6.26l.25 4.7c.02.5-.04 1.11.16 1.58.3.72 1.18.61 1.36 0v-.01h.02c.17-.54.04-1.18.02-1.75l-.26-5.13c-.17-3.63-.33-7.26-.52-10.88l-.07-1.21c-.09-1.63-.16-3.25-.21-4.88l-.02-.54c-.05-1.63-.01-3.18.77-4.65Zm-32.35-30.12c-.74-.07-1.3.18-1.98.44-.29.11-.57.25-.85.38-.35.17-.58.47-.8.79l-.12.17c-.9 1.33-1.51 2.87-2.2 4.31-.8 1.7-1.61 3.39-2.4 5.1l-.39.83-.58 1.26-.33.74c-.33.74-.62 1.52-.15 2.3.44.7 1.21 1.26 1.83 1.8l1.54 1.39a8.94 8.94 0 0 0-2.2 3.85c-.59-.25-1.32-.3-1.93-.4-.86-.16-.97 1.15-.16 1.14.6-.02 1.31.05 1.93-.08-.11.47-.19.95-.24 1.43-.26 2.53.3 5.07.9 7.51l.05.2a201.45 201.45 0 0 1 3.26 16.01c.44 2.75.76 5.5 1.1 8.26.04.42.3.78.77.78.38 0 .82-.36.77-.78-.35-3-.84-5.98-1.33-8.96a209.9 209.9 0 0 0-3.13-15.28l-.21-.88c-.55-2.28-1.05-4.63-.77-6.99.22-1.91 1.02-3.96 2.6-5.15l.05-.04c.37-.27.5-.79.14-1.14l-.69-.68-1.39-1.37-.28-.27-.71-.68c-.15-.13-.54-.39-.57-.6-.02-.15.15-.4.21-.53l.32-.64.52-1.09c.37-.75.73-1.5 1.08-2.27l2.12-4.55c.6-1.29 1.13-2.64 1.91-3.83l.16-.23c.13-.2.24-.38.32-.62.08-.23.18-.49.32-.68.34-.46.99-.72 1.53-.82.08-.01.05-.12-.02-.13Zm16.3-1.2c-.04 0-.05.07 0 .09.65.2 1.27.51 1.78.97.24.22.49.47.64.77.06.1.09.23.11.35l.01.04c.04.23.1.35.2.53l.03.03c.65 1 1.1 2.12 1.51 3.23l.9 2.43.9 2.44c.3.78.6 1.56.88 2.35l.5 1.29.2.56c.02.03.04.18.07.22l-.01.01c-.18.3-.67.57-.94.79l-.95.77c-.68.54-1.37 1.08-2.03 1.65-.4.36-.15 1 .3 1.15.78.25 1.53.56 2.29.84l.93.34.18.08c.07.03.04.03.03.17 0 .14-.04.28-.06.42a241.51 241.51 0 0 1-4.4 20.88c-.7 2.71-1.45 5.41-2.16 8.13-.7 2.7-1.64 5.36-2.53 8-.25.75.93 1.08 1.18.33 1.02-3.11 1.96-6.25 2.93-9.38a189.24 189.24 0 0 0 4.28-16.95 240.8 240.8 0 0 0 1.9-10.11l.14-.8c.09-.56.14-1.15-.3-1.6-.43-.43-1.16-.59-1.72-.8h-.05l-1.07-.4 1.58-1.27c.42-.33.86-.66 1.27-1 .35-.3.63-.66.67-1.12.04-.47-.17-.91-.33-1.34l-.01-.05-.49-1.3-1.02-2.66c-.64-1.7-1.26-3.4-1.94-5.08a18.07 18.07 0 0 0-1.45-2.84 1.8 1.8 0 0 0-.75-.66c-.54-.28-.97-.75-1.51-1.05a3.56 3.56 0 0 0-1.69-.44Zm-1.75-3.02c-.02-.03-.07-.02-.07.02-.02.85.18 1.7.3 2.54.13.84.17 1.72.34 2.55l.03.1v.04c.08.23.28.43.52.49l-.21 1.26-.29 2.18-.11.88-.3 2.47c-.26.1-.52.2-.79.27-.61.18-1.24.25-1.88.31-1.29.13-2.59.19-3.88.26l-.28.02c-1.45.08-2.92.1-4.37-.06a15.3 15.3 0 0 1-2.13-.37c-.36-.1-.7-.23-1.06-.31-.12-.03-.23-.1-.35-.17a.37.37 0 0 0-.22-.14h-.05l-.01-.01a.76.76 0 0 0-.2 0l-.1-1.93c-.09-1.72-.35-3.52 0-5.23 0-.06-.07-.08-.09-.02-.69 1.8-.6 3.78-.64 5.7-.04 1.85-.01 3.72 0 5.58a.94.94 0 0 0-.35.24c-.19.22-.24.6 0 .8.1.1.22.16.35.2l.03 4.86c-.3.24-.33.8.02 1.04.05 5.24.15 10.49.23 15.73l.16 11c.02 1.47.06 2.93.07 4.4l-.04.02c-.06.03-.16.07-.18.12v.03c-.1.01-.2.06-.29.14-.21.2-.17.51 0 .72l.05.05c.1.13.3.18.47.16v3.58l.02.67c0 .38.04.87.43 1.04.44.2.83.03 1.01-.42a.65.65 0 0 0 .02-.35c0-.18.04-.39.03-.56l-.01-.7-.01-.32h.01c1.56.08 3.14.04 4.7.04h.7c.59 0 1.17 0 1.75-.02l.22-.01c.43-.02.89-.03 1.34-.07l-.16 1.4c-.04.44.4.81.81.81.48 0 .76-.38.82-.82.27-2.05.38-4.13.64-6.2.23-1.84.43-3.69.64-5.54l.07-.61c.75-6.73 1.47-13.46 2.17-20.2l.32-3.15c.33-3.17.66-6.34.94-9.52a473 473 0 0 0 .44-5.45c.1-1.34.17-2.67.2-4a.68.68 0 0 0 .18-.67 7.3 7.3 0 0 0-.14-.44v-.43c0-.14-.13-.2-.24-.19-.2-.48-.43-.97-.61-1.45-.3-.79-.55-1.63-.97-2.36Zm16.72 8.47c-3.13-1.96-6.85-3.38-10.58-3.23-.09 0-.11.13-.02.16 1.99.44 4 .98 5.88 1.77 1.9.8 3.69 1.86 5.3 3.15a23.31 23.31 0 0 1 6.75 8.91c.89 2.03 1.5 4.18 2.05 6.32a89.5 89.5 0 0 1 1.44 6.88 120.7 120.7 0 0 1 1.47 13.8c.24 4.7.14 9.4.31 14.1.04.82 1.2.8 1.25 0 .4-5.34.18-10.77-.19-16.11-.32-4.8-.9-9.6-1.82-14.32l-.08-.4c-.87-4.38-1.9-8.86-4-12.82a21.9 21.9 0 0 0-7.76-8.2Zm-43.46 20.9c-.02-.05-.08-.05-.1 0-.35 1-.37 2.13-.46 3.18l-.01.08c-.1.97-.16 1.93-.22 2.9l-.03.36c-.25 3.94-.57 7.87-1.05 11.79a206 206 0 0 1-1.83 11.64c-.08.43.1.87.56 1 .4.1.9-.14.99-.57a164.76 164.76 0 0 0 2.33-18.56c.13-2 .22-3.99.25-5.99.01-.92-.01-1.85-.06-2.78l-.01-.22c-.06-.94-.05-1.93-.36-2.84Zm33.82 25.08c-.04-.03-.1.02-.07.06.6 1 1.43 1.84 2.22 2.68.83.88 1.64 1.78 2.48 2.64.61.63 1.6-.38.95-.95-.9-.8-1.85-1.56-2.77-2.34l-.4-.35a14.5 14.5 0 0 0-2.41-1.74Zm-28.79-.5c.05-.08-.06-.16-.13-.1-.49.4-.92.88-1.4 1.3a23.56 23.56 0 0 1-2.98 2.27c-.44.3-.89.52-1.34.76a.84.84 0 0 0-.57.33c-.24.3-.27.9.07 1.17l.06.05c.4.31.88.35 1.27 0 .44-.4.86-.84 1.28-1.25l.13-.13c.46-.44.9-.9 1.32-1.38l.38-.43c.7-.8 1.43-1.67 1.91-2.59Zm2.25-46.29c.08-.05.03-.2-.07-.16l-.18.06c-.77.27-1.56.57-2.26.98-.75.44-1.44.97-2.1 1.54a19.56 19.56 0 0 0-3.53 4.12c-2 3.02-3.22 6.48-4.21 9.94a109.39 109.39 0 0 0-2.54 11.23 132.9 132.9 0 0 0-1.54 11.6 98.47 98.47 0 0 0-.37 9.47v.76c-.01.48-.07.99.05 1.46.18.75 1.43.61 1.39-.16.04-.26.04-.53.03-.8l.02-.1c.02-.1 0-.2-.04-.28l-.01-.38v-1.52l.12-3.22c.08-2.14.2-4.28.38-6.42.6-7.43 1.87-14.91 4-22.07a33.9 33.9 0 0 1 4.33-9.45 25.01 25.01 0 0 1 2.94-3.54c1.1-1.1 2.3-2.2 3.6-3.06Zm14.78 47.94-.14 1.07-.22 1.62c-.47-.07-.96-.1-1.41-.14-.8-.07-1.6-.1-2.4-.13-1.65-.07-3.32-.2-4.97-.18a.4.4 0 0 0-.05 0l-.08-2.12h1.16l2.96-.02c.88 0 1.77 0 2.66-.03h.38c.67-.02 1.41.01 2.11-.07Zm-9.37-3.07h.15c.23.02.46.01.7.01l1.46.01c.98 0 1.96 0 2.95.02l3.03.03 1.46-.03-.25 2.1c-.76-.11-1.58-.06-2.32-.06h-.1c-1.01-.02-2.02-.01-3.04-.01l-3.13.01-.85.01v-.04l-.06-2.05Zm10.13-3.34-.28 2.47a235.56 235.56 0 0 0-9.1-.34c-.23 0-.46 0-.69.02h-.08l-.01-1.23-.02-.62c.76.04 1.54.03 2.3.03h.17a113.39 113.39 0 0 0 5.8-.15c.4-.02.8-.06 1.19-.1l.2-.02.52-.06Zm-10.25-3.5c1.82.15 3.64.21 5.47.23h.28c1.62.01 3.25.08 4.87.04l-.29 2.53-.7-.02c-.45-.02-.92-.02-1.38-.02h-2.86l-2.94-.03c-.8-.02-1.6-.08-2.4-.08l-.05-2.64Zm-.08-3.6c.21.08.46.08.74.1l.7.03.99.04 3.27.12a53.2 53.2 0 0 0 5.01-.08l.41-.02-.38 3.35c-1.62-.2-3.24-.32-4.86-.53l-1.45-.19c-1.46-.18-2.92-.37-4.38-.52l-.05-2.3Zm-.08-3.63c.31.08.67.07.96.09h.06c.56.05 1.13.07 1.7.08 1.1.03 2.22.04 3.33.05h.67a95.15 95.15 0 0 0 4.38-.08l.52-.02-.36 3.17-.55-.08a63.72 63.72 0 0 0-4.4-.48l-3.11-.2-.74-.06-.73-.05c-.42-.02-.9 0-1.32-.09a.6.6 0 0 0-.36-.03l-.05-2.3Zm-.1-4.26c.12.14.28.2.47.23 1 .13 2.02.15 3.02.21l.18.02 3.12.17c1.06.06 2.13.1 3.2.14.45.02.9.02 1.36.02h.2l.57-.02c-.1 1-.22 1.98-.33 2.97l-.59-.06c-.57-.06-1.14-.12-1.71-.16-1.09-.09-2.17-.14-3.25-.2l-3.34-.14c-.53-.02-1.07-.05-1.61-.1-.38-.04-.82-.17-1.22-.12l-.06-2.96Zm-.08-3.82.06.08c.44.43.98.4 1.56.45h.04a140.71 140.71 0 0 0 5.13.33c1.17.05 2.35.08 3.52.06.75-.01 1.53-.01 2.3-.09l-.35 3.27-.64-.1c-.52-.08-1.03-.16-1.55-.22a171.34 171.34 0 0 0-5.79-.59l-.53-.05c-1.06-.09-2.14-.23-3.2-.25a.6.6 0 0 0-.48.24l-.07-3.13Zm-.07-3.09c.27.04.56.02.81.03l1.9.06 3.8.1c1.29.05 2.58.07 3.88.06.57-.01 1.14-.01 1.7-.04l.2-.01c.23-.02.52-.02.8-.05l-.33 3.08c-.76-.12-1.55-.16-2.3-.22l-.17-.02c-1.1-.1-2.22-.16-3.34-.24l-3.43-.27-1.7-.15h-.08c-.53-.06-1.04-.18-1.52.14a.5.5 0 0 0-.16.18l-.06-2.64Zm-.1-3.59c2.32.1 4.63.17 6.95.2 1.3.02 2.6 0 3.9-.02a30.1 30.1 0 0 0 1.7-.08l.21-.02.83-.07-.34 3.18c-.28-.06-.57-.08-.81-.11h-.06c-.6-.1-1.2-.14-1.8-.2-1.18-.1-2.37-.16-3.54-.22l-3.63-.16-1.2-.06-.61-.02-.86-.04-.43-.02h-.1a.55.55 0 0 0-.12-.08l-.03-.01-.05-2.26Zm13.97-3.4-.32 2.86-.98-.09a60.6 60.6 0 0 0-1.9-.13l-1.28-.06-2.54-.11c-2.33-.09-4.65-.18-6.97-.3l-.05-1.94c.1.12.27.2.48.2 2.44 0 4.88 0 7.32-.04 1.22-.01 2.44-.04 3.65-.1a21 21 0 0 0 1.8-.18l.8-.1Zm.4-3.39-.35 2.93c-.3-.06-.61-.08-.9-.12a22 22 0 0 0-1.82-.19 85.7 85.7 0 0 0-3.57-.12c-2.44-.06-4.88-.06-7.32-.08-.23 0-.4.1-.51.23l-.05-1.83c.23-.02.47-.06.68-.07a166.35 166.35 0 0 1 6.16-.34l4.16-.17.6-.02c.97-.04 1.96-.08 2.91-.22Zm.43-3.67-.36 2.96-.03.3a24.2 24.2 0 0 0-3.56-.34 91.82 91.82 0 0 0-8.33.01l-2.07.1-.65.01-.01-.46-.07-1.89c.47.24 1.08.34 1.55.44l.06.01a18 18 0 0 0 2.36.36c1.56.14 3.13.09 4.7-.05l.26-.02a27.1 27.1 0 0 0 4.12-.6 7.4 7.4 0 0 0 2.03-.83Zm-13.17-11.74c-.01-.05-.1-.06-.12-.01-.18.35-.25.77-.38 1.14l-.42 1.22c-.31.83-.69 1.63-1.13 2.4-.45.77.79 1.31 1.12.48a14.78 14.78 0 0 0 .95-4.02c.02-.4.08-.83-.02-1.2Z" fill="#000"/>
      <path fill-rule="evenodd" clip-rule="evenodd" d="M412.72 469.56c5.72-4.67 14.88-6.2 21-1.48 4.76 4.43 6.73 17 5.89 23.32-.24 4.05-3.31 8.64-7.84 7.36-.76-.08-1.5-.37-2.28-.43-.93-.11-1.87-.11-2.79.02-2.01.28-3.8 1.36-5.76 1.86-3.63.94-7.68.3-10.8-1.8-10.33-6.82-5.65-22.25 2.58-28.85Z" fill="#D08B5B"/>
      <path fill-rule="evenodd" clip-rule="evenodd" d="M413.48 500.32a12 12 0 0 1-.32-.11c0 .03-.02.05-.03.07l-.05.1a.9.9 0 0 0 .4-.06Zm.21-45.27.16-.31c-.15.05-.3.11-.43.2l.27.1Zm22.6 13.82h.01c-.08-.21-.21-.4-.37-.55l-.08-.07c.16.2.3.4.43.62Zm-41.35 21.7c.08-.72.18-1.45.3-2.17.13-.7.23-1.43.58-2.04.35-.62.7-1.2 1.1-1.75a7.68 7.68 0 0 0-.2-.74c-.39-1.2-.77-2.72.04-3.83.19-.26.42-.45.68-.63.12-.08.3-.15.39-.25.06-.08.04-.04.04-.07.01-.2-.45-.62-.55-.77a4 4 0 0 1-.47-.95c-.46-1.32-.15-2.77.13-4.1.14-.7.3-1.4.35-2.11.05-.67-.04-1.33-.1-2a3.89 3.89 0 0 1 .25-1.94c.14-.3.34-.56.6-.77.24-.2.55-.31.8-.51.23-.2.16-.47.1-.74-.09-.38-.2-.75-.2-1.13a2.8 2.8 0 0 1 .67-1.83 2.71 2.71 0 0 1 1.75-.96c.3-.03.6.03.92 0 .3-.02.37-.17.43-.45.13-.64.07-1.27.39-1.87.27-.53.77-.9 1.32-1.1a5.7 5.7 0 0 1 3.22-.08 4.82 4.82 0 0 1 4.5-3.07c.3-.52.8-.9 1.38-1.12.96-.37 1.97-.16 2.96-.16h.31c.1 0 .19-.02.28-.03 1.14-.13 2.26-.6 3.38-.14.5.2.9.52 1.15.92.38.1.76.22 1.13.36 1.59.04 3.17.9 3.97 2.3 1.14-.14 2.37.08 3.12 1.01.2.25.35.53.45.83.76.25 1.47.7 1.94 1.36.42.61.5 1.4.21 2.05a4 4 0 0 1 1.48 2.05c.15.51.18 1.04.08 1.55.7.15 1.37.44 1.96.87.62.46 1.4 1.18 1.44 2.01v.19c1.36-.1 2.75.13 3.68 1.24.7.82 1 1.89.8 2.86a7.58 7.58 0 0 1 4.25 2.45c.78.92 1.47 2.08 1.43 3.33-.01.38-.1.76-.25 1.11l.2.4c1 .72 1.73 1.83 2.14 3.05.34 1 .55 2.28.2 3.3-.06.15-.13.3-.21.43l.2.21c.67.8 1.36 1.8 1.31 2.9-.02.45-.18.9-.45 1.26.94.95 1.7 2.16 1.62 3.51a3.64 3.64 0 0 1-1.7 2.93c.16.9-.06 1.86-.76 2.57-.35.35-.77.58-1.2.7-.1 1.07-1.04 1.93-2.04 2.18a3.6 3.6 0 0 1-.56.08c-.9.45-1.97.4-2.89-.01a2.98 2.98 0 0 1-1.56 1.03c-1.3.39-2.62-.13-3.75-.74l-.17-.07a3.06 3.06 0 0 1-2.3.82 4.18 4.18 0 0 1-1.82-.6 2.37 2.37 0 0 1-1.65-.37 2.7 2.7 0 0 1-.85-.01c-.63.16-1.24-.1-1.74-.5-.22-.19-.4-.4-.6-.6-.2-.21-.37-.26-.6-.4-.57-.34-.64-1.19-.4-1.8a.89.89 0 0 1-.07-.36 5.6 5.6 0 0 1 1.19-3.15c.29-.41.6-.82.95-1.19.28-.3.67-.77 1.08-.89l.08-.05a2.52 2.52 0 0 1-.1-.86c.01-.3.11-.59.27-.83a5.91 5.91 0 0 1-.64-3.28 5.63 5.63 0 0 1-1.06-3.39c0-.22.09-.5.09-.73-.01.07-.1-.2-.14-.26-.42-.79-.96-1.4-1.05-2.32-.05-.54.07-1.13.4-1.58a3.94 3.94 0 0 1 .42-3.07c-.06-.17-.1-.33-.17-.48l-.07-.18a5.9 5.9 0 0 1-.64-.66 3 3 0 0 1-.76-1.71c-.02-.33.06-.65.15-.96.04-.14.07-.3.12-.43.03-.08.1-.15.12-.23l.01-.04v-.07c0-.31-.05-.62-.05-.92-.28.29-.63.5-1.02.63a2.9 2.9 0 0 1-2.31-.25c-.75.51-1.6.98-2.48 1.17-.53.11-1.05.07-1.58.14-.53.06-1.03.3-1.53.47l-3.3 1.2c-.89.32-1.85.56-2.78.39a3.05 3.05 0 0 1-2.05 1.36c-.31.05-.68.03-.93.25-.25.2-.4.52-.63.76a3.25 3.25 0 0 1-1.66.94c.02.6.05 1.2.05 1.8l.03 3.9c.02 1.29.06 2.58.13 3.87.06 1.22.15 2.43.44 3.62a9.16 9.16 0 0 0 8.53 6.88c1.2.04 2.37-.13 3.5-.48 1.18-.36 2.23-1.11 3.44-1.34.32-.06.61.26.43.56-.3.53-.69.85-1.2 1.17a12.06 12.06 0 0 1-5.16 1.48c-.89.05-1.78-.01-2.65-.18-.06.19-.17.37-.25.54-.01.03-.05.01-.04-.01a.73.73 0 0 0 .02-.12c-.3.39-.74.65-1.2.78a2.67 2.67 0 0 1-1.33.03c-.34.3-.78.5-1.22.6.07.46-.15.96-.68 1.1-.22.05-.43.05-.64.03-.18.08-.36.14-.56.19a.86.86 0 0 1-.75-.2c-.1.07-.2.12-.3.24-.4.49-1.26.1-1.3-.46h-.38a3.8 3.8 0 0 0-.1.05c-.56.26-1.14.49-1.75.28a1.63 1.63 0 0 1-.32-.14 3.2 3.2 0 0 1-1.3-.1 2.12 2.12 0 0 1-.72-.4c-.68.2-1.4.3-2.07.04a2.5 2.5 0 0 1-1.2-.86 2.6 2.6 0 0 1-1.3-.3 3.74 3.74 0 0 1-1.5-1.73 14.08 14.08 0 0 1-1.36-4.8c-.17-1.63.07-3.27.25-4.9Z" fill="#000"/>
      <path fill-rule="evenodd" clip-rule="evenodd" d="M415.95 494.05c.59-.24 1.1-.64 1.49-1.15a.7.7 0 0 0 .14-.54.78.78 0 0 0-.3-.48.72.72 0 0 0-.54-.15.68.68 0 0 0-.45.3l-.03.04c-.23.31-.52.56-.86.73-.33.15-.69.23-1.07.18-.71-.08-1.2-.47-1.73-1l-.2-.2a.3.3 0 0 0-.16-.12.36.36 0 0 0-.4.14.33.33 0 0 0-.06.21c.05.55.34 1.04.74 1.42a3.23 3.23 0 0 0 3.43.62Zm-2.11-8.44c-.66.4-1.66 1.34-.95 2.33.83.88 2.03-.13 2.62-.58.55-.35 1.16.55.66.96-4.28 3.18-6.01-2.6-2.67-3.18.37-.06.51.35.34.47Zm7.65-3.69c-.07-.9-1.44-1.11-1.58-.22-.12.8.02 1.55.38 2.27.35.69 1.21.37 1.28-.26.08-.84-.03-1.23-.08-1.79Zm-10.46-.4c-.2-.25-.47-.42-.8-.33-1.04.3-.73 1.78-.37 2.5.2.39.84.49 1.13.14.47-.56.7-1.67.1-2.22a.7.7 0 0 0-.06-.09Zm9.28-3.56-.17-.03c-.5-.09-1.13-.17-1.49.24-.19.21-.25.62 0 .82.45.37.95.23 1.48.26.45.02.87.1 1.3.22.94.27 1.7.76 2.5 1.3.1.07.21-.07.16-.17a5.17 5.17 0 0 0-2.25-2.1c-.48-.25-1-.45-1.53-.54Zm-8.33-.4-.13.02c-1.36.28-3.13.86-3.78 2.2-.02.19 0 .23.02.26h.01c.02.03.03.06.11.08l.07-.01c.3-.08.53-.19.76-.3l.25-.12c.28-.14.57-.28.87-.38.65-.2 1.32-.36 2-.44a.81.81 0 0 0 .4-.15.6.6 0 0 0 .23-.34.62.62 0 0 0-.07-.52.66.66 0 0 0-.32-.27.74.74 0 0 0-.42-.04Z" fill="#000"/>
    </g>
  </g>
  <rect x="232" y="421" width="272" height="118" rx="59" stroke="#000" stroke-width="2"/>
  <g clip-path="url(#k)">
    <rect x="39" y="236" width="274" height="120" rx="60" fill="#fff"/>
    <path d="M125.27 298.7c-.2 20.41-18.63 32.35-36.59 25.23A41.1 41.1 0 0 1 74.02 314c-10-10.4-9.7-26.86.78-36.78a26.27 26.27 0 0 1 25.82-6.07c2.33.58 4.66 1.35 6.89 2.31 11.26 5.4 17.08 14.35 17.76 25.23Z" fill="#000"/>
    <path d="M92.96 319.6c-12.27.3-23.38-9.94-23.67-22.56-.57-13 9.66-24 22.8-24.47 13.13-.58 24.23 9.56 24.72 22.56.48 13-9.66 24-22.8 24.48h-1.05Zm24.72-14.62c1.25.29 1.74 1.05 2.6 1.34 1.45.57 1.26 1.43.78 2.48-1.64 3.73-1.16 3.25-4.45 1.06-.57-.3-.86-.96-.57-1.54 0-.09.1-.19.19-.28.48-.86.96-1.91 1.45-3.06Zm4.25-.38c-3.67-1.72-3.67-1.72-2.8-6.22 3.95 1.34 4.25 3.06 2.8 6.22Zm-9.27 8.98a6.37 6.37 0 0 1 1.83-2.39c.87.39 1.74.86 2.42 1.53.86.48 1.15 1.63.57 2.49-.29.38-.58.67-1.06.76-.48.2-.87-.1-1.16-.38-.87-.57-1.73-1.34-2.6-2Zm9.56-16.63c-2.32-.58-3.48-1.91-3.29-4.2.1-.77-.48-1.54-.19-2.3 2.6.67 3.28 1.9 3.48 6.5Zm-13.52 19.98c.38-.38.86-.67 1.25-1.05.77-.86 1.45-.77 2.22 0 .3.29.68.57.97.86.29.29 1.45.67.77 1.62-.48.96-1.64 1.25-2.6.77-.1-.1-.2-.1-.3-.2-.67-.57-1.35-1.24-2.31-2Zm-4.74 2.87c3.1-2 3.1-2 5.7 1.05-3.19 2-2.9 1.53-5.7-1.05Zm-5.3 1.72c2.02-1.15 3.66-.86 4.92 1.24-2.7 1.15-3.28.96-4.93-1.24Zm18.15-37.67 1.74 2.3a2 2 0 0 1 .48 1.24c-.77.38-1.35 0-1.64-.67-.48-.96-.87-1.91-1.26-2.87.1-.2.39-.29.58-.1l.1.1Zm-24.05 38.63c2.32-.67 2.32-.67 3.38.66a8.2 8.2 0 0 1-3.38-.66Zm22.21-40.26c-.29-.28-.87-.57-.38-.86.48-.28.87.39 1.06.86-.1.2-.39.3-.58.2 0-.1-.1-.1-.1-.2Z" fill="#FFD574"/>
    <path d="M85.6 300.18a28.22 28.22 0 0 1-3.32-2.5 5.15 5.15 0 0 1-1.52-2.7c-.28-2.13 1.24-3.34 3.23-2.5.57.18 1.05.65 1.05 1.3-.1.83-.67.93-1.33.83-.29 0-.48-.1-.67.47a6.66 6.66 0 0 0 3.33 2.87c.47.28 1.04.19 1.42-.28.38-.37.67-.83 1.05-1.2 2.18-2.7 2.18-2.7.47-5.66-.57-.83-.95-1.86-1.33-2.78-.85-2.88.76-4.83 3.8-4.73 1.43 0 2.85.18 4.18.74 1.05.46 1.9.74 2.66-.56.38-.55 1.05-1.11 1.8-.46.48.46.58 1.2.1 1.67l-.19.18c-1.04 1.02-.47 1.77.29 2.6a6.45 6.45 0 0 1 1.7 3.15c.3 1.86-1.13 3.25-2.75 2.7-.76-.28-1.52-.75-1.42-1.68.1-.92.95-.92 1.61-1.02 0-.55-.28-1.02-.66-1.39-.29-.37-.57-.65-.95-1.11-1.62 1.4-2.47 3.15-3.7 4.64-.58.65-.2 1.3.18 1.85a7.01 7.01 0 0 1 1.33 3.62c0 2.5-1.23 3.7-3.7 3.62a9.32 9.32 0 0 1-3.14-.56c-.85-.46-1.8-.1-2.28.65a20.5 20.5 0 0 1-1.9 2.13c-.38.37-.95.37-1.33.1l-.1-.1c-.37-.28-.37-.83-.09-1.2.57-.75 1.33-1.58 2.19-2.7Z" fill="#020101"/>
    <path d="M92.8 291.57a11.65 11.65 0 0 1-2.5-4.54c-.28-1 .1-1.68 1.16-1.68a6.1 6.1 0 0 1 1.91 0c3.07.3 3.26.79 1.54 3.36-.67.89-1.25 1.77-2.11 2.86Zm-.29 4.45c.38.4.58.49.58.69.48 1.08 1.44 2.27.38 3.26-1.05.98-2.4.59-3.84-.3l2.88-3.65Z" fill="#FFD574"/>
    <rect x="146" y="275" width="137" height="47" rx="9" fill="#FAE8D1"/>
    <path d="M181.67 292.67h-9.34c-.73 0-1.33.6-1.33 1.33v9.33c0 .74.6 1.34 1.33 1.34h9.34c.73 0 1.33-.6 1.33-1.34V294c0-.74-.6-1.33-1.33-1.33Zm-2-1.34V294m-5.34-2.67V294m-3.33 2.67h12" stroke="#000" stroke-width="1.5" stroke-linecap="round" stroke-linejoin="round"/>
    <path d="M200.25 294.48h-4.2v2.49h4.07v1.98h-4.08V303h-2.06v-10.5h6.27v1.98Zm3.45 2.31c.18-.48.47-.84.88-1.08.42-.24.89-.36 1.4-.36v2.16a2.3 2.3 0 0 0-1.6.36c-.45.31-.68.82-.68 1.55V303h-1.94v-7.5h1.94v1.29Zm4.47-2.19a1.18 1.18 0 0 1-1.18-1.19c0-.31.11-.6.34-.84a1.15 1.15 0 0 1 1.68.01 1.15 1.15 0 0 1 0 1.68c-.23.23-.51.34-.84.34Zm-.96 8.4v-7.5h1.94v7.5h-1.94Zm6.36-2.07-1.13 4.17h-1.57l.6-4.17h2.1Zm8.96-5.03c1.1.04 1.98.39 2.66 1.07a3.47 3.47 0 0 1 1.02 2.58c0 1.07-.36 1.95-1.07 2.64a3.8 3.8 0 0 1-2.74 1.02 3.8 3.8 0 0 1-2.75-1.02 3.52 3.52 0 0 1-1.05-2.64c0-.8.2-1.5.62-2.12l3.27-4.93h2.37l-2.33 3.4Zm-1.38 4.9c.33.3.75.46 1.25.46s.91-.15 1.24-.46c.34-.31.51-.73.51-1.25 0-.51-.17-.92-.5-1.23a1.75 1.75 0 0 0-1.25-.46c-.5 0-.92.15-1.25.46-.33.3-.5.71-.5 1.23s.17.94.5 1.25Zm17.07 2.2-.63-1.89h-4.18l-.63 1.89h-2.24l3.68-10.5h2.56l3.7 10.5h-2.26Zm-4.15-3.82h2.88l-1.44-4.3-1.44 4.3Zm12.3-3.68h1.94v7.5h-1.93v-.84c-.47.7-1.22 1.05-2.24 1.05-.82 0-1.5-.27-2.04-.82a3.15 3.15 0 0 1-.8-2.28v-4.61h1.94v4.37c0 .5.14.88.4 1.15.28.26.64.39 1.09.39.5 0 .9-.16 1.2-.47.3-.3.45-.77.45-1.39v-4.05Zm9.56 0h1.89v7.14c0 1.16-.38 2.05-1.15 2.66-.77.6-1.69.91-2.77.91-.8 0-1.52-.15-2.14-.46a3.26 3.26 0 0 1-1.41-1.37l1.65-.94c.38.7 1.03 1.05 1.97 1.05.6 0 1.09-.17 1.44-.49.34-.31.52-.77.52-1.36v-.81a2.83 2.83 0 0 1-2.4 1.14 3.58 3.58 0 0 1-2.67-1.11 3.83 3.83 0 0 1-1.07-2.73 3.78 3.78 0 0 1 3.74-3.84c1.03 0 1.83.38 2.4 1.14v-.93Zm-3.62 5.12c.4.38.91.56 1.52.56s1.11-.19 1.5-.56c.4-.4.6-.89.6-1.49a2.03 2.03 0 0 0-2.1-2.04c-.61 0-1.12.2-1.52.58-.38.38-.58.87-.58 1.46 0 .6.2 1.1.59 1.49Z" fill="#000"/>
  </g>
  <rect x="40" y="237" width="272" height="118" rx="59" stroke="#000" stroke-width="2"/>
  <defs>
    <clipPath id="a">
      <rect x="231" y="52" width="274" height="120" rx="60" fill="#fff"/>
    </clipPath>
    <clipPath id="e">
      <rect x="262.96" y="69" width="48" height="48" rx="24" fill="#fff"/>
    </clipPath>
    <clipPath id="f">
      <rect x="231" y="420" width="274" height="120" rx="60" fill="#fff"/>
    </clipPath>
    <clipPath id="g">
      <rect x="280" y="440" width="81" height="80" rx="40" fill="#fff"/>
    </clipPath>
    <clipPath id="i">
      <rect x="377" y="441" width="79" height="78" rx="39" fill="#fff"/>
    </clipPath>
    <clipPath id="k">
      <rect x="39" y="236" width="274" height="120" rx="60" fill="#fff"/>
    </clipPath>
    <linearGradient id="c" x1="287" y1="69" x2="287" y2="117" gradientUnits="userSpaceOnUse">
      <stop stop-color="#D5A3AC"/>
      <stop offset="1" stop-color="#C28187"/>
    </linearGradient>
    <linearGradient id="h" x1="308" y1="382" x2="308" y2="554" gradientUnits="userSpaceOnUse">
      <stop stop-color="#D5A3AC"/>
      <stop offset="1" stop-color="#C28187"/>
    </linearGradient>
    <linearGradient id="j" x1="405" y1="374" x2="405" y2="564" gradientUnits="userSpaceOnUse">
      <stop stop-color="#A3D2D5"/>
      <stop offset="1" stop-color="#81B2C2"/>
    </linearGradient>
    <radialGradient id="b" cx="0" cy="0" r="1" gradientUnits="userSpaceOnUse" gradientTransform="rotate(54.12 52.47 327.42) scale(31.2354)">
      <stop stop-color="#0C76E6"/>
      <stop offset="1" stop-color="#0C76E6" stop-opacity="0"/>
    </radialGradient>
    <filter id="d" x="259.08" y="68.35" width="55.76" height="55.76" filterUnits="userSpaceOnUse" color-interpolation-filters="sRGB">
      <feFlood flood-opacity="0" result="BackgroundImageFix"/>
      <feColorMatrix in="SourceAlpha" values="0 0 0 0 0 0 0 0 0 0 0 0 0 0 0 0 0 0 127 0" result="hardAlpha"/>
      <feMorphology radius=".65" in="SourceAlpha" result="effect1_dropShadow_7688_7966"/>
      <feOffset dy="1.29"/>
      <feGaussianBlur stdDeviation=".97"/>
      <feColorMatrix values="0 0 0 0 0 0 0 0 0 0 0 0 0 0 0 0 0 0 0.05 0"/>
      <feBlend in2="BackgroundImageFix" result="effect1_dropShadow_7688_7966"/>
      <feColorMatrix in="SourceAlpha" values="0 0 0 0 0 0 0 0 0 0 0 0 0 0 0 0 0 0 127 0" result="hardAlpha"/>
      <feMorphology radius=".97" in="SourceAlpha" result="effect2_dropShadow_7688_7966"/>
      <feOffset dy="3.24"/>
      <feGaussianBlur stdDeviation="2.43"/>
      <feColorMatrix values="0 0 0 0 0 0 0 0 0 0 0 0 0 0 0 0 0 0 0.1 0"/>
      <feBlend in2="effect1_dropShadow_7688_7966" result="effect2_dropShadow_7688_7966"/>
      <feBlend in="SourceGraphic" in2="effect2_dropShadow_7688_7966" result="shape"/>
    </filter>
  </defs>
</svg>
