<svg width="16" height="18" viewBox="0 0 16 18" fill="none" xmlns="http://www.w3.org/2000/svg">
<path d="M13.6328 15.2909H11.2621V11.3163C11.2621 10.3685 11.2463 9.14845 10.0291 9.14845C8.79431 9.14845 8.6054 10.1811 8.6054 11.2473V15.2907H6.23468V7.11726H8.51056V8.23425H8.54242C8.77018 7.81734 9.09931 7.47437 9.49473 7.24187C9.89016 7.00937 10.3371 6.89604 10.7879 6.91396C13.1907 6.91396 13.6338 8.60596 13.6338 10.8071L13.6328 15.2909ZM3.55975 6.00002C3.28765 6.00007 3.02165 5.91374 2.79538 5.75195C2.56911 5.59015 2.39275 5.36016 2.28858 5.09106C2.18441 4.82195 2.15711 4.52582 2.21014 4.24011C2.26318 3.9544 2.39417 3.69194 2.58653 3.48592C2.7789 3.27991 3.02401 3.13959 3.29087 3.08271C3.55773 3.02583 3.83435 3.05494 4.08575 3.16637C4.33715 3.27779 4.55205 3.46653 4.70326 3.7087C4.85447 3.95088 4.9352 4.23562 4.93525 4.52692C4.93529 4.72034 4.89973 4.91186 4.83062 5.09057C4.76151 5.26927 4.66021 5.43166 4.53249 5.56845C4.40476 5.70524 4.2531 5.81375 4.0862 5.8878C3.9193 5.96185 3.74042 5.99998 3.55975 6.00002ZM4.7451 15.2909H2.37193V7.11726H4.7451V15.2909ZM14.8147 0.697456H1.18066C0.871207 0.693717 0.573012 0.821658 0.351627 1.05316C0.130241 1.28467 0.00377671 1.6008 0 1.93208V16.5887C0.00364745 16.9202 0.130038 17.2365 0.351416 17.4683C0.572793 17.7 0.871053 17.8282 1.18066 17.8247H14.8147C15.1249 17.8289 15.424 17.701 15.6462 17.4693C15.8685 17.2376 15.9957 16.9209 16 16.5887V1.93103C15.9956 1.59908 15.8683 1.28259 15.646 1.05109C15.4237 0.819595 15.1247 0.69202 14.8147 0.696398" fill="white"/>
</svg>
