<svg width="26" height="24" viewBox="0 0 26 24" fill="none" xmlns="http://www.w3.org/2000/svg">
<path d="M0.8125 15.0879C1.02799 15.0879 1.23465 15.1735 1.38702 15.3259C1.5394 15.4782 1.625 15.6849 1.625 15.9004V19.9629C1.625 20.3939 1.7962 20.8072 2.10095 21.1119C2.4057 21.4167 2.81902 21.5879 3.25 21.5879H22.75C23.181 21.5879 23.5943 21.4167 23.899 21.1119C24.2038 20.8072 24.375 20.3939 24.375 19.9629V15.9004C24.375 15.6849 24.4606 15.4782 24.613 15.3259C24.7653 15.1735 24.972 15.0879 25.1875 15.0879C25.403 15.0879 25.6097 15.1735 25.762 15.3259C25.9144 15.4782 26 15.6849 26 15.9004V19.9629C26 20.8248 25.6576 21.6515 25.0481 22.261C24.4386 22.8705 23.612 23.2129 22.75 23.2129H3.25C2.38805 23.2129 1.5614 22.8705 0.951903 22.261C0.34241 21.6515 0 20.8248 0 19.9629V15.9004C0 15.6849 0.0856024 15.4782 0.237976 15.3259C0.390349 15.1735 0.597012 15.0879 0.8125 15.0879Z" fill="#2D2A2E"/>
<path d="M12.4248 0.863702C12.5003 0.788037 12.5899 0.728005 12.6886 0.687045C12.7874 0.646084 12.8932 0.625 13.0001 0.625C13.1069 0.625 13.2127 0.646084 13.3115 0.687045C13.4102 0.728005 13.4998 0.788037 13.5753 0.863702L18.4503 5.7387C18.6029 5.89127 18.6886 6.09819 18.6886 6.31395C18.6886 6.52971 18.6029 6.73664 18.4503 6.8892C18.2977 7.04177 18.0908 7.12748 17.8751 7.12748C17.6593 7.12748 17.4524 7.04177 17.2998 6.8892L13.8126 3.40033V17.689C13.8126 17.9044 13.7269 18.1111 13.5746 18.2635C13.4222 18.4158 13.2155 18.5015 13.0001 18.5015C12.7846 18.5015 12.5779 18.4158 12.4255 18.2635C12.2732 18.1111 12.1876 17.9044 12.1876 17.689V3.40033L8.7003 6.8892C8.62476 6.96475 8.53508 7.02467 8.43637 7.06555C8.33767 7.10644 8.23188 7.12748 8.12505 7.12748C8.01822 7.12748 7.91243 7.10644 7.81373 7.06555C7.71503 7.02467 7.62534 6.96475 7.5498 6.8892C7.47426 6.81366 7.41433 6.72398 7.37345 6.62528C7.33257 6.52657 7.31152 6.42079 7.31152 6.31395C7.31152 6.20712 7.33257 6.10133 7.37345 6.00263C7.41433 5.90393 7.47426 5.81425 7.5498 5.7387L12.4248 0.863702Z" fill="#2D2A2E"/>
</svg>
