<svg width="24" height="25" viewBox="0 0 24 25" fill="none" xmlns="http://www.w3.org/2000/svg">
<path d="M20.4481 21.2049H16.8921V15.6541C16.8921 14.3304 16.8684 12.6265 15.0426 12.6265C13.1905 12.6265 12.9071 14.0687 12.9071 15.5577V21.2045H9.35115V9.78983H12.7649V11.3498H12.8127C13.1543 10.7675 13.648 10.2885 14.2411 9.96383C14.8343 9.63912 15.5047 9.48084 16.1809 9.50585C19.7851 9.50585 20.4496 11.8689 20.4496 14.943L20.4481 21.2049ZM5.33865 8.2296C4.19893 8.22979 3.27484 7.30899 3.27465 6.173C3.27446 5.03701 4.19818 4.11593 5.3379 4.11575C6.47762 4.11546 7.40171 5.03626 7.4019 6.17225C7.402 6.71778 7.18468 7.241 6.79775 7.62683C6.41082 8.01265 5.88596 8.22948 5.33865 8.2296ZM7.11671 21.205H3.55693V9.78983H7.11662V21.2049L7.11671 21.205ZM22.221 0.824007H1.77005C0.803492 0.813167 0.0108359 1.58492 -0.000976562 2.54832V23.0174C0.0104609 23.9813 0.803023 24.7538 1.76996 24.7437H22.221C23.19 24.7557 23.9856 23.9832 23.999 23.0174V2.54673C23.9852 1.58146 23.1895 0.809803 22.221 0.822418" fill="#0A66C2"/>
</svg>
