<svg width="16" height="16" viewBox="0 0 16 16" fill="none" xmlns="http://www.w3.org/2000/svg">
<path d="M13.359 11.238C15.06 9.72 16 8 16 8C16 8 13 2.5 8 2.5C7.03959 2.50331 6.09005 2.70342 5.21 3.088L5.98 3.859C6.62743 3.62315 7.31095 3.50168 8 3.5C10.12 3.5 11.879 4.668 13.168 5.957C13.7884 6.58069 14.3445 7.26513 14.828 8C14.77 8.087 14.706 8.183 14.633 8.288C14.298 8.768 13.803 9.408 13.168 10.043C13.003 10.208 12.831 10.371 12.651 10.529L13.359 11.238Z" fill="#767477"/>
<path d="M11.297 9.17635C11.5202 8.5522 11.5615 7.8775 11.4162 7.23077C11.2709 6.58405 10.9449 5.99188 10.4762 5.52317C10.0075 5.05447 9.41531 4.72849 8.76858 4.58318C8.12185 4.43787 7.44716 4.4792 6.823 4.70235L7.646 5.52535C8.03031 5.47035 8.42215 5.5056 8.79047 5.62832C9.15879 5.75104 9.49347 5.95785 9.76799 6.23237C10.0425 6.50688 10.2493 6.84156 10.372 7.20988C10.4948 7.5782 10.53 7.97004 10.475 8.35435L11.297 9.17635ZM8.354 10.4754L9.176 11.2974C8.55184 11.5205 7.87715 11.5618 7.23042 11.4165C6.58369 11.2712 5.99153 10.9452 5.52282 10.4765C5.05411 10.0078 4.72814 9.41566 4.58283 8.76893C4.43752 8.12221 4.47885 7.44751 4.702 6.82335L5.525 7.64635C5.46999 8.03066 5.50524 8.4225 5.62796 8.79083C5.75068 9.15915 5.95749 9.49383 6.23201 9.76834C6.50653 10.0429 6.84121 10.2497 7.20953 10.3724C7.57785 10.4951 7.96969 10.5304 8.354 10.4754V10.4754Z" fill="#767477"/>
<path d="M3.35 5.47048C3.17 5.63048 2.997 5.79248 2.832 5.95748C2.21165 6.58117 1.65552 7.26561 1.172 8.00048L1.367 8.28848C1.702 8.76848 2.197 9.40848 2.832 10.0435C4.121 11.3325 5.881 12.5005 8 12.5005C8.716 12.5005 9.39 12.3675 10.02 12.1405L10.79 12.9125C9.90994 13.297 8.9604 13.4971 8 13.5005C3 13.5005 0 8.00048 0 8.00048C0 8.00048 0.939 6.27948 2.641 4.76248L3.349 5.47148L3.35 5.47048ZM13.646 14.3545L1.646 2.35448L2.354 1.64648L14.354 13.6465L13.646 14.3545Z" fill="#767477"/>
</svg>
