<svg width="24" height="22" viewBox="0 0 24 22" fill="none" xmlns="http://www.w3.org/2000/svg">
<path d="M3.6 13.2057V15.8469C3.6096 17.7036 4.4064 17.4151 4.9968 16.8578L8.4 13.4765V15.1866C8.4 16.7911 8.736 17.1675 10.2 17.1675H15.6C15.6 17.1675 18.7254 21.2117 18.75 21.1846C19.2 21.7895 20.4186 21.5835 20.4 20.4689V17.1675H22.2C23.67 17.1675 24 16.7653 24 15.1866V5.28229C24 3.69761 23.646 3.30143 22.2 3.30143H16.2V1.98086C16.2 0.349952 15.924 0 14.4 0H1.8C0.384 0 0 0.336746 0 1.98086V10.5646C0 12.175 0.33 13.2057 1.8 13.2057H3.6ZM18.6 15.1866V18.3038L16.2 15.1866H10.8C10.35 15.1866 10.2 15.0083 10.2 14.5263V5.94258C10.2 5.50019 10.386 5.28229 10.8 5.28229H21.6C22.0134 5.28229 22.2 5.5266 22.2 5.90296V14.5263C22.2 15.0024 21.9846 15.1866 21.6 15.1866H18.6Z" fill="#767477"/>
</svg>
