<svg width="30" height="30" viewBox="0 0 30 30" fill="none" xmlns="http://www.w3.org/2000/svg">
<g clip-path="url(#clip0_1211:4458)">
<path d="M22.8948 7.10547H7.10547V22.8948H22.8948V7.10547Z" fill="white"/>
<path d="M22.895 30.0005L30.0003 22.8952L26.4476 22.2891L22.895 22.8952L22.2466 26.1448L22.895 30.0005Z" fill="#EA4335"/>
<path d="M0 22.8952V27.632C0 28.9406 1.05984 30.0005 2.36836 30.0005H7.10531L7.8348 26.4478L7.10531 22.8952L3.23426 22.2891L0 22.8952Z" fill="#188038"/>
<path d="M30.0003 7.10531V2.36836C30.0003 1.05984 28.9404 0 27.6319 0H22.895C22.4628 1.76203 22.2466 3.05871 22.2466 3.89016C22.2466 4.72148 22.4628 5.79328 22.895 7.10531C24.4665 7.55531 25.6506 7.78031 26.4476 7.78031C27.2446 7.78031 28.4288 7.55531 30.0003 7.10531Z" fill="#1967D2"/>
<path d="M29.9998 7.10547H22.8945V22.8948H29.9998V7.10547Z" fill="#FBBC04"/>
<path d="M22.8948 22.8945H7.10547V29.9998H22.8948V22.8945Z" fill="#34A853"/>
<path d="M22.8947 0H2.36848C1.05984 0 0 1.05984 0 2.36836V22.8947H7.10531V7.10531H22.8947V0Z" fill="#4285F4"/>
<path d="M10.3444 19.3536C9.7542 18.955 9.34557 18.3728 9.12256 17.6029L10.4924 17.0385C10.6166 17.5121 10.8337 17.8793 11.1437 18.1398C11.4515 18.4003 11.8265 18.5286 12.2647 18.5286C12.7127 18.5286 13.0976 18.3925 13.4192 18.12C13.741 17.8477 13.9029 17.5003 13.9029 17.08C13.9029 16.6496 13.7331 16.2983 13.3937 16.026C13.0542 15.7536 12.6279 15.6175 12.1187 15.6175H11.3272V14.2616H12.0377C12.4759 14.2616 12.8449 14.1431 13.1449 13.9062C13.4449 13.6695 13.5949 13.3457 13.5949 12.9332C13.5949 12.5661 13.4607 12.274 13.1924 12.055C12.924 11.8358 12.5844 11.7253 12.1719 11.7253C11.7692 11.7253 11.4496 11.832 11.2127 12.047C10.976 12.2627 10.7981 12.5351 10.6956 12.8385L9.33971 12.274C9.51924 11.7648 9.84889 11.3148 10.3324 10.926C10.816 10.5371 11.4337 10.3418 12.1837 10.3418C12.7384 10.3418 13.2377 10.4484 13.6799 10.6635C14.1219 10.8786 14.4692 11.1766 14.7199 11.5556C14.9707 11.9365 15.0949 12.3628 15.0949 12.8365C15.0949 13.32 14.9785 13.7286 14.7457 14.0641C14.5127 14.3996 14.2265 14.6562 13.8871 14.8358V14.9167C14.3254 15.0974 14.7062 15.3943 14.9884 15.7753C15.2746 16.1602 15.4187 16.62 15.4187 17.157C15.4187 17.6937 15.2824 18.1733 15.0101 18.5937C14.7377 19.0141 14.3608 19.3457 13.8831 19.5865C13.4035 19.8273 12.8647 19.9498 12.2667 19.9498C11.5739 19.9516 10.9344 19.7523 10.3442 19.3536H10.3444ZM18.7581 12.5562L17.2542 13.6437L16.5022 12.503L19.2002 10.5568H20.2344V19.7365H18.7581V12.5563V12.5562Z" fill="#4285F4"/>
</g>
<defs>
<clipPath id="clip0_1211:4458">
<rect width="30" height="30" fill="white"/>
</clipPath>
</defs>
</svg>
