<svg width="24" height="24" viewBox="0 0 32 32" fill="none" xmlns="http://www.w3.org/2000/svg">
<path d="M14.6663 24.0001H18.6663C19.3997 24.0001 19.9997 23.4001 19.9997 22.6667V17.3334C19.9997 16.6001 19.3997 16.0001 18.6663 16.0001H14.6663C13.933 16.0001 13.333 16.6001 13.333 17.3334V22.6667C13.333 23.4001 13.933 24.0001 14.6663 24.0001ZM6.66634 24.0001H10.6663C11.3997 24.0001 11.9997 23.4001 11.9997 22.6667V8.00008C11.9997 7.26675 11.3997 6.66675 10.6663 6.66675H6.66634C5.93301 6.66675 5.33301 7.26675 5.33301 8.00008V22.6667C5.33301 23.4001 5.93301 24.0001 6.66634 24.0001ZM22.6663 24.0001H26.6663C27.3997 24.0001 27.9997 23.4001 27.9997 22.6667V17.3334C27.9997 16.6001 27.3997 16.0001 26.6663 16.0001H22.6663C21.933 16.0001 21.333 16.6001 21.333 17.3334V22.6667C21.333 23.4001 21.933 24.0001 22.6663 24.0001ZM13.333 8.00008V13.3334C13.333 14.0667 13.933 14.6667 14.6663 14.6667H26.6663C27.3997 14.6667 27.9997 14.0667 27.9997 13.3334V8.00008C27.9997 7.26675 27.3997 6.66675 26.6663 6.66675H14.6663C13.933 6.66675 13.333 7.26675 13.333 8.00008Z" fill="#2D2A2E"/>
</svg>
