<svg width="30" height="30" viewBox="0 0 30 30" fill="none" xmlns="http://www.w3.org/2000/svg">
<g clip-path="url(#clip0)">
<path d="M6.58255 12.2063C7.1674 10.4368 8.29612 8.89726 9.80769 7.80725C11.3193 6.71723 13.1365 6.13242 15.0001 6.13625C17.1126 6.13625 19.0226 6.88625 20.5226 8.11375L24.8876 3.75C22.2276 1.43125 18.8188 0 15.0001 0C9.08755 0 3.99755 3.3725 1.55005 8.3125L6.58255 12.2063Z" fill="#EA4335"/>
<path d="M20.0499 22.5162C18.6874 23.395 16.9574 23.8637 14.9999 23.8637C13.1437 23.8675 11.3334 23.2874 9.82519 22.2054C8.31698 21.1234 7.18732 19.5945 6.59614 17.835L1.54614 21.6687C2.7852 24.1766 4.70273 26.2867 7.08092 27.7594C9.45911 29.2321 12.2026 30.0083 14.9999 30C18.6661 30 22.1686 28.6962 24.7924 26.25L20.0511 22.5162H20.0499Z" fill="#34A853"/>
<path d="M24.7925 26.25C27.5362 23.69 29.3175 19.88 29.3175 15C29.3175 14.1125 29.1812 13.1587 28.9775 12.2725H15V18.0687H23.045C22.6488 20.0175 21.5825 21.5262 20.0512 22.5162L24.7925 26.25Z" fill="#4A90E2"/>
<path d="M6.59627 17.835C6.29047 16.9211 6.13511 15.9637 6.13627 15C6.13627 14.0225 6.29252 13.0838 6.58252 12.2063L1.55002 8.3125C0.520496 10.3909 -0.010222 12.6806 2.34979e-05 15C2.34979e-05 17.4 0.556274 19.6625 1.54627 21.6688L6.59627 17.835Z" fill="#FBBC05"/>
</g>
<defs>
<clipPath id="clip0">
<rect width="30" height="30" fill="white"/>
</clipPath>
</defs>
</svg>
