<svg width="24" height="24" viewBox="0 0 24 24" fill="none" xmlns="http://www.w3.org/2000/svg">
<path d="M12 16.5C11.11 16.5 10.24 16.2361 9.49994 15.7416C8.75991 15.2471 8.18314 14.5443 7.84254 13.7221C7.50195 12.8998 7.41283 11.995 7.58647 11.1221C7.7601 10.2492 8.18868 9.44736 8.81802 8.81802C9.44736 8.18868 10.2492 7.7601 11.1221 7.58647C11.995 7.41283 12.8998 7.50195 13.7221 7.84254C14.5443 8.18314 15.2471 8.75991 15.7416 9.49994C16.2361 10.24 16.5 11.11 16.5 12C16.5064 12.5927 16.3944 13.1808 16.1705 13.7297C15.9467 14.2785 15.6155 14.7772 15.1963 15.1963C14.7772 15.6155 14.2785 15.9467 13.7297 16.1705C13.1808 16.3944 12.5927 16.5064 12 16.5ZM12 9C11.6036 8.99098 11.2094 9.06241 10.8414 9.20998C10.4733 9.35755 10.139 9.5782 9.85859 9.85859C9.5782 10.139 9.35755 10.4733 9.20998 10.8414C9.06241 11.2094 8.99098 11.6036 9 12C8.99098 12.3964 9.06241 12.7906 9.20998 13.1586C9.35755 13.5267 9.5782 13.861 9.85859 14.1414C10.139 14.4218 10.4733 14.6425 10.8414 14.79C11.2094 14.9376 11.6036 15.009 12 15C12.3964 15.009 12.7906 14.9376 13.1586 14.79C13.5267 14.6425 13.861 14.4218 14.1414 14.1414C14.4218 13.861 14.6425 13.5267 14.79 13.1586C14.9376 12.7906 15.009 12.3964 15 12C15.009 11.6036 14.9376 11.2094 14.79 10.8414C14.6425 10.4733 14.4218 10.139 14.1414 9.85859C13.861 9.5782 13.5267 9.35755 13.1586 9.20998C12.7906 9.06241 12.3964 8.99098 12 9Z" fill="#767477"/>
<path d="M21.9784 8.283L20.2084 5.217C20.0351 4.91639 19.7629 4.68521 19.4382 4.56293C19.1135 4.44065 18.7564 4.43485 18.4279 4.5465L16.6024 5.16375C16.2878 4.95194 15.959 4.762 15.6184 4.59525L15.2411 2.706C15.1731 2.36583 14.9894 2.05975 14.7211 1.83985C14.4528 1.61996 14.1165 1.49986 13.7696 1.5H10.2296C9.88274 1.49986 9.54652 1.61996 9.27822 1.83985C9.00992 2.05975 8.82613 2.36583 8.75814 2.706L8.38089 4.59525C8.03643 4.76017 7.70387 4.94887 7.38563 5.16L5.57064 4.5465C5.24232 4.43524 4.88558 4.44125 4.56119 4.56351C4.23681 4.68577 3.96484 4.91671 3.79164 5.217L2.02164 8.283C1.84824 8.58322 1.7842 8.93423 1.8404 9.27634C1.8966 9.61845 2.06956 9.93053 2.32989 10.1595L3.77814 11.4323C3.76539 11.6213 3.74964 11.8088 3.74964 12C3.74964 12.1935 3.75714 12.3848 3.77064 12.5745L2.33064 13.8405C2.07007 14.0693 1.89682 14.3813 1.84034 14.7234C1.78387 15.0655 1.84767 15.4166 2.02089 15.717L3.79089 18.783C3.96403 19.0837 4.2362 19.3151 4.56092 19.4375C4.88564 19.5599 5.24278 19.5658 5.57139 19.4542L7.39689 18.8362C7.71137 19.0485 8.04016 19.2387 8.38089 19.4055L8.75814 21.294C8.82613 21.6342 9.00992 21.9403 9.27822 22.1601C9.54652 22.38 9.88274 22.5001 10.2296 22.5H13.4996V21H10.2296L9.69714 18.3375C8.9605 18.0639 8.27669 17.665 7.67588 17.1585L5.09064 18.033L3.32064 14.967L5.36439 13.1708C5.22456 12.3952 5.22278 11.601 5.35914 10.8247L3.32064 9.033L5.09064 5.967L7.66089 6.837C8.26598 6.3298 8.95511 5.93231 9.69714 5.6625L10.2296 3H13.7696L14.3021 5.6625C15.0387 5.93618 15.7225 6.33505 16.3234 6.8415L18.9086 5.967L20.6786 9.033L18.5801 10.872L19.5686 12L21.6686 10.1595C21.9292 9.93072 22.1025 9.61873 22.1589 9.27662C22.2154 8.9345 22.1516 8.58338 21.9784 8.283V8.283Z" fill="#767477"/>
<path d="M17.25 19.6349L15.3075 17.6924L14.25 18.7499L17.25 21.7499L22.5 16.4999L21.4425 15.4424L17.25 19.6349Z" fill="#767477"/>
</svg>
