<svg width="16" height="16" viewBox="0 0 16 16" fill="none" xmlns="http://www.w3.org/2000/svg">
<path d="M15.0534 3.70254L12.4445 1.08032C12.2721 0.90879 12.0388 0.8125 11.7956 0.8125C11.5524 0.8125 11.3191 0.90879 11.1467 1.08032L1.8978 10.3159L1.05336 13.9603C1.02423 14.0935 1.02523 14.2316 1.05628 14.3644C1.08734 14.4972 1.14766 14.6213 1.23285 14.7278C1.31804 14.8343 1.42595 14.9204 1.54868 14.9799C1.67141 15.0393 1.80588 15.0706 1.94225 15.0714C2.00579 15.0778 2.06982 15.0778 2.13336 15.0714L5.8178 14.227L15.0534 5.00032C15.2249 4.82792 15.3212 4.59462 15.3212 4.35143C15.3212 4.10824 15.2249 3.87494 15.0534 3.70254ZM5.37336 13.427L1.92003 14.1514L2.70669 10.7648L9.62669 3.87143L12.2934 6.53809L5.37336 13.427ZM12.8889 5.89365L10.2222 3.22698L11.7689 1.68921L14.3911 4.35587L12.8889 5.89365Z" fill="#2D2A2E"/>
</svg>
