<svg width="40" height="40" viewBox="0 0 40 40" fill="none" xmlns="http://www.w3.org/2000/svg">
<path d="M20.0362 0.149963C9.01242 0.149963 0.0732422 9.23988 0.0732422 20.4538C0.0732422 29.4246 5.79324 37.0355 13.7251 39.7203C14.7228 39.9082 15.0891 39.2798 15.0891 38.7435C15.0891 38.2594 15.0706 36.6599 15.062 34.9633C9.50828 36.1916 8.33638 32.5677 8.33638 32.5677C7.42828 30.2208 6.11985 29.5968 6.11985 29.5968C4.30861 28.3366 6.25638 28.3625 6.25638 28.3625C8.26101 28.5054 9.31655 30.4549 9.31655 30.4549C11.097 33.5589 13.9866 32.6615 15.1258 32.1427C15.305 30.8308 15.8223 29.9344 16.3932 29.4277C11.9592 28.9143 7.29804 27.1733 7.29804 19.3933C7.29804 17.1765 8.07787 15.3653 9.3549 13.9434C9.14762 13.4316 8.46432 11.3669 9.54828 8.57012C9.54828 8.57012 11.2246 8.02442 15.0395 10.6514C16.6319 10.2015 18.3397 9.97589 20.0362 9.96815C21.7327 9.97589 23.4418 10.2015 25.0372 10.6514C28.8475 8.02442 30.5215 8.57012 30.5215 8.57012C31.6081 11.3669 30.9245 13.4316 30.7172 13.9434C31.9972 15.3653 32.7718 17.1765 32.7718 19.3933C32.7718 27.1918 28.1017 28.9089 23.6564 29.4115C24.3724 30.0416 25.0104 31.2773 25.0104 33.1716C25.0104 35.888 24.9873 38.0744 24.9873 38.7435C24.9873 39.2839 25.3466 39.917 26.3585 39.7176C34.2861 37.0298 39.9989 29.4216 39.9989 20.4538C39.9989 9.23988 31.061 0.149963 20.0362 0.149963" fill="black"/>
<path d="M7.63424 29.3019C7.59028 29.4031 7.43424 29.4331 7.2921 29.3638C7.1473 29.2976 7.06598 29.16 7.11292 29.0588C7.1559 28.9549 7.31226 28.9264 7.45672 28.9953C7.60185 29.0619 7.68449 29.2007 7.63424 29.3019" fill="black"/>
<path d="M8.44282 30.2191C8.34762 30.3089 8.1615 30.2672 8.03522 30.1253C7.90464 29.9838 7.88018 29.7945 7.97671 29.7034C8.07489 29.6136 8.25539 29.6556 8.3863 29.7972C8.51687 29.9404 8.54233 30.1284 8.44282 30.2191" fill="black"/>
<path d="M9.22974 31.3886C9.10743 31.475 8.90743 31.3939 8.78379 31.2134C8.66148 31.0328 8.66148 30.8163 8.78644 30.7295C8.9104 30.6428 9.10743 30.7208 9.23272 30.9C9.3547 31.0833 9.3547 31.3001 9.22974 31.3886" fill="black"/>
<path d="M10.3085 32.5183C10.199 32.641 9.96598 32.6081 9.7954 32.4406C9.62086 32.2769 9.57226 32.0445 9.68201 31.9218C9.79276 31.7987 10.0271 31.8334 10.199 31.9995C10.3723 32.1629 10.4252 32.3969 10.3085 32.5183" fill="black"/>
<path d="M11.796 33.1743C11.7477 33.3333 11.5233 33.4056 11.2971 33.338C11.0714 33.2684 10.9236 33.0821 10.9692 32.9214C11.0162 32.7614 11.2416 32.6861 11.4694 32.7584C11.6948 32.8276 11.8429 33.0125 11.796 33.1743" fill="black"/>
<path d="M13.4296 33.296C13.4352 33.4634 13.2435 33.6023 13.0062 33.605C12.7675 33.6107 12.5744 33.4752 12.5718 33.3104C12.5718 33.1413 12.7592 33.0038 12.9979 32.9998C13.2352 32.995 13.4296 33.1295 13.4296 33.296" fill="black"/>
<path d="M14.9498 33.0327C14.9782 33.1961 14.8132 33.3639 14.5775 33.4083C14.3458 33.4516 14.1313 33.3508 14.1018 33.1887C14.0731 33.0213 14.241 32.8535 14.4724 32.8101C14.7085 32.7684 14.9197 32.8666 14.9498 33.0327" fill="black"/>
</svg>
