<svg width="24" height="19" viewBox="0 0 24 19" fill="none" xmlns="http://www.w3.org/2000/svg">
<path d="M16.2849 13.2061C16.0575 13.2061 15.8395 13.3054 15.6788 13.4823C15.518 13.6592 15.4277 13.8991 15.4277 14.1493C15.4277 14.3995 15.518 14.6394 15.6788 14.8163C15.8395 14.9932 16.0575 15.0926 16.2849 15.0926H19.7134C19.9408 15.0926 20.1588 14.9932 20.3195 14.8163C20.4803 14.6394 20.5706 14.3995 20.5706 14.1493C20.5706 13.8991 20.4803 13.6592 20.3195 13.4823C20.1588 13.3054 19.9408 13.2061 19.7134 13.2061H16.2849Z" fill="#000"/>
<path d="M0 3.77307C0 2.77239 0.361223 1.81269 1.00421 1.10511C1.64719 0.397518 2.51926 0 3.42857 0H20.5714C21.4807 0 22.3528 0.397518 22.9958 1.10511C23.6388 1.81269 24 2.77239 24 3.77307V15.0923C24 16.093 23.6388 17.0526 22.9958 17.7602C22.3528 18.4678 21.4807 18.8653 20.5714 18.8653H3.42857C2.51926 18.8653 1.64719 18.4678 1.00421 17.7602C0.361223 17.0526 0 16.093 0 15.0923V3.77307ZM22.2857 3.77307C22.2857 3.27273 22.1051 2.79288 21.7836 2.43909C21.4621 2.08529 21.0261 1.88653 20.5714 1.88653H3.42857C2.97391 1.88653 2.53788 2.08529 2.21639 2.43909C1.8949 2.79288 1.71429 3.27273 1.71429 3.77307V5.6596H22.2857V3.77307ZM1.71429 15.0923C1.71429 15.5926 1.8949 16.0725 2.21639 16.4263C2.53788 16.78 2.97391 16.9788 3.42857 16.9788H20.5714C21.0261 16.9788 21.4621 16.78 21.7836 16.4263C22.1051 16.0725 22.2857 15.5926 22.2857 15.0923V7.54614H1.71429V15.0923Z" fill="#000"/>
</svg>
