<svg width="16" height="4" viewBox="0 0 16 4" fill="none" xmlns="http://www.w3.org/2000/svg">
<path d="M3.99949 1.95478C4.00551 2.22112 3.95826 2.48598 3.86052 2.73381C3.76277 2.98164 3.6165 3.20744 3.43029 3.39796C3.24407 3.58848 3.02167 3.73987 2.77614 3.84326C2.53062 3.94664 2.26691 3.99993 2.0005 4C1.73409 4.00007 1.47036 3.94691 1.22478 3.84365C0.979197 3.74038 0.756722 3.5891 0.570414 3.39867C0.384106 3.20825 0.23772 2.98252 0.13985 2.73474C0.0419801 2.48696 -0.00540084 2.22213 0.000488852 1.95578C0.0120444 1.43322 0.227713 0.93595 0.601328 0.570414C0.974942 0.204879 1.47681 0.000130768 1.9995 6.26167e-08C2.52219 -0.000130642 3.02416 0.204367 3.39796 0.569715C3.77175 0.935064 3.98767 1.43223 3.99949 1.95478Z" fill="#2D2A2E"/>
<path d="M9.99949 1.95478C10.0055 2.22112 9.95826 2.48598 9.86052 2.73381C9.76277 2.98164 9.6165 3.20744 9.43029 3.39796C9.24407 3.58848 9.02167 3.73987 8.77614 3.84326C8.53062 3.94664 8.26691 3.99993 8.0005 4C7.73409 4.00007 7.47036 3.94691 7.22478 3.84365C6.9792 3.74038 6.75672 3.5891 6.57041 3.39867C6.38411 3.20825 6.23772 2.98252 6.13985 2.73474C6.04198 2.48696 5.9946 2.22213 6.00049 1.95578C6.01204 1.43322 6.22771 0.93595 6.60133 0.570414C6.97494 0.204879 7.47681 0.000130768 7.9995 6.26167e-08C8.52219 -0.000130642 9.02416 0.204367 9.39796 0.569715C9.77175 0.935064 9.98767 1.43223 9.99949 1.95478V1.95478Z" fill="#2D2A2E"/>
<path d="M15.9995 1.95478C16.0055 2.22112 15.9583 2.48598 15.8605 2.73381C15.7628 2.98164 15.6165 3.20744 15.4303 3.39796C15.2441 3.58848 15.0217 3.73987 14.7761 3.84326C14.5306 3.94664 14.2669 3.99993 14.0005 4C13.7341 4.00007 13.4704 3.94691 13.2248 3.84365C12.9792 3.74038 12.7567 3.5891 12.5704 3.39867C12.3841 3.20825 12.2377 2.98252 12.1398 2.73474C12.042 2.48696 11.9946 2.22213 12.0005 1.95578C12.012 1.43322 12.2277 0.93595 12.6013 0.570414C12.9749 0.204879 13.4768 0.000130768 13.9995 6.26167e-08C14.5222 -0.000130642 15.0242 0.204367 15.398 0.569715C15.7718 0.935064 15.9877 1.43223 15.9995 1.95478V1.95478Z" fill="#2D2A2E"/>
</svg>
