<svg width="32" height="32" viewBox="0 0 32 32" fill="none" xmlns="http://www.w3.org/2000/svg">
<path d="M19.4844 7.9375V13.4145L21.4004 14.6195C21.4695 14.6347 21.5412 14.6347 21.6104 14.6195L29.8484 9.0655C29.8424 8.79595 29.7437 8.53668 29.5691 8.33127C29.3945 8.12585 29.1544 7.98681 28.8894 7.9375H19.4844Z" fill="#0072C6"/>
<path d="M19.4839 15.4573L21.2309 16.6573C21.3127 16.7071 21.4066 16.7335 21.5024 16.7335C21.5982 16.7335 21.6921 16.7071 21.7739 16.6573C21.4739 16.8383 29.8469 11.2793 29.8469 11.2793V21.3453C29.8687 21.5493 29.8458 21.7555 29.7795 21.9497C29.7133 22.1439 29.6055 22.3212 29.4635 22.4693C29.3216 22.6174 29.149 22.7327 28.9579 22.8072C28.7667 22.8816 28.5616 22.9134 28.3569 22.9003H19.4829V15.4573H19.4839Z" fill="#0072C6"/>
<path d="M10.44 12.9317C10.1498 12.9303 9.86454 13.0075 9.61455 13.155C9.36456 13.3025 9.15914 13.5149 9.02005 13.7697C8.64017 14.4451 8.45789 15.2137 8.49405 15.9877C8.45457 16.7601 8.6371 17.5277 9.02005 18.1997C9.15856 18.444 9.35892 18.6475 9.60101 18.7898C9.8431 18.9322 10.1184 19.0083 10.3992 19.0105C10.68 19.0127 10.9565 18.941 11.2008 18.8025C11.4451 18.6641 11.6487 18.4638 11.791 18.2217C12.1698 17.5528 12.3486 16.7892 12.306 16.0217C12.3494 15.2301 12.1766 14.4416 11.806 13.7407C11.6736 13.4942 11.4764 13.2886 11.2357 13.146C10.9949 13.0035 10.7198 12.9293 10.44 12.9317V12.9317Z" fill="#0072C6"/>
<path d="M2.15283 5.155V26.582L18.4528 30V2L2.15283 5.155ZM13.0608 19.491C12.7559 19.9209 12.3505 20.2696 11.8799 20.5068C11.4092 20.744 10.8877 20.8626 10.3608 20.852C9.84718 20.8611 9.33892 20.7461 8.87928 20.5166C8.41964 20.2871 8.02223 19.95 7.72083 19.534C7.00602 18.536 6.64844 17.3262 6.70583 16.1C6.64502 14.8136 7.00907 13.543 7.74183 12.484C8.0506 12.0459 8.4624 11.6906 8.94093 11.4492C9.41946 11.2078 9.95002 11.0879 10.4858 11.1C10.9958 11.0898 11.5004 11.2049 11.9555 11.4352C12.4106 11.6655 12.8021 12.004 13.0958 12.421C13.8035 13.4406 14.155 14.6653 14.0958 15.905C14.1582 17.182 13.7941 18.4436 13.0608 19.491Z" fill="#0072C6"/>
</svg>
