<svg width="24" height="24" viewBox="0 0 24 24" fill="none" xmlns="http://www.w3.org/2000/svg">
<path d="M7.19055 7.5H16.6531C16.7384 7.5 16.8219 7.52479 16.8934 7.57136C16.965 7.61793 17.0214 7.68427 17.0559 7.76232C17.0905 7.84038 17.1016 7.92678 17.0879 8.01102C17.0743 8.09527 17.0364 8.17374 16.979 8.23689L13.358 12.22C13.2843 12.3011 13.2434 12.4068 13.2434 12.5164V15.6347C13.2434 15.7072 13.2255 15.7786 13.1913 15.8425C13.1571 15.9065 13.1076 15.961 13.0473 16.0012L11.2851 17.176C11.2187 17.2202 11.1416 17.2456 11.062 17.2495C10.9823 17.2533 10.9031 17.2355 10.8328 17.1979C10.7625 17.1602 10.7037 17.1042 10.6628 17.0358C10.6218 16.9674 10.6002 16.8892 10.6002 16.8095V12.5164C10.6002 12.4068 10.5593 12.3011 10.4856 12.22L6.86457 8.23689C6.80716 8.17374 6.76933 8.09527 6.75567 8.01102C6.74202 7.92678 6.75313 7.84038 6.78766 7.76232C6.82219 7.68427 6.87864 7.61793 6.95017 7.57136C7.02169 7.52479 7.1052 7.5 7.19055 7.5V7.5Z" stroke="#2D2A2E" stroke-width="1.2" stroke-linecap="round" stroke-linejoin="round"/>
</svg>
