<svg width="64" height="64" viewBox="0 0 64 64" fill="none" xmlns="http://www.w3.org/2000/svg">
<circle cx="32" cy="32" r="32" fill="#C3FBFF"/>
<path d="M49 32C49 41.4 41.4 49 32 49C22.6 49 15 41.4 15 32C15 22.6 22.6 15 32 15C41.4 15 49 22.6 49 32Z" fill="white"/>
<path d="M29.0002 49.0001V43.5001C29.0002 43.2001 29.2002 43.0001 29.5002 43.0001C29.8002 43.0001 30.0002 43.2001 30.0002 43.5001V49.0001H32.0002V42.5001C32.0002 42.2001 32.2002 42.0001 32.5002 42.0001C32.8002 42.0001 33.0002 42.2001 33.0002 42.5001V49.0001H35.0002V43.5001C35.0002 43.2001 35.2002 43.0001 35.5002 43.0001C35.8002 43.0001 36.0002 43.2001 36.0002 43.5001V49.0001H37.8002C38.0002 48.7001 38.0002 48.4001 38.0002 47.9001V44.0001C38.0002 41.8001 36.1002 38.8001 33.7002 38.8001H31.2002C28.9002 38.8001 26.9002 41.9001 26.9002 44.0001V47.9001C26.9002 48.3001 27.0002 48.7001 27.1002 49.0001H29.0002ZM48.1002 34.4001C48.1002 34.4001 46.8002 34.0001 45.7002 34.0001H45.6002C44.5002 34.0001 42.7002 34.3001 42.7002 34.3001C42.6002 34.3001 42.6002 34.3001 42.6002 34.2001C42.6002 34.1001 42.6002 34.1001 42.7002 34.1001C42.8002 34.1001 44.7002 33.8001 45.8002 33.8001C46.9002 33.8001 48.2002 34.2001 48.3002 34.2001C48.4002 34.2001 48.4002 34.3001 48.4002 34.4001C48.2002 34.3001 48.2002 34.4001 48.1002 34.4001ZM47.8002 35.2001C47.8002 35.2001 46.4002 34.8001 45.2002 34.8001C44.3002 34.8001 42.2002 35.0001 42.1002 35.0001C42.0002 35.0001 42.0002 35.0001 42.0002 34.9001C42.0002 34.8001 42.0002 34.8001 42.1002 34.8001C42.2002 34.8001 44.3002 34.6001 45.2002 34.6001C46.5002 34.6001 47.8002 35.0001 47.8002 35.0001C47.9002 35.0001 47.9002 35.1001 47.9002 35.2001C47.9002 35.1001 47.9002 35.2001 47.8002 35.2001ZM15.8002 34.4001C15.7002 34.4001 15.7002 34.4001 15.7002 34.3001C15.7002 34.2001 15.7002 34.2001 15.8002 34.1001C16.6002 33.9001 18.2002 33.6001 19.1002 33.6001C19.9002 33.6001 22.6002 33.8001 22.7002 33.8001C22.8002 33.8001 22.8002 33.9001 22.8002 33.9001C22.8002 34.0001 22.7002 34.0001 22.7002 34.0001C22.7002 34.0001 20.0002 33.8001 19.2002 33.8001C18.1002 34.0001 16.6002 34.2001 15.8002 34.4001ZM16.2002 35.9001C16.2002 35.9001 16.1002 35.9001 16.1002 35.8001C16.1002 35.7001 16.1002 35.7001 16.1002 35.6001C16.2002 35.6001 17.5002 34.8001 19.0002 34.6001C20.3002 34.4001 23.0002 34.7001 23.2002 34.7001C23.3002 34.7001 23.3002 34.8001 23.3002 34.8001C23.3002 34.9001 23.2002 34.9001 23.2002 34.9001C23.2002 34.9001 20.4002 34.6001 19.1002 34.8001C17.6002 35.1001 16.2002 35.9001 16.2002 35.9001Z" fill="#455A64"/>
<path d="M22.2002 31.5C22.2002 27.1 26.8002 23 32.5002 23C38.2002 23 42.8002 27 42.8002 31.5C42.8002 36 39.5002 39 32.5002 39C25.5002 39 22.2002 35.9 22.2002 31.5Z" fill="#455A64"/>
<path d="M36.5997 24.3C36.5997 24.3 38.2997 22 41.3997 22C42.5997 23.2 41.7997 26.8 41.3997 27.8L36.5997 24.3ZM28.3997 24.3C28.3997 24.3 26.6997 22 23.5997 22C22.3997 23.2 23.1997 26.8 23.5997 27.8L28.3997 24.3ZM28.0997 43.9C28.0997 43.9 25.7997 43.9 25.2997 43.9C24.0997 43.9 22.9997 43.4 22.4997 42.4C21.8997 41.3 21.3997 40.1 19.8997 39.1C19.5997 38.9 19.7997 38.7 20.2997 38.7C20.7997 38.8 21.6997 38.9 22.3997 39.8C23.0997 40.7 23.8997 41.8 25.1997 41.8C26.4997 41.8 27.8997 41.8 28.6997 40.9L28.0997 43.9Z" fill="#455A64"/>
<path d="M32 12C21 12 12 21 12 32C12 43 21 52 32 52C43 52 52 43 52 32C52 21 43 12 32 12ZM32 48C23.2 48 16 40.8 16 32C16 23.2 23.2 16 32 16C40.8 16 48 23.2 48 32C48 40.8 40.8 48 32 48Z" fill="#00BCD4"/>
</svg>
