<svg width="64" height="64" viewBox="0 0 64 64" fill="none" xmlns="http://www.w3.org/2000/svg">
<circle cx="32" cy="32" r="32" fill="#C3ECFF"/>
<path d="M32 12C26.6957 12 21.6086 14.1071 17.8579 17.8579C14.1071 21.6086 12 26.6957 12 32C12 37.3043 14.1071 42.3914 17.8579 46.1421C21.6086 49.8929 26.6957 52 32 52C37.3043 52 42.3914 49.8929 46.1421 46.1421C49.8929 42.3914 52 37.3043 52 32C52 26.6957 49.8929 21.6086 46.1421 17.8579C42.3914 14.1071 37.3043 12 32 12Z" fill="#03A9F4"/>
<path d="M44 25.12C43.118 25.511 42.001 25.878 41 26C42.018 25.396 43.633 24.138 44 23C43.049 23.559 41.329 24.156 40.207 24.372C39.311 23.422 38.033 23 36.617 23C33.897 23 32 25.305 32 28V30C28 30 24.1 26.953 21.673 24C21.246 24.721 21.006 25.565 21.006 26.457C21.006 28.276 22.677 30.122 24 31C23.193 30.975 21.665 30.359 21 30C21 30.016 21 30.036 21 30.057C21 32.424 22.661 34.031 24.912 34.479C24.501 34.592 24 35 22.072 35C22.698 36.935 25.845 37.958 28 38C26.314 39.307 23.308 40 21 40C20.601 40 20.385 40.022 20 39.977C22.178 41.357 25.22 42 28 42C37.057 42 42 35.082 42 28.63C42 28.418 41.993 27.708 41.982 27.5C42.95 26.818 43.342 26.104 44 25.12Z" fill="white"/>
</svg>
