<svg width="64" height="64" viewBox="0 0 64 64" fill="none" xmlns="http://www.w3.org/2000/svg">
<circle opacity="0.7" cx="32" cy="32" r="32" fill="#EB5757"/>
<g clip-path="url(#clip0_2390_946)">
<path d="M49.1787 24.0553C48.9665 23.2715 48.5526 22.5569 47.9782 21.9827C47.4038 21.4085 46.689 20.9947 45.9049 20.7826C43.0342 20 31.4806 20 31.4806 20C31.4806 20 19.9264 20.0237 17.0557 20.8063C16.2715 21.0184 15.5567 21.4322 14.9823 22.0064C14.4079 22.5807 13.994 23.2953 13.7818 24.0791C12.9135 29.1777 12.5767 36.9468 13.8057 41.8414C14.0179 42.6253 14.4318 43.3398 15.0062 43.914C15.5805 44.4882 16.2954 44.902 17.0795 45.1141C19.9502 45.8967 31.5041 45.8967 31.5041 45.8967C31.5041 45.8967 43.0579 45.8967 45.9284 45.1141C46.7126 44.902 47.4275 44.4883 48.0019 43.9141C48.5763 43.3399 48.9902 42.6253 49.2024 41.8414C50.1183 36.7356 50.4005 28.9714 49.1787 24.0554V24.0553Z" fill="#FF0000"/>
<path d="M27.8037 38.4975L37.3885 32.9482L27.8039 27.3989L27.8037 38.4975Z" fill="white"/>
</g>
<defs>
<clipPath id="clip0_2390_946">
<rect width="37" height="26" fill="white" transform="translate(13 20)"/>
</clipPath>
</defs>
</svg>
