<svg width="40" height="40" viewBox="0 0 40 40" fill="none" xmlns="http://www.w3.org/2000/svg">
<path fill-rule="evenodd" clip-rule="evenodd" d="M20 0C8.9543 0 0 8.9543 0 20C0 31.0457 8.9543 40 20 40C31.0457 40 40 31.0457 40 20C40 8.9543 31.0457 0 20 0ZM12.421 8.66666H28.2457C29.5802 8.66666 30.6667 9.74 30.6667 11.07V32L28.1276 29.7833L26.6987 28.4767L25.187 27.0883L25.813 29.2467H12.421C11.0865 29.2467 10 28.1733 10 26.8433V11.07C10 9.74 11.0865 8.66666 12.421 8.66666Z" fill="black"/>
<path fill-rule="evenodd" clip-rule="evenodd" d="M23.6871 23.9033C23.6871 23.9033 23.262 23.4017 22.9077 22.9583C24.4548 22.5267 25.0452 21.57 25.0452 21.57C24.561 21.885 24.1005 22.1067 23.6871 22.2583C23.0967 22.5033 22.5298 22.6667 21.9748 22.76C20.841 22.97 19.8018 22.9117 18.9161 22.7483C18.2429 22.62 17.6643 22.4333 17.1801 22.2467C16.9085 22.1417 16.6132 22.0133 16.318 21.85C16.3003 21.8383 16.2826 21.8296 16.2648 21.8208C16.2471 21.8121 16.2294 21.8033 16.2117 21.7917C16.1881 21.78 16.1763 21.7683 16.1645 21.7567C15.9519 21.64 15.8338 21.5583 15.8338 21.5583C15.8338 21.5583 16.4007 22.4917 17.9005 22.935C17.5462 23.3783 17.1092 23.9033 17.1092 23.9033C14.4993 23.8217 13.5073 22.13 13.5073 22.13C13.5073 18.3733 15.2079 15.3283 15.2079 15.3283C16.9085 14.0683 18.5264 14.1033 18.5264 14.1033L18.6445 14.2433C16.5188 14.85 15.5386 15.7717 15.5386 15.7717C15.5386 15.7717 15.7984 15.6317 16.2353 15.4333C17.4989 14.885 18.5028 14.7333 18.9161 14.6983L18.9426 14.6939C19.0021 14.6839 19.055 14.675 19.1168 14.675C19.8372 14.5817 20.6521 14.5583 21.5024 14.6517C22.6243 14.78 23.8288 15.1067 25.057 15.7717C25.057 15.7717 24.1241 14.8967 22.1165 14.29L22.2818 14.1033C22.2818 14.1033 23.8997 14.0683 25.6003 15.3283C25.6003 15.3283 27.3008 18.3733 27.3008 22.13C27.3008 22.13 26.297 23.8217 23.6871 23.9033ZM18.5286 18.6667C17.8607 18.6667 17.3335 19.2673 17.3335 20C17.3335 20.7327 17.8725 21.3333 18.5286 21.3333C19.1964 21.3333 19.7237 20.7327 19.7237 20C19.7354 19.2673 19.1964 18.6667 18.5286 18.6667ZM21.6099 20C21.6099 19.2673 22.1371 18.6667 22.8049 18.6667C23.4728 18.6667 24 19.2673 24 20C24 20.7327 23.4728 21.3333 22.8049 21.3333C22.1488 21.3333 21.6099 20.7327 21.6099 20Z" fill="black"/>
</svg>
