<svg xmlns="http://www.w3.org/2000/svg" width="25" height="25" preserveAspectRatio="xMidYMid meet" viewBox="0 0 256 256"><path fill="black" d="M151.7 37.9a7.9 7.9 0 0 1 9.8-5.6a88 88 0 0 1 62.2 62.2a7.9 7.9 0 0 1-5.6 9.8a7.6 7.6 0 0 1-2.1.3a8 8 0 0 1-7.7-6a72.6 72.6 0 0 0-50.9-50.9a7.9 7.9 0 0 1-5.7-9.8Zm-2.6 40.7a40.4 40.4 0 0 1 28.3 28.3a7.9 7.9 0 0 0 7.7 6a6.4 6.4 0 0 0 2-.3a7.9 7.9 0 0 0 5.7-9.8a55.8 55.8 0 0 0-39.6-39.6a8 8 0 1 0-4.1 15.4Zm82.5 96.5A56.2 56.2 0 0 1 176 224C96.6 224 32 159.4 32 80a56.2 56.2 0 0 1 48.9-55.6A16.3 16.3 0 0 1 97.6 34l20.1 46.9a15.9 15.9 0 0 1-1.4 15.1l-16.6 25.4a76.5 76.5 0 0 0 35.2 35l25.1-16.7a15.6 15.6 0 0 1 15.1-1.3l46.9 20a16.3 16.3 0 0 1 9.6 16.7Zm-15.9-2l-46.9-20l-25 16.7a16 16 0 0 1-15.7 1.1a92.5 92.5 0 0 1-42.8-42.6a16 16 0 0 1 1-15.7L103 87.2L82.9 40.3A40 40 0 0 0 48 80a128.1 128.1 0 0 0 128 128a40 40 0 0 0 39.7-34.9Z"/></svg>