
<svg height="512" viewBox="0 0 64 64" width="512" xmlns="http://www.w3.org/2000/svg"><g id="Curriculum-Application-Resume-Portfolio-Document"><path d="m56 35.08v-26.08a7.008 7.008 0 0 0 -7-7h-34a7.008 7.008 0 0 0 -7 7v26.08a7 7 0 0 0 -6 6.92v11.53a2.971 2.971 0 0 0 .32 1.34l1.68 3.37v3.76h2v-4a1 1 0 0 0 -.11-.45l-1.78-3.58a.956.956 0 0 1 -.11-.44v-11.53a5.009 5.009 0 0 1 4-4.9v7.9a1 1 0 0 0 .14.51l2.43 4.05a2.956 2.956 0 0 0 2.53 1.45 3 3 0 0 0 2.92-2.21l1.15-4.3a1.006 1.006 0 0 1 1.23-.71.963.963 0 0 1 .6.46.974.974 0 0 1 .1.76l-1.86 6.97a6.922 6.922 0 0 0 -.24 1.81v1.88l-2.8 3.73a.984.984 0 0 0 -.2.6v2h36v-2a.984.984 0 0 0 -.2-.6l-2.8-3.73v-1.88a6.922 6.922 0 0 0 -.24-1.81l-1.86-6.97a.974.974 0 0 1 .1-.76 1 1 0 0 1 1.36-.36 1 1 0 0 1 .47.61l1.15 4.3a2.99 2.99 0 0 0 5.45.76l2.43-4.05a1 1 0 0 0 .14-.51v-7.9a5.009 5.009 0 0 1 4 4.9v11.53a.956.956 0 0 1 -.11.44l-1.78 3.58a1 1 0 0 0 -.11.45v4h2v-3.76l1.68-3.37a2.971 2.971 0 0 0 .32-1.34v-11.53a7 7 0 0 0 -6-6.92zm-12-31.08h4v4.59l-1.29-1.3a1.008 1.008 0 0 0 -1.42 0l-1.29 1.3zm10 40.72-2.29 3.81a.953.953 0 0 1 -.83.48h-.01a1 1 0 0 1 -.96-.73l-1.15-4.3a3.007 3.007 0 0 0 -5.5-.73 3.032 3.032 0 0 0 -.3 2.28l1.87 6.97a5.074 5.074 0 0 1 .17 1.29v2.21a.984.984 0 0 0 .2.6l2.55 3.4h-31.5l2.55-3.4a.984.984 0 0 0 .2-.6v-2.21a5.074 5.074 0 0 1 .17-1.29l1.87-6.97a3.032 3.032 0 0 0 -.3-2.28 3.007 3.007 0 0 0 -5.5.73l-1.15 4.3a.922.922 0 0 1 -.97.73.953.953 0 0 1 -.83-.48l-2.29-3.81v-35.72a5 5 0 0 1 5-5h27v7a.987.987 0 0 0 .62.92 1 1 0 0 0 1.09-.21l2.29-2.3 2.29 2.3a1.007 1.007 0 0 0 .71.29.838.838 0 0 0 .38-.08.987.987 0 0 0 .62-.92v-6.9a5.017 5.017 0 0 1 4 4.9z"/><path d="m15 27h12a1 1 0 0 0 1-1 5.008 5.008 0 0 0 -4-4.9v-.483a3.966 3.966 0 0 0 1-2.617v-2a4 4 0 0 0 -8 0v2a3.966 3.966 0 0 0 1 2.618v.482a5.008 5.008 0 0 0 -4 4.9 1 1 0 0 0 1 1zm5-5.142a3.592 3.592 0 0 0 2 0v.142a1 1 0 0 1 -2 0zm1-1.858a2 2 0 0 1 -1.858-1.272 14.667 14.667 0 0 0 2.25-.808 15.631 15.631 0 0 1 1.608-.608v.688a2 2 0 0 1 -2 2zm0-6a2 2 0 0 1 1.858 1.272 14.667 14.667 0 0 0 -2.25.808 15.631 15.631 0 0 1 -1.608.608v-.688a2 2 0 0 1 2-2zm-2.781 9.112a2.992 2.992 0 0 0 5.562 0 3.007 3.007 0 0 1 2.048 1.888h-9.658a3.007 3.007 0 0 1 2.048-1.888z"/><path d="m32 25h18v2h-18z"/><path d="m32 21h18v2h-18z"/><path d="m32 17h2v2h-2z"/><path d="m36 17h14v2h-14z"/><path d="m14 33h16v2h-16z"/><path d="m14 37h16v2h-16z"/><path d="m34 33h16v2h-16z"/><path d="m34 37h16v2h-16z"/><path d="m34 41h6v2h-6z"/><path d="m34 45h6v2h-6z"/><path d="m34 49h6v2h-6z"/><path d="m24 41h6v2h-6z"/><path d="m24 45h6v2h-6z"/><path d="m24 49h6v2h-6z"/></g></svg>