<svg width="11" height="11" viewBox="0 0 11 11" fill="none" xmlns="http://www.w3.org/2000/svg">
<path opacity="0.5" d="M3.48322 5.50013L5.21179 6.94061L7.51655 4.05965M5.49989 9.53346C4.97022 9.53346 4.44574 9.42914 3.9564 9.22644C3.46705 9.02375 3.02242 8.72666 2.64789 8.35213C2.27336 7.9776 1.97627 7.53297 1.77357 7.04362C1.57088 6.55427 1.46655 6.0298 1.46655 5.50013C1.46655 4.97047 1.57088 4.44599 1.77357 3.95664C1.97627 3.46729 2.27336 3.02266 2.64789 2.64813C3.02242 2.2736 3.46705 1.97651 3.9564 1.77382C4.44574 1.57112 4.97022 1.4668 5.49989 1.4668C6.56959 1.4668 7.59549 1.89174 8.35188 2.64813C9.10828 3.40453 9.53322 4.43042 9.53322 5.50013C9.53322 6.56984 9.10828 7.59573 8.35188 8.35213C7.59549 9.10852 6.56959 9.53346 5.49989 9.53346Z" stroke="#767477"/>
</svg>
