<svg width="40" height="40" viewBox="0 0 40 40" fill="none" xmlns="http://www.w3.org/2000/svg">
<path d="M31.25 25.525V29.945C31.2501 30.2615 31.1302 30.5662 30.9145 30.7977C30.6987 31.0293 30.4032 31.1703 30.0875 31.1925C29.5413 31.23 29.095 31.25 28.75 31.25C17.7038 31.25 8.75 22.2963 8.75 11.25C8.75 10.905 8.76875 10.4588 8.8075 9.9125C8.82965 9.59681 8.97073 9.30126 9.20225 9.08551C9.43378 8.86976 9.73853 8.74986 10.055 8.75H14.475C14.63 8.74984 14.7796 8.80732 14.8947 8.91128C15.0097 9.01523 15.082 9.15823 15.0975 9.3125C15.1263 9.6 15.1525 9.82875 15.1775 10.0025C15.4259 11.7362 15.935 13.4223 16.6875 15.0038C16.8063 15.2538 16.7288 15.5525 16.5037 15.7125L13.8063 17.64C15.4556 21.4831 18.5182 24.5457 22.3612 26.195L24.2863 23.5025C24.3649 23.3925 24.4797 23.3136 24.6106 23.2796C24.7415 23.2455 24.8802 23.2585 25.0025 23.3162C26.5838 24.0673 28.2695 24.5751 30.0025 24.8225C30.1763 24.8475 30.405 24.875 30.69 24.9025C30.844 24.9183 30.9867 24.9907 31.0904 25.1057C31.1941 25.2207 31.2514 25.3701 31.2512 25.525H31.25Z" fill="#130B46"/>
</svg>
