<svg width="64" height="64" viewBox="0 0 64 64" fill="none" xmlns="http://www.w3.org/2000/svg">
<circle cx="32" cy="32" r="32" fill="#C3E6FF"/>
<path d="M50 45C50 47.762 47.762 50 45 50H19C16.239 50 14 47.762 14 45V19C14 16.238 16.239 14 19 14H45C47.762 14 50 16.238 50 19V45Z" fill="#0288D1"/>
<path d="M20 27H25V44H20V27ZM22.485 25H22.457C20.965 25 20 23.888 20 22.499C20 21.08 20.995 20 22.514 20C24.035 20 24.972 21.08 25 22.499C25 23.887 24.035 25 22.485 25ZM44 44H39V34.901C39 32.703 37.775 31.203 35.808 31.203C34.307 31.203 33.495 32.215 33.101 33.193C32.957 33.543 33 34.511 33 35V44H28V27H33V29.616C33.721 28.5 34.85 27 37.738 27C41.316 27 43.999 29.25 43.999 34.274L44 44Z" fill="white"/>
</svg>
