<svg xmlns="http://www.w3.org/2000/svg" viewBox="0 0 500 500"><g id="freepik--Window--inject-3"><rect x="240.25" y="37.21" width="185.5" height="256.84" style="fill:none;stroke:#263238;stroke-linecap:round;stroke-linejoin:round"></rect><line x1="333" y1="37.36" x2="333" y2="294.95" style="fill:none;stroke:#263238;stroke-linecap:round;stroke-linejoin:round"></line><line x1="425.91" y1="166.16" x2="240.1" y2="166.16" style="fill:none;stroke:#263238;stroke-linecap:round;stroke-linejoin:round"></line><line x1="425.91" y1="101.66" x2="240.1" y2="101.66" style="fill:none;stroke:#263238;stroke-linecap:round;stroke-linejoin:round"></line><line x1="425.91" y1="230.66" x2="240.1" y2="230.66" style="fill:none;stroke:#263238;stroke-linecap:round;stroke-linejoin:round"></line><line x1="392.1" y1="131.43" x2="374.02" y2="148.81" style="fill:none;stroke:#263238;stroke-linecap:round;stroke-linejoin:round"></line><line x1="418.99" y1="105.57" x2="397.39" y2="126.34" style="fill:none;stroke:#263238;stroke-linecap:round;stroke-linejoin:round"></line><line x1="372.71" y1="140.53" x2="366.97" y2="146.05" style="fill:none;stroke:#263238;stroke-linecap:round;stroke-linejoin:round"></line><line x1="397.37" y1="116.81" x2="376.66" y2="136.72" style="fill:none;stroke:#263238;stroke-linecap:round;stroke-linejoin:round"></line><line x1="291.78" y1="72.62" x2="273.7" y2="90" style="fill:none;stroke:#263238;stroke-linecap:round;stroke-linejoin:round"></line><line x1="318.67" y1="46.76" x2="297.07" y2="67.54" style="fill:none;stroke:#263238;stroke-linecap:round;stroke-linejoin:round"></line><line x1="272.39" y1="81.72" x2="266.65" y2="87.24" style="fill:none;stroke:#263238;stroke-linecap:round;stroke-linejoin:round"></line><line x1="297.05" y1="58.01" x2="276.34" y2="77.91" style="fill:none;stroke:#263238;stroke-linecap:round;stroke-linejoin:round"></line><line x1="387.77" y1="199.75" x2="369.7" y2="217.13" style="fill:none;stroke:#263238;stroke-linecap:round;stroke-linejoin:round"></line><line x1="414.67" y1="173.89" x2="393.06" y2="194.67" style="fill:none;stroke:#263238;stroke-linecap:round;stroke-linejoin:round"></line><line x1="368.38" y1="208.85" x2="362.64" y2="214.37" style="fill:none;stroke:#263238;stroke-linecap:round;stroke-linejoin:round"></line><line x1="393.05" y1="185.14" x2="372.34" y2="205.04" style="fill:none;stroke:#263238;stroke-linecap:round;stroke-linejoin:round"></line></g><g id="freepik--plant-2--inject-3"><path d="M395.93,269.85l-.78-6.68s-3.55.2-4.92-2.89c-.83-1.87-1.67-5.66-.45-7.53a3.52,3.52,0,0,1,6.39.86c.95,2.71,1.42,3.87,1.42,3.87-.23-3.93-3.19-19.76,5.72-17.35,3.62,1,4.61,4.48,4.77,7.24s-.21,9.91-.21,9.91,2.39.26,2.55-3.71,4-5.77,5.71-3.89,2.48,8.56.62,10.65-7.75,2.82-7.75,2.82l.39,6.71Z" style="fill:#BA68C8;stroke:#263238;stroke-linecap:round;stroke-linejoin:round"></path><path d="M401.05,241.23s-1.47,1.34-1.07,5.9.4,12.72.4,12.72" style="fill:none;stroke:#263238;stroke-linecap:round;stroke-linejoin:round;stroke-width:0.5px"></path><path d="M404.94,244.31s1.74-.26,1.2,3.89a62.58,62.58,0,0,0,0,10.44" style="fill:none;stroke:#263238;stroke-linecap:round;stroke-linejoin:round;stroke-width:0.5px"></path><path d="M392.34,253.15s-1.74.4-.93,3.22,1.07,4.95,2.94,5.36a14.77,14.77,0,0,0,2.55.4l.27,2.94" style="fill:none;stroke:#263238;stroke-linecap:round;stroke-linejoin:round;stroke-width:0.5px"></path><path d="M409.22,261.59s5.49.14,6.56-2.14.41-6.16.41-6.16" style="fill:none;stroke:#263238;stroke-linecap:round;stroke-linejoin:round;stroke-width:0.5px"></path><path d="M394.62,253.89a.47.47,0,1,1-.47-.47A.47.47,0,0,1,394.62,253.89Z" style="fill:none;stroke:#263238;stroke-linecap:round;stroke-linejoin:round;stroke-width:0.5px"></path><circle cx="395.76" cy="259.31" r="0.47" style="fill:none;stroke:#263238;stroke-linecap:round;stroke-linejoin:round;stroke-width:0.5px"></circle><circle cx="393.42" cy="257.1" r="0.47" style="fill:none;stroke:#263238;stroke-linecap:round;stroke-linejoin:round;stroke-width:0.5px"></circle><circle cx="402.93" cy="251.55" r="0.47" style="fill:none;stroke:#263238;stroke-linecap:round;stroke-linejoin:round;stroke-width:0.5px"></circle><circle cx="398.51" cy="246.99" r="0.47" style="fill:none;stroke:#263238;stroke-linecap:round;stroke-linejoin:round;stroke-width:0.5px"></circle><path d="M404.94,263.33a.47.47,0,1,1-.47-.47A.47.47,0,0,1,404.94,263.33Z" style="fill:none;stroke:#263238;stroke-linecap:round;stroke-linejoin:round;stroke-width:0.5px"></path><path d="M399.85,262.66a.47.47,0,1,1-.47-.47A.47.47,0,0,1,399.85,262.66Z" style="fill:none;stroke:#263238;stroke-linecap:round;stroke-linejoin:round;stroke-width:0.5px"></path><circle cx="403.73" cy="242.71" r="0.47" style="fill:none;stroke:#263238;stroke-linecap:round;stroke-linejoin:round;stroke-width:0.5px"></circle><path d="M413.71,251.61a.47.47,0,1,1-.47-.47A.47.47,0,0,1,413.71,251.61Z" style="fill:none;stroke:#263238;stroke-linecap:round;stroke-linejoin:round;stroke-width:0.5px"></path><circle cx="412.03" cy="257.98" r="0.47" style="fill:none;stroke:#263238;stroke-linecap:round;stroke-linejoin:round;stroke-width:0.5px"></circle><circle cx="403.73" cy="257.84" r="0.47" style="fill:none;stroke:#263238;stroke-linecap:round;stroke-linejoin:round;stroke-width:0.5px"></circle><polygon points="414.4 265.52 390.3 265.52 392.71 285.28 411.99 285.28 414.4 265.52" style="fill:#fff;stroke:#263238;stroke-linecap:round;stroke-linejoin:round"></polygon></g><g id="freepik--Device--inject-3"><polygon points="306.35 220 379.33 220 362.33 282.62 289.35 282.62 306.35 220" style="fill:#7d7d7d;stroke:#263238;stroke-linecap:round;stroke-linejoin:round"></polygon><polygon points="308.43 222.33 375.98 222.33 360.25 280.29 292.7 280.29 308.43 222.33" style="fill:#fff;stroke:#263238;stroke-linecap:round;stroke-linejoin:round"></polygon><path d="M324.79,262.21l4.06-15.16h1.69l-3.64,13.63h4.33l-.41,1.53Z" style="fill:#263238"></path><path d="M335.05,250.71c.62-2.32,2.17-3.81,4.48-3.81s3.09,1.49,2.47,3.81l-2.1,7.84c-.61,2.3-2.17,3.82-4.51,3.82s-3.06-1.52-2.44-3.82Zm-.46,7.93c-.37,1.39,0,2.19,1.22,2.19s2-.8,2.38-2.19l2.14-8c.37-1.37,0-2.19-1.21-2.19s-2,.82-2.38,2.19Z" style="fill:#263238"></path><path d="M350.3,250.71,350,252h-1.6l.37-1.38c.37-1.37,0-2.19-1.19-2.19s-2,.82-2.36,2.19l-2.15,8c-.36,1.36,0,2.19,1.19,2.19s2-.83,2.36-2.19l.82-3h-1.56l.4-1.52h3.17l-1.2,4.46c-.61,2.3-2.1,3.82-4.44,3.82s-3-1.52-2.38-3.82l2.1-7.84c.61-2.29,2.1-3.81,4.42-3.81S350.91,248.42,350.3,250.71Z" style="fill:#263238"></path><path d="M351.78,250.71c.62-2.32,2.16-3.81,4.48-3.81s3.09,1.49,2.47,3.81l-2.1,7.84c-.61,2.3-2.17,3.82-4.51,3.82s-3.06-1.52-2.44-3.82Zm-.46,7.93c-.37,1.39,0,2.19,1.22,2.19s2-.8,2.38-2.19l2.14-8c.37-1.37,0-2.19-1.21-2.19s-2,.82-2.38,2.19Z" style="fill:#263238"></path><path d="M326.63,247.88c-.13-3.45-.93-9.81-4.7-14.73-5.45-7.1-15.33,2.56-11.17,14.64a15.27,15.27,0,0,0,2.36,4.31" style="fill:none;stroke:#263238;stroke-linecap:round;stroke-linejoin:round"></path><path d="M317.05,255.91s-14.42,2.19-11.38,7.48c5.25,9.17,14,.75,17.67-3.54" style="fill:none;stroke:#263238;stroke-linecap:round;stroke-linejoin:round"></path><path d="M323.58,243.28c1.62,4.35,1.28,8.49-.76,9.25s-5-2.15-6.64-6.5-1.27-8.5.77-9.26S322,238.93,323.58,243.28Z" style="fill:#BA68C8;stroke:#263238;stroke-linecap:round;stroke-linejoin:round"></path><path d="M309.07,263.64c.5,1.33,3.06,1.59,5.72.58s4.4-2.9,3.9-4.23-3.07-1.59-5.72-.58S308.56,262.31,309.07,263.64Z" style="fill:#BA68C8;stroke:#263238;stroke-linecap:round;stroke-linejoin:round"></path><path d="M331,235.62a14.72,14.72,0,0,1-2.35,13.87,23.88,23.88,0,0,0-1.24-11" style="fill:none;stroke:#263238;stroke-linecap:round;stroke-linejoin:round"></path><rect x="260.01" y="279.3" width="102.32" height="3.33" style="fill:#7d7d7d;stroke:#263238;stroke-linecap:round;stroke-linejoin:round"></rect><rect x="315.31" y="279.3" width="47.02" height="3.33" style="fill:#595959;stroke:#263238;stroke-linecap:round;stroke-linejoin:round"></rect></g><g id="freepik--Desk--inject-3"><rect x="227.28" y="287.93" width="5.5" height="174.61" style="fill:#fff;stroke:#263238;stroke-linecap:round;stroke-linejoin:round"></rect><rect x="222.59" y="287.93" width="4.7" height="174.61" transform="translate(449.87 750.47) rotate(180)" style="fill:#a8a8a8;stroke:#263238;stroke-linecap:round;stroke-linejoin:round"></rect><rect x="368.18" y="379.29" width="5.5" height="83.25" style="fill:#fff;stroke:#263238;stroke-linecap:round;stroke-linejoin:round"></rect><rect x="363.48" y="379.29" width="4.7" height="83.25" transform="translate(731.66 841.84) rotate(180)" style="fill:#a8a8a8;stroke:#263238;stroke-linecap:round;stroke-linejoin:round"></rect><rect x="427.07" y="379.29" width="5.5" height="83.25" style="fill:#fff;stroke:#263238;stroke-linecap:round;stroke-linejoin:round"></rect><rect x="422.38" y="379.29" width="4.7" height="83.25" transform="translate(849.45 841.84) rotate(180)" style="fill:#a8a8a8;stroke:#263238;stroke-linecap:round;stroke-linejoin:round"></rect><rect x="313.67" y="289.63" width="53.66" height="94.42" transform="translate(680.99 673.67) rotate(180)" style="fill:#a8a8a8;stroke:#263238;stroke-linecap:round;stroke-linejoin:round"></rect><rect x="367.32" y="289.63" width="70.71" height="94.42" style="fill:#fff;stroke:#263238;stroke-linecap:round;stroke-linejoin:round"></rect><polygon points="367.32 289.63 313.67 289.63 313.67 294.23 367.32 294.23 438.03 294.23 438.03 289.63 367.32 289.63" style="fill:#263238;stroke:#263238;stroke-linecap:round;stroke-linejoin:round"></polygon><rect x="318.24" y="295.04" width="45.75" height="22.04" style="fill:#fff;stroke:#263238;stroke-linecap:round;stroke-linejoin:round"></rect><rect x="335.09" y="303.98" width="12.06" height="4.16" style="fill:#263238"></rect><rect x="318.24" y="325.4" width="45.75" height="22.04" style="fill:#fff;stroke:#263238;stroke-linecap:round;stroke-linejoin:round"></rect><rect x="335.09" y="333.93" width="12.06" height="4.16" style="fill:#263238"></rect><rect x="318.24" y="355.76" width="45.75" height="22.04" style="fill:#fff;stroke:#263238;stroke-linecap:round;stroke-linejoin:round"></rect><rect x="335.09" y="363.87" width="12.06" height="4.16" style="fill:#263238"></rect><rect x="215" y="285.48" width="230.33" height="5.49" style="fill:#a8a8a8;stroke:#263238;stroke-linecap:round;stroke-linejoin:round"></rect><rect x="375.78" y="285.48" width="69.55" height="5.49" style="fill:#fff;stroke:#263238;stroke-linecap:round;stroke-linejoin:round"></rect></g><g id="freepik--Character--inject-3"><path d="M234.53,341.36s6.86,4.75,17,34.11c3.38,9.76,22.39,62.39,23.39,66s3,8,6,8,14-14,12.66-15.66-7.66-8.34-7.66-8.34-3.78-42.6-4.45-54.6,2.06-26.45-4.27-36.12-34.34.33-34.34.33Z" style="fill:#fff;stroke:#263238;stroke-linecap:round;stroke-linejoin:round"></path><path d="M289,425.52a4.47,4.47,0,0,0-2.34,4.34c.34,3,3.34,7,3.34,7s-6.34,5-9.67,5.33-7,1-7,2,2.67,2.67,4.33,6.33A81.35,81.35,0,0,0,284,461.19c1,1.33,1.66,2.33,5.33,1.33s11.67-8.33,16-11.33,17.33-5,19.67-6.67,9.66-12.33,6.33-14.33-4.33.33-8.33,1.33-15.67-.33-22-1.66-8.34-1.67-8.34-1.67Z" style="fill:#BA68C8;stroke:#263238;stroke-linecap:round;stroke-linejoin:round"></path><path d="M283.42,460.43c.22.32.4.58.54.76,1,1.33,1.66,2.33,5.33,1.33s11.67-8.33,16-11.33,17.33-5,19.67-6.67,9.66-12.33,6.33-14.33a5.6,5.6,0,0,0-1.51-.66c.06.22.12.42.18.66,1,4-2.34,8-5.34,11s-13,2.33-24,8A107.74,107.74,0,0,0,283.42,460.43Z" style="fill:#fff;stroke:#263238;stroke-linecap:round;stroke-linejoin:round"></path><path d="M283.1,392.17c-.72-8.77-1.35-17-1.59-21.25-.67-12,2.06-26.45-4.27-36.12s-34.34.33-34.34.33l-8.37,6.23s6.86,4.75,17,34.11c1.29,3.73,4.87,13.74,8.86,24.87Z" style="fill:#263238;stroke:#263238;stroke-linecap:round;stroke-linejoin:round"></path><path d="M266.78,170.38a19.26,19.26,0,0,1,1.21,7.25c-.3,3.33-3.33,4.84-3.63,3.94a21.64,21.64,0,0,1-.3-4.54v-1.21a15.46,15.46,0,0,1-2.72,3.33c-2.12,2.11-3.33,1.51-4.24,1.51s-1.21-3,.31-5.14S263.76,168.56,266.78,170.38Z" style="fill:#fff;stroke:#263238;stroke-linecap:round;stroke-linejoin:round"></path><path d="M273.74,178.24c-3-1.82-7.56,4.54-14.52,3-.89-.19-1.21-1.51.3-4.53s6.35-5.45,8.77-7.26,4.24-3.33,4.24-5.45-5.45,1.21-7,2.42a49.12,49.12,0,0,1-5.7,3.05l-1.31.07c-2.69.17-6.84.65-8.41,2-2.06,1.79-3.24,7.94-3.73,10.31-1.34,1.94-2.54,3.73-3.23,4.81-2.12,3.32-44.76,34.48-44.76,34.48l3,26.61,48.39-55a13.23,13.23,0,0,1,4.54-2.42c3.33-1.21,7.86-2.12,11.8-4.24a90.61,90.61,0,0,0,8.47-5.14C276.7,179.64,275.38,179.22,273.74,178.24Z" style="fill:#fff;stroke:#263238;stroke-linecap:round;stroke-linejoin:round"></path><path d="M222.88,203C211,212,198.43,221.19,198.43,221.19l3,26.61L231.18,214Z" style="fill:#BA68C8;stroke:#263238;stroke-linecap:round;stroke-linejoin:round"></path><path d="M208,303.67s21.33-1,52.33,4S302.93,318,302,324c-3.78,24.34-60.61,104.47-60.61,104.47l1,11.33s-2,2.67-9,3-15.67-9.66-15.67-9.66,7.83-8.1,10.83-17.76,27.12-72.05,27.12-72.05-31.67,7-66.67.67S208,303.67,208,303.67Z" style="fill:#fff;stroke:#263238;stroke-linecap:round;stroke-linejoin:round"></path><path d="M260.33,307.67c-31-5-52.33-4-52.33-4s-54,34-19,40.33,66.67-.67,66.67-.67-10,26-18,47l23.51,9C278,373.89,299.71,338.73,302,324,302.93,318,291.33,312.67,260.33,307.67Z" style="fill:#263238;stroke:#263238;stroke-linecap:round;stroke-linejoin:round"></path><path d="M241.39,428.47a5.52,5.52,0,0,0-3,3,44.6,44.6,0,0,0-1.67,4.67,61.07,61.07,0,0,1-10.66-3.34,59.44,59.44,0,0,1-7.34-4s-3,.34-3,2.34a26,26,0,0,1-1.66,9c-.86,2.14-2.69,6.91-3.88,10a2.72,2.72,0,0,0,1.95,3.62c5.28,1.17,16.41,3.74,25.93,6.67,13,4,27.33,2,29,1.67s8.33-4.34,5.33-7-20.67-9.67-24.33-14.34S241.39,428.47,241.39,428.47Z" style="fill:#BA68C8;stroke:#263238;stroke-linecap:round;stroke-linejoin:round"></path><path d="M271.05,454.2c0,3.31-1.7,6.6-7,6.6s-14.67-.66-28-6a175.2,175.2,0,0,0-24.73-7.64c-.41,1.07-.81,2.11-1.15,3a2.72,2.72,0,0,0,1.95,3.62c5.28,1.17,16.41,3.74,25.93,6.67,13,4,27.33,2,29,1.67s8.33-4.34,5.33-7A9.24,9.24,0,0,0,271.05,454.2Z" style="fill:#fff;stroke:#263238;stroke-linecap:round;stroke-linejoin:round"></path><path d="M140.66,226s-3.63,28.74-3.32,34.18,4.23,52.32,5.14,62.61,5.14,19.35,12.7,21.17,27.22,4.53,35.69,2.42,17.54-21.17,20.56-28.43,5.15-11.8,4.24-13.31-4.84-4.84-4.84-4.84-7.56-55-9.38-69.26-.9-15.42-7.56-20.87S152.76,199.71,140.66,226Z" style="fill:#BA68C8;stroke:#263238;stroke-linecap:round;stroke-linejoin:round"></path><path d="M189.06,326.31c-1.09.83-2.23,1.62-3.39,2.36" style="fill:none;stroke:#263238;stroke-linecap:round;stroke-linejoin:round"></path><path d="M209,302s-6.42,12.6-17.05,21.94" style="fill:none;stroke:#263238;stroke-linecap:round;stroke-linejoin:round"></path><path d="M204.33,302.67s-10.33,9.66-20.66,15.66" style="fill:none;stroke:#263238;stroke-linecap:round;stroke-linejoin:round"></path><path d="M212.64,135.59a59.66,59.66,0,0,1,3.94,10.89c.9,4.54,1.21,8.77,3.32,9.68s6,1.21,5.45,3.63-4.54,6.35-4.54,6.35.91,14.52.6,17.24-16.33,2.72-17.23,2.72-10,21.48-10,21.48l-25.4-12.71,4.84-15.72s-7.86-15.13-8.47-21.78S180,138.62,188.75,135.9,212.64,135.59,212.64,135.59Z" style="fill:#fff;stroke:#263238;stroke-linecap:round;stroke-linejoin:round"></path><polygon points="204.18 186.1 196.11 183.8 199.13 195.61 204.18 186.1" style="fill:#263238;stroke:#263238;stroke-linecap:round;stroke-linejoin:round"></polygon><path d="M215.64,152.7c.4,1.71.21,3.22-.44,3.37s-1.51-1.1-1.92-2.8-.21-3.22.44-3.37S215.23,151,215.64,152.7Z" style="fill:#263238"></path><path d="M210.53,168.86s3.63,2.73,6.95,1.52" style="fill:none;stroke:#263238;stroke-linecap:round;stroke-linejoin:round"></path><path d="M211.13,129.85s4.24,7.56,1.21,12.4-10.28,6.95-14.21,11.49-6,12.4-7.56,13-6-8.47-8.78-7.87-7.25,7-3.32,13.61a11.49,11.49,0,0,0,10.89,5.75s-10.89,5.75-13,5.75-8.47-3.63-11.49-7S151,163.72,150.34,155.56s10.28-18.45,10.28-18.45-13-.91-9.67-5.75,15.12-7.86,15.12-7.86-2.12-7.56.91-9.08S188.45,119,188.45,119s-5.14-6.65,2.12-7S210.22,120.77,211.13,129.85Z" style="fill:#263238;stroke:#263238;stroke-linecap:round;stroke-linejoin:round"></path><line x1="187.06" y1="162.69" x2="225.65" y2="147.09" style="fill:none;stroke:#263238;stroke-linecap:round;stroke-linejoin:round"></line><path d="M215.59,144.9a6.81,6.81,0,0,1,6,12.21" style="fill:none;stroke:#263238;stroke-linecap:round;stroke-linejoin:round"></path><path d="M201.45,216s-.3-8.77-2.72-11.19-20.26-12.4-28.43-14.51-16.63.9-22.08,2.72S139.15,200,137,211.21s-2.42,18.14,2.12,18.75,10.89-13,25.1-15.73,27.22-.3,30.25,1.21S201.45,216,201.45,216Z" style="fill:#BA68C8;stroke:#263238;stroke-linecap:round;stroke-linejoin:round"></path><path d="M155.52,206.76c-2.73,1-4.57,1.72-4.57,1.72" style="fill:none;stroke:#263238;stroke-linecap:round;stroke-linejoin:round"></path><path d="M201.45,216s-19-10.58-26-12.7c-3.63-1.1-10.15.35-15.55,2" style="fill:none;stroke:#263238;stroke-linecap:round;stroke-linejoin:round"></path><path d="M291.26,265.2s-1,6.29-2.15,7-1.08-5.84-1.08-5.84-1.44,3.77-2.33,4.67-.36-3.86-.36-3.86l1-4.49Z" style="fill:#fff;stroke:#263238;stroke-linecap:round;stroke-linejoin:round"></path><path d="M278.46,259l9.28.15s2.45.35,2.8,1.75a42.88,42.88,0,0,0,1.75,4.55l-14.36-4.2Z" style="fill:#fff;stroke:#263238;stroke-linecap:round;stroke-linejoin:round"></path><path d="M281.78,261.93s13-1.75,13.31-.7c.26.79,1.26,7.91,1.48,10.21a.37.37,0,0,1-.66.25l-3.62-6.26-9.81.7S279.68,263.68,281.78,261.93Z" style="fill:#fff;stroke:#263238;stroke-linecap:round;stroke-linejoin:round"></path><path d="M174.31,222.72s-8.06,5.95-5.26,20.66,22.41,55,24.16,58.46,9.45,3.85,12.95,2.8S272,278.74,272,278.74s6.65-1.76,7.7-3.16,7.71-8.75,7.71-8.75,10.5,1.4,12.95.7-2.45-1.4-4.9-2.1c-1.89-.54-12.31-4.61-17-6.45a3.66,3.66,0,0,0-4,.85c-3.28,3.36-10.27,10.49-11.6,11.55-1.75,1.4-51.11,9.81-51.11,9.81s-11.56-54.27-16.11-58.82-12.6-3.5-12.6-3.5" style="fill:#BA68C8;stroke:#263238;stroke-linecap:round;stroke-linejoin:round"></path><path d="M239.42,291.68C255.77,285.2,272,278.74,272,278.74s6.65-1.76,7.7-3.16,7.7-8.75,7.7-8.75,10.51,1.4,13,.7-2.45-1.4-4.9-2.1c-1.89-.54-12.31-4.61-17-6.45a3.66,3.66,0,0,0-4,.85c-3.28,3.36-10.27,10.49-11.6,11.55-.91.73-14.7,3.35-27.73,5.7Z" style="fill:#fff;stroke:#263238;stroke-linecap:round;stroke-linejoin:round"></path><path d="M130,360.58,114.75,461.92a.83.83,0,0,0,1.61.41l23-100.08Z" style="fill:#9c9c9c;stroke:#263238;stroke-linecap:round;stroke-linejoin:round"></path><path d="M152.76,361.25l6.63,100.48a.83.83,0,0,0,1.66,0l1.15-101.29Z" style="fill:#9c9c9c;stroke:#263238;stroke-linecap:round;stroke-linejoin:round"></path><path d="M175.13,362.76l18.2,98.74a.83.83,0,0,0,1.63-.26l-10.6-100.63Z" style="fill:#9c9c9c;stroke:#263238;stroke-linecap:round;stroke-linejoin:round"></path><path d="M210.31,361.93l14.89,99.4a.83.83,0,0,0,1.64-.19l-7.22-101Z" style="fill:#9c9c9c;stroke:#263238;stroke-linecap:round;stroke-linejoin:round"></path><path d="M196.08,341.7s-17.51-5.84-25.68-26.84S148.82,257.68,139.48,253s-27.42,4.08-28.59,37.92,1.57,59,9.11,67.32c6.67,7.33,18,16.67,57.33,17.33,35.13.6,49.47-12.79,54.34-17.33S244.5,344,238.09,344,204.25,344,196.08,341.7Z" style="fill:#fff;stroke:#263238;stroke-linecap:round;stroke-linejoin:round"></path></g></svg>