<svg width="361" height="17" viewBox="0 0 361 17" fill="none" xmlns="http://www.w3.org/2000/svg">
<path fill-rule="evenodd" clip-rule="evenodd" d="M8.29628 3.674C15.9454 4.60796 36.0476 4.65466 90.6175 4.74806C175.83 4.88815 243.46 5.9155 262.256 7.40983C263.748 7.54992 144.301 8.57728 132.035 7.83011C112.912 6.61596 21.5889 7.64332 3.21238 9.04426C-2.01139 9.41784 -0.0524549 10.7254 3.35233 11.0056C8.66936 11.4726 22.9416 11.4258 62.0733 11.3325C89.5914 11.2858 308.523 12.3598 332.45 14.2744C345.883 15.3485 354.045 16.3291 357.776 16.0956C360.901 15.9089 360.948 15.3485 358.243 13.8075C356.424 12.7801 358.476 12.173 359.782 11.8928C361.787 11.4259 360.948 9.83812 358.429 8.57728C355.024 6.84945 349.148 6.89616 351.946 8.62398C352.552 8.99756 352.692 9.93152 350.547 9.74473C344.297 9.18435 300.128 5.35513 288.141 4.70136C160.159 -2.39673 35.2546 2.78673 8.80929 1.05891C-0.565525 0.40514 3.7255 3.11362 8.29628 3.674Z" fill="#604ECD"/>
</svg>
