<svg width="350" height="358" viewBox="0 0 350 358" fill="none" xmlns="http://www.w3.org/2000/svg">
<path d="M65.856 104.618C65.856 104.618 49.955 110.909 47.6166 126.188C45.2782 141.467 81.4109 186.223 81.4109 186.223L192.839 126.178L157.609 64.3516L65.856 104.618Z" fill="#C7DCF9"/>
<path d="M90.4934 119.06C90.4934 119.06 78.7688 131.098 75.1724 144.418C71.5759 157.737 71.1129 181.523 71.7116 190.432C89.2026 206.619 158.339 193.056 158.339 193.056L224.964 114.683C224.964 114.683 213.67 93.2398 207.936 87.3611C202.203 81.4824 183.617 74.1726 162.174 82.8013C149.589 100.662 90.4934 119.06 90.4934 119.06Z" fill="#E1ECFF"/>
<g style="mix-blend-mode:multiply">
<path d="M85.2598 125.285C85.2598 125.285 111.127 133.586 140.244 122.338C169.362 111.091 174.637 79.4102 174.637 79.4102L162.16 82.8055L90.4931 119.06L85.2598 125.285Z" fill="#E1ECFF"/>
</g>
<path d="M190.562 222.463C190.562 222.463 223.266 222.673 232.456 225.021C241.646 227.369 265.97 282.419 276.034 287.689C286.098 292.96 294.648 284.205 305.736 277.705C316.825 271.204 326.987 263.338 327.305 260.054C327.623 256.771 322.914 243.653 318.84 241.006C314.767 238.359 302.939 238.172 296.631 242.213C287.361 216.958 274.182 180.129 262.097 175.059C250.013 169.989 213.389 167.576 213.389 167.576L190.562 222.463Z" fill="#E1ECFF"/>
<g style="mix-blend-mode:multiply" opacity="0.51">
<path d="M224.963 198.359C224.963 198.359 251.593 201.273 258.949 211.183C266.306 221.093 280.883 281.732 297.201 283.168C297.463 302.81 263.668 309.905 263.668 309.905L182.662 219.896L224.963 198.359Z" fill="#E1ECFF"/>
</g>
<path d="M102.694 217.497C102.694 217.497 122.804 259.677 141.044 271.181C159.283 282.686 192.329 281.756 201.444 289.29C210.559 296.824 208.632 333.018 217.743 342.605C226.853 352.192 239.672 358.066 251.654 356.986C263.636 355.906 273.223 350.158 273.345 344.766C273.466 339.373 272.985 334.697 267.354 331.82C261.723 328.944 253.791 326.55 253.45 323.196C253.108 319.843 246.739 268.792 244.096 254.916C241.454 241.04 220.932 221.739 194.485 212.016C169.441 191.045 130.975 200.029 130.975 200.029L102.694 217.497Z" fill="#E1ECFF"/>
<g style="mix-blend-mode:multiply">
<path d="M108.545 228.781C108.545 228.781 131.625 229.959 152.352 220.854C148.391 199.762 136.171 193.532 136.171 193.532L102.694 217.496L108.545 228.781Z" fill="#E1ECFF"/>
</g>
<path d="M140.483 8.51069C122.408 -1.16553 84.526 -4.42991 61.1422 24.5707C37.7584 53.5713 49.4128 83.6475 59.2387 97.6498C69.5276 112.344 104.893 134.802 142.639 113.71C180.386 92.6176 184.342 31.9974 140.483 8.51069Z" fill="#E1ECFF"/>
<path d="M137.373 26.2449C153.429 30.0799 163.858 52.6078 158.465 74.1771C153.073 95.7463 134.497 110.249 113.648 110.366C92.799 110.483 72.0669 96.2467 72.1792 69.6266C72.2914 44.0447 102.508 17.9203 137.373 26.2449Z" fill="#1C3177"/>
<g style="mix-blend-mode:multiply">
<path d="M91.1152 194.73C112.034 185.021 96.386 162.853 117.24 157.812C144.734 161.721 152.339 160.318 152.339 160.318C152.339 160.318 99.7392 206.515 91.1152 194.73Z" fill="#E1ECFF"/>
</g>
<path d="M108.545 135.438L143.359 225.021L192.61 223.847L237.666 195.328L251.088 154.584L218.496 56.8027L202.674 102.579L161.692 135.171L108.545 135.438Z" fill="#FF97C9"/>
<path d="M91.1151 194.73C102.657 193.794 108.536 186.279 112.034 182.944C113.816 181.242 113.461 179.75 112.563 174.839C111.665 169.929 114.779 164.892 119.035 162.736C121.374 169.026 124.245 170.219 126.462 169.924C128.679 169.629 130.956 156.385 138.205 156.502C145.454 156.619 151.268 166.211 152.236 171C153.204 175.789 148.522 189.45 142.648 199.037C136.774 208.624 128.487 220.494 109.831 224.207C91.1759 227.921 80.569 218.394 74.4564 206.351C72.394 202.287 71.6504 196.67 71.7159 190.413C71.7159 190.413 75.8922 195.927 91.1151 194.73Z" fill="#E1ECFF"/>
<path d="M229.72 90.4802C229.72 90.4802 231.942 97.7058 230.445 100.521C228.949 103.337 226.909 105.666 225.413 109.271C223.916 112.877 226.133 126.468 232.723 128.802C239.312 131.135 244.765 125.027 246.505 121.492C248.245 117.956 247.282 108.673 244.705 102.2C242.128 95.7275 237.283 89.9751 229.72 90.4802Z" fill="#E1ECFF"/>
<path d="M237.297 0.705118L238.774 3.69824C238.863 3.87961 238.994 4.03662 239.157 4.15561C239.32 4.27461 239.51 4.352 239.71 4.38105L243.016 4.84873C243.247 4.88183 243.465 4.97908 243.643 5.12944C243.822 5.27979 243.955 5.47723 244.027 5.69933C244.099 5.92142 244.107 6.15928 244.051 6.3859C243.995 6.61251 243.876 6.8188 243.708 6.98133L241.319 9.31971C241.173 9.46054 241.065 9.63465 241.002 9.82698C240.939 10.0193 240.924 10.224 240.958 10.4234L241.52 13.6972C241.559 13.9267 241.534 14.1628 241.447 14.3788C241.359 14.5947 241.213 14.7819 241.025 14.9191C240.836 15.0563 240.613 15.1381 240.381 15.1552C240.149 15.1724 239.916 15.1241 239.71 15.016L236.749 13.4633C236.571 13.3687 236.372 13.3193 236.169 13.3193C235.967 13.3193 235.768 13.3687 235.59 13.4633L232.629 15.016C232.423 15.1254 232.19 15.1747 231.956 15.1582C231.723 15.1417 231.499 15.0601 231.31 14.9227C231.121 14.7853 230.975 14.5976 230.887 14.3809C230.799 14.1643 230.774 13.9274 230.815 13.6972L231.38 10.4234C231.415 10.224 231.4 10.0193 231.337 9.82698C231.274 9.63465 231.166 9.46054 231.02 9.31971L228.63 6.98133C228.463 6.8188 228.344 6.61251 228.288 6.3859C228.232 6.15928 228.24 5.92142 228.312 5.69933C228.384 5.47723 228.517 5.27979 228.696 5.12944C228.874 4.97908 229.092 4.88183 229.323 4.84873L232.629 4.38105C232.829 4.352 233.018 4.27461 233.181 4.15561C233.344 4.03662 233.476 3.87961 233.564 3.69824L235.042 0.705118C235.145 0.493712 235.305 0.315483 235.505 0.1908C235.704 0.0661164 235.934 0 236.169 0C236.405 0 236.635 0.0661164 236.834 0.1908C237.034 0.315483 237.194 0.493712 237.297 0.705118V0.705118Z" fill="#FEC272"/>
<path d="M79.0725 317.457L80.3119 319.969C80.3857 320.121 80.4961 320.253 80.6332 320.352C80.7702 320.452 80.9298 320.516 81.0976 320.539L83.8709 320.941C84.0642 320.97 84.2458 321.051 84.3951 321.177C84.5444 321.303 84.6554 321.469 84.7158 321.654C84.7761 321.84 84.7832 322.039 84.7364 322.229C84.6896 322.419 84.5907 322.591 84.4508 322.728L82.4445 324.683C82.3213 324.802 82.2295 324.95 82.1772 325.113C82.125 325.276 82.114 325.45 82.1452 325.618L82.6128 328.377C82.6449 328.57 82.6228 328.768 82.549 328.948C82.4752 329.129 82.3526 329.286 82.1949 329.401C82.0372 329.516 81.8506 329.584 81.656 329.6C81.4614 329.615 81.2664 329.575 81.0929 329.486L78.6142 328.181C78.464 328.103 78.2972 328.062 78.1278 328.062C77.9585 328.062 77.7916 328.103 77.6414 328.181L75.1721 329.476C74.9988 329.568 74.8033 329.609 74.6079 329.594C74.4125 329.58 74.225 329.511 74.0667 329.396C73.9083 329.28 73.7856 329.123 73.7123 328.941C73.6391 328.76 73.6182 328.561 73.6522 328.368L74.1198 325.609C74.1488 325.44 74.1362 325.266 74.0833 325.104C74.0303 324.941 73.9385 324.793 73.8158 324.673L71.8142 322.718C71.6743 322.582 71.5754 322.409 71.5286 322.22C71.4817 322.03 71.4889 321.831 71.5492 321.645C71.6096 321.459 71.7206 321.294 71.8699 321.168C72.0192 321.042 72.2008 320.96 72.3941 320.932L75.1628 320.53C75.331 320.506 75.491 320.442 75.6287 320.342C75.7665 320.243 75.8778 320.111 75.9531 319.959L77.1925 317.448C77.2797 317.273 77.4143 317.125 77.581 317.023C77.7476 316.92 77.9397 316.866 78.1354 316.867C78.3311 316.868 78.5227 316.924 78.6883 317.028C78.8539 317.132 78.987 317.281 79.0725 317.457V317.457Z" fill="#FEC272"/>
<g style="mix-blend-mode:soft-light" opacity="0.48">
<path d="M123.358 53.1357C134.867 50.5988 143.47 45.242 142.573 41.1709C141.676 37.0998 131.618 35.8561 120.108 38.3929C108.599 40.9298 99.996 46.2866 100.893 50.3577C101.791 54.4288 111.848 55.6725 123.358 53.1357Z" fill="white"/>
</g>
<g style="mix-blend-mode:multiply">
<path d="M149.57 184.432C149.57 184.432 136.33 172.6 133.931 172.6C131.532 172.6 125.144 181.953 126.584 184.432C128.025 186.91 135.423 195.029 143.547 197.527C146.18 192.504 149.57 184.432 149.57 184.432Z" fill="#E1ECFF"/>
</g>
<g style="mix-blend-mode:multiply" opacity="0.5">
<path d="M161.692 135.171L192.61 223.848L237.666 195.329L202.675 102.579L161.692 135.171Z" fill="#FF97C9"/>
</g>
<g style="mix-blend-mode:multiply">
<path d="M246.748 271.854C242.114 275.694 236.906 278.782 231.315 281.007C226.072 283.027 224.3 287.162 225.885 294.747C227.471 302.333 228.359 314.16 231.633 317.275C234.907 320.39 246.168 318.734 252.005 311.495C250.176 297.231 246.748 271.854 246.748 271.854Z" fill="#E1ECFF"/>
</g>
<g style="mix-blend-mode:multiply">
<path d="M277.264 194.515C277.264 194.515 270.717 197.367 271.339 201.918C271.961 206.468 278.648 228.463 281.286 230.446C283.924 232.429 291.729 228.912 291.729 228.912C283.713 206.202 277.264 194.515 277.264 194.515Z" fill="#E1ECFF"/>
</g>
<path d="M0.961179 247.146C-4.24406 236.352 12.7186 224.801 27.151 225.633C41.5835 226.466 47.6493 239.79 52.761 244.761C63.438 255.134 63.1013 265.283 55.7074 269.646C48.3134 274.01 7.85005 261.425 0.961179 247.146Z" fill="#99ADF9"/>
<path d="M292.117 79.9295C287.908 76.2442 292.239 58.9215 302.182 54.8668C312.125 50.812 324.471 55.2456 327.109 62.1953C329.747 69.1449 300.746 87.4778 292.117 79.9295Z" fill="#99ADF9"/>
<path d="M340.84 89.199C338.684 92.2716 337.249 101.022 341.799 102.579C346.35 104.137 349.792 95.1338 348.192 90.4477C346.593 85.7616 342.281 87.1459 340.84 89.199Z" fill="#99ADF9"/>
<path opacity="0.44" d="M344.114 18.1918C340.718 19.7912 335.12 26.6661 338.3 30.2812C341.481 33.8963 348.931 27.7885 349.871 22.9293C350.811 18.0702 346.382 17.1255 344.114 18.1918Z" fill="#99ADF9"/>
<path opacity="0.44" d="M24.8409 292.562C21.9039 290.224 13.2659 288.236 11.4233 292.684C9.58061 297.132 18.3542 301.102 23.1152 299.821C27.8761 298.539 26.7958 294.124 24.8409 292.562Z" fill="#99ADF9"/>
<g style="mix-blend-mode:multiply" opacity="0.64">
<path d="M50.2027 241.802C44.9788 242.784 45.8206 247.456 47.4949 251.688C49.1692 255.921 55.0619 257.127 59.2195 253.26C56.521 246.839 50.2027 241.802 50.2027 241.802Z" fill="#99ADF9"/>
</g>
<g style="mix-blend-mode:multiply" opacity="0.64">
<path d="M20.1732 234.754C16.4318 235.17 13.3826 240.586 16.0203 244.977C18.6579 249.369 23.6855 252.568 26.5617 251.37C29.4379 250.173 29.9196 243.7 27.8431 239.547C25.7666 235.394 23.7696 234.352 20.1732 234.754Z" fill="#99ADF9"/>
</g>
<g style="mix-blend-mode:multiply" opacity="0.64">
<path d="M315.436 58.5985C313.383 59.2532 311.301 61.4747 311.484 63.8739C311.666 66.2731 313.761 68.3683 316.034 68.083C318.307 67.7977 320.243 64.1264 319.776 61.4887C319.308 58.851 317.002 58.1028 315.436 58.5985Z" fill="#99ADF9"/>
</g>
<g style="mix-blend-mode:multiply" opacity="0.64">
<path d="M293.694 63.2754C293.694 63.2754 296.5 66.0814 296.032 69.2663C295.564 72.4512 290.729 72.1565 290.729 72.1565C290.729 72.1565 291.449 66.7268 293.694 63.2754Z" fill="#99ADF9"/>
</g>
</svg>
