<svg width="136" height="27" viewBox="0 0 136 27" fill="none" xmlns="http://www.w3.org/2000/svg">
<path d="M4.84831 5.216C4.12831 5.216 3.53631 5.008 3.07231 4.592C2.62431 4.16 2.40031 3.632 2.40031 3.008C2.40031 2.368 2.62431 1.84 3.07231 1.424C3.53631 0.991999 4.12831 0.775999 4.84831 0.775999C5.55231 0.775999 6.12831 0.991999 6.57631 1.424C7.04031 1.84 7.27231 2.368 7.27231 3.008C7.27231 3.632 7.04031 4.16 6.57631 4.592C6.12831 5.008 5.55231 5.216 4.84831 5.216ZM6.91231 21.728C6.91231 23.376 6.49631 24.56 5.66431 25.28C4.83231 26.016 3.67231 26.384 2.18431 26.384H0.576312V22.904H1.56031C2.00831 22.904 2.32831 22.816 2.52031 22.64C2.71231 22.464 2.80831 22.176 2.80831 21.776V6.608H6.91231V21.728ZM23.087 6.608V20H18.983V18.176C18.567 18.768 17.999 19.248 17.279 19.616C16.575 19.968 15.791 20.144 14.927 20.144C13.903 20.144 12.999 19.92 12.215 19.472C11.431 19.008 10.823 18.344 10.391 17.48C9.959 16.616 9.743 15.6 9.743 14.432V6.608H13.823V13.88C13.823 14.776 14.055 15.472 14.519 15.968C14.983 16.464 15.607 16.712 16.391 16.712C17.191 16.712 17.823 16.464 18.287 15.968C18.751 15.472 18.983 14.776 18.983 13.88V6.608H23.087ZM43.1229 6.464C44.7869 6.464 46.1069 6.968 47.0829 7.976C48.0749 8.984 48.5709 10.384 48.5709 12.176V20H44.4909V12.728C44.4909 11.864 44.2589 11.2 43.7949 10.736C43.3469 10.256 42.7229 10.016 41.9229 10.016C41.1229 10.016 40.4909 10.256 40.0269 10.736C39.5789 11.2 39.3549 11.864 39.3549 12.728V20H35.2749V12.728C35.2749 11.864 35.0429 11.2 34.5789 10.736C34.1309 10.256 33.5069 10.016 32.7069 10.016C31.9069 10.016 31.2749 10.256 30.8109 10.736C30.3629 11.2 30.1389 11.864 30.1389 12.728V20H26.0349V6.608H30.1389V8.288C30.5549 7.728 31.0989 7.288 31.7709 6.968C32.4429 6.632 33.2029 6.464 34.0509 6.464C35.0589 6.464 35.9549 6.68 36.7389 7.112C37.5389 7.544 38.1629 8.16 38.6109 8.96C39.0749 8.224 39.7069 7.624 40.5069 7.16C41.3069 6.696 42.1789 6.464 43.1229 6.464ZM55.5451 8.504C55.9451 7.88 56.4971 7.376 57.2011 6.992C57.9051 6.608 58.7291 6.416 59.6731 6.416C60.7771 6.416 61.7771 6.696 62.6731 7.256C63.5691 7.816 64.2731 8.616 64.7851 9.656C65.3131 10.696 65.5771 11.904 65.5771 13.28C65.5771 14.656 65.3131 15.872 64.7851 16.928C64.2731 17.968 63.5691 18.776 62.6731 19.352C61.7771 19.912 60.7771 20.192 59.6731 20.192C58.7451 20.192 57.9211 20 57.2011 19.616C56.4971 19.232 55.9451 18.736 55.5451 18.128V26.384H51.4411V6.608H55.5451V8.504ZM61.4011 13.28C61.4011 12.256 61.1131 11.456 60.5371 10.88C59.9771 10.288 59.2811 9.992 58.4491 9.992C57.6331 9.992 56.9371 10.288 56.3611 10.88C55.8011 11.472 55.5211 12.28 55.5211 13.304C55.5211 14.328 55.8011 15.136 56.3611 15.728C56.9371 16.32 57.6331 16.616 58.4491 16.616C59.2651 16.616 59.9611 16.32 60.5371 15.728C61.1131 15.12 61.4011 14.304 61.4011 13.28ZM73.1782 20.192C72.0102 20.192 70.9702 19.992 70.0582 19.592C69.1462 19.192 68.4262 18.648 67.8982 17.96C67.3702 17.256 67.0742 16.472 67.0102 15.608H71.0662C71.1142 16.072 71.3302 16.448 71.7142 16.736C72.0982 17.024 72.5702 17.168 73.1302 17.168C73.6422 17.168 74.0342 17.072 74.3062 16.88C74.5942 16.672 74.7382 16.408 74.7382 16.088C74.7382 15.704 74.5382 15.424 74.1382 15.248C73.7382 15.056 73.0902 14.848 72.1942 14.624C71.2342 14.4 70.4342 14.168 69.7942 13.928C69.1542 13.672 68.6022 13.28 68.1382 12.752C67.6742 12.208 67.4422 11.48 67.4422 10.568C67.4422 9.8 67.6502 9.104 68.0662 8.48C68.4982 7.84 69.1222 7.336 69.9382 6.968C70.7702 6.6 71.7542 6.416 72.8902 6.416C74.5702 6.416 75.8902 6.832 76.8502 7.664C77.8262 8.496 78.3862 9.6 78.5302 10.976H74.7382C74.6742 10.512 74.4662 10.144 74.1142 9.872C73.7782 9.6 73.3302 9.464 72.7702 9.464C72.2902 9.464 71.9222 9.56 71.6662 9.752C71.4102 9.928 71.2822 10.176 71.2822 10.496C71.2822 10.88 71.4822 11.168 71.8822 11.36C72.2982 11.552 72.9382 11.744 73.8022 11.936C74.7942 12.192 75.6022 12.448 76.2262 12.704C76.8502 12.944 77.3942 13.344 77.8582 13.904C78.3382 14.448 78.5862 15.184 78.6022 16.112C78.6022 16.896 78.3782 17.6 77.9302 18.224C77.4982 18.832 76.8662 19.312 76.0342 19.664C75.2182 20.016 74.2662 20.192 73.1782 20.192ZM88.577 16.52V20H86.489C85.001 20 83.841 19.64 83.009 18.92C82.177 18.184 81.761 16.992 81.761 15.344V10.016H80.129V6.608H81.761V3.344H85.865V6.608H88.553V10.016H85.865V15.392C85.865 15.792 85.961 16.08 86.153 16.256C86.345 16.432 86.665 16.52 87.113 16.52H88.577ZM90.047 13.28C90.047 11.904 90.303 10.696 90.815 9.656C91.343 8.616 92.055 7.816 92.951 7.256C93.847 6.696 94.847 6.416 95.951 6.416C96.895 6.416 97.719 6.608 98.423 6.992C99.143 7.376 99.695 7.88 100.079 8.504V6.608H104.183V20H100.079V18.104C99.679 18.728 99.119 19.232 98.399 19.616C97.695 20 96.871 20.192 95.927 20.192C94.839 20.192 93.847 19.912 92.951 19.352C92.055 18.776 91.343 17.968 90.815 16.928C90.303 15.872 90.047 14.656 90.047 13.28ZM100.079 13.304C100.079 12.28 99.791 11.472 99.215 10.88C98.655 10.288 97.967 9.992 97.151 9.992C96.335 9.992 95.639 10.288 95.063 10.88C94.503 11.456 94.223 12.256 94.223 13.28C94.223 14.304 94.503 15.12 95.063 15.728C95.639 16.32 96.335 16.616 97.151 16.616C97.967 16.616 98.655 16.32 99.215 15.728C99.791 15.136 100.079 14.328 100.079 13.304ZM111.256 8.84C111.736 8.104 112.336 7.528 113.056 7.112C113.776 6.68 114.576 6.464 115.456 6.464V10.808H114.328C113.304 10.808 112.536 11.032 112.024 11.48C111.512 11.912 111.256 12.68 111.256 13.784V20H107.152V6.608H111.256V8.84ZM124.882 16.52V20H122.794C121.306 20 120.146 19.64 119.314 18.92C118.482 18.184 118.066 16.992 118.066 15.344V10.016H116.434V6.608H118.066V3.344H122.17V6.608H124.858V10.016H122.17V15.392C122.17 15.792 122.266 16.08 122.458 16.256C122.65 16.432 122.97 16.52 123.418 16.52H124.882Z" fill="#2D2A2E"/>
<circle cx="133" cy="17" r="3" fill="#604ECD"/>
</svg>
